<?xml version="1.0" standalone="no"?>
<!DOCTYPE svg PUBLIC "-//W3C//DTD SVG 20010904//EN"
 "http://www.w3.org/TR/2001/REC-SVG-20010904/DTD/svg10.dtd">
<svg version="1.0" xmlns="http://www.w3.org/2000/svg"
 width="300.000000pt" height="534.000000pt" viewBox="0 0 300.000000 534.000000"
 preserveAspectRatio="xMidYMid meet">
<metadata>
Created by potrace 1.10, written by Peter Selinger 2001-2011
</metadata>
<g transform="translate(0.000000,534.000000) scale(0.100000,-0.100000)"
fill="#000000" stroke="none">
<path d="M1019 5323 c-13 -16 -12 -17 4 -4 16 13 21 21 13 21 -2 0 -10 -8 -17
-17z"/>
<path d="M1410 5329 c0 -5 5 -7 10 -4 6 3 10 8 10 11 0 2 -4 4 -10 4 -5 0 -10
-5 -10 -11z"/>
<path d="M1577 5317 c-9 -11 -17 -25 -17 -30 0 -6 10 2 21 17 12 15 20 29 17
31 -2 2 -11 -6 -21 -18z"/>
<path d="M1675 5298 c4 -55 6 -58 14 -28 8 28 3 70 -9 70 -5 0 -7 -19 -5 -42z"/>
<path d="M1741 5318 c0 -18 -7 -28 -16 -28 -8 0 -15 -4 -15 -10 0 -12 10 -13
28 -1 8 5 12 20 9 37 l-4 29 -2 -27z"/>
<path d="M1771 5324 c0 -11 3 -14 6 -6 3 7 2 16 -1 19 -3 4 -6 -2 -5 -13z"/>
<path d="M1796 5325 c-3 -8 -1 -15 4 -15 6 0 10 7 10 15 0 8 -2 15 -4 15 -2 0
-6 -7 -10 -15z"/>
<path d="M1877 5329 c7 -7 15 -10 18 -7 3 3 -2 9 -12 12 -14 6 -15 5 -6 -5z"/>
<path d="M2555 5330 c3 -5 8 -10 11 -10 2 0 4 5 4 10 0 6 -5 10 -11 10 -5 0
-7 -4 -4 -10z"/>
<path d="M377 5323 c-4 -3 -7 -11 -7 -17 0 -6 5 -5 12 2 6 6 9 14 7 17 -3 3
-9 2 -12 -2z"/>
<path d="M850 5320 c8 -5 20 -10 25 -10 6 0 3 5 -5 10 -8 5 -19 10 -25 10 -5
0 -3 -5 5 -10z"/>
<path d="M1460 5320 c-8 -5 -12 -11 -10 -14 3 -2 14 2 24 10 22 15 10 19 -14
4z"/>
<path d="M2200 5321 c0 -10 26 -9 36 2 4 4 -2 7 -14 7 -12 0 -22 -4 -22 -9z"/>
<path d="M2801 5314 c0 -11 3 -14 6 -6 3 7 2 16 -1 19 -3 4 -6 -2 -5 -13z"/>
<path d="M1247 5308 c2 -5 13 -8 24 -8 10 0 19 3 19 8 0 4 -11 7 -24 7 -13 0
-22 -3 -19 -7z"/>
<path d="M1535 5310 c3 -5 2 -10 -3 -10 -5 0 -9 -7 -9 -15 0 -9 5 -14 11 -12
15 5 20 47 6 47 -6 0 -8 -4 -5 -10z"/>
<path d="M1611 5304 c0 -11 3 -14 6 -6 3 7 2 16 -1 19 -3 4 -6 -2 -5 -13z"/>
<path d="M1899 5309 c-10 -6 -4 -9 19 -9 17 0 32 2 32 4 0 9 -39 13 -51 5z"/>
<path d="M2090 5316 c0 -2 14 -6 30 -8 17 -3 30 -1 30 4 0 4 -13 8 -30 8 -16
0 -30 -2 -30 -4z"/>
<path d="M2681 5304 c0 -11 3 -14 6 -6 3 7 2 16 -1 19 -3 4 -6 -2 -5 -13z"/>
<path d="M1030 5300 c-13 -8 -13 -10 2 -10 9 0 20 5 23 10 8 13 -5 13 -25 0z"/>
<path d="M2255 5300 c3 -5 8 -10 11 -10 2 0 4 5 4 10 0 6 -5 10 -11 10 -5 0
-7 -4 -4 -10z"/>
<path d="M2967 5303 c-4 -6 0 -13 8 -17 8 -3 17 0 21 6 4 6 3 8 -4 4 -5 -3
-12 -1 -14 6 -3 8 -6 9 -11 1z"/>
<path d="M1807 5279 c-3 -13 -1 -19 6 -16 15 5 22 37 9 37 -5 0 -12 -9 -15
-21z"/>
<path d="M865 5280 c3 -5 10 -10 16 -10 5 0 9 5 9 10 0 6 -7 10 -16 10 -8 0
-12 -4 -9 -10z"/>
<path d="M2215 5280 c3 -5 8 -10 11 -10 2 0 4 5 4 10 0 6 -5 10 -11 10 -5 0
-7 -4 -4 -10z"/>
<path d="M780 5269 c0 -5 5 -7 10 -4 6 3 10 8 10 11 0 2 -4 4 -10 4 -5 0 -10
-5 -10 -11z"/>
<path d="M1071 5264 c0 -11 3 -14 6 -6 3 7 2 16 -1 19 -3 4 -6 -2 -5 -13z"/>
<path d="M1155 5271 c-3 -5 -1 -12 5 -16 5 -3 10 1 10 9 0 18 -6 21 -15 7z"/>
<path d="M1967 5266 c-4 -10 -1 -13 8 -9 8 3 12 9 9 14 -7 12 -11 11 -17 -5z"/>
<path d="M810 5266 c0 -2 7 -9 15 -16 9 -7 15 -8 15 -2 0 5 -7 12 -15 16 -8 3
-15 4 -15 2z"/>
<path d="M1925 5260 c-3 -5 -2 -10 4 -10 5 0 13 5 16 10 3 6 2 10 -4 10 -5 0
-13 -4 -16 -10z"/>
<path d="M2968 5263 c7 -3 16 -2 19 1 4 3 -2 6 -13 5 -11 0 -14 -3 -6 -6z"/>
<path d="M960 5251 c0 -6 4 -13 10 -16 6 -3 7 1 4 9 -7 18 -14 21 -14 7z"/>
<path d="M1462 5240 c-8 -13 -8 -20 -2 -20 6 0 13 7 17 15 9 24 -1 27 -15 5z"/>
<path d="M2030 5250 c0 -5 7 -7 15 -4 8 4 15 8 15 10 0 2 -7 4 -15 4 -8 0 -15
-4 -15 -10z"/>
<path d="M1720 5240 c0 -5 7 -10 15 -10 8 0 15 5 15 10 0 6 -7 10 -15 10 -8 0
-15 -4 -15 -10z"/>
<path d="M788 5233 c7 -3 16 -2 19 1 4 3 -2 6 -13 5 -11 0 -14 -3 -6 -6z"/>
<path d="M873 5227 c-15 -18 -25 -37 -20 -37 12 0 47 39 39 44 -6 3 -14 0 -19
-7z"/>
<path d="M1978 5233 c6 -2 10 -9 7 -14 -4 -5 1 -6 10 -2 13 5 14 7 3 14 -7 5
-17 8 -23 8 -5 0 -4 -3 3 -6z"/>
<path d="M817 5204 c-10 -13 -14 -24 -10 -24 9 0 36 40 31 45 -2 2 -11 -8 -21
-21z"/>
<path d="M2130 5220 c-8 -5 -10 -10 -5 -10 6 0 17 5 25 10 8 5 11 10 5 10 -5
0 -17 -5 -25 -10z"/>
<path d="M2190 5220 c0 -6 7 -10 15 -10 8 0 15 2 15 4 0 2 -7 6 -15 10 -8 3
-15 1 -15 -4z"/>
<path d="M1525 5210 c-3 -5 -1 -10 4 -10 6 0 11 5 11 10 0 6 -2 10 -4 10 -3 0
-8 -4 -11 -10z"/>
<path d="M1010 5201 c0 -6 4 -12 8 -15 5 -3 9 1 9 9 0 8 -4 15 -9 15 -4 0 -8
-4 -8 -9z"/>
<path d="M1216 5199 c3 -5 11 -9 19 -9 8 0 16 4 19 9 3 5 -5 9 -19 9 -14 0
-22 -4 -19 -9z"/>
<path d="M1951 5196 c-10 -12 -8 -13 8 -9 12 3 18 9 15 14 -7 12 -10 11 -23
-5z"/>
<path d="M2876 5193 c-4 -9 -4 -14 0 -10 9 9 44 -22 44 -39 0 -7 4 -15 8 -18
4 -2 6 11 4 30 -2 19 -7 33 -10 29 -3 -3 -13 2 -22 10 -16 14 -18 14 -24 -2z"/>
<path d="M1080 5190 c-24 -8 -23 -8 8 -9 20 -1 31 3 27 9 -3 6 -7 10 -8 9 -1
-1 -13 -5 -27 -9z"/>
<path d="M1626 5186 c7 -17 42 -28 50 -15 3 5 -4 9 -15 9 -12 0 -21 5 -21 10
0 6 -4 10 -10 10 -5 0 -7 -6 -4 -14z"/>
<path d="M2620 5179 l-25 -20 25 7 c31 8 33 10 29 23 -2 5 -15 1 -29 -10z"/>
<path d="M1377 5183 c-3 -5 1 -14 9 -21 12 -11 14 -9 14 8 0 20 -14 27 -23 13z"/>
<path d="M1906 5175 c-11 -8 -15 -15 -9 -15 6 0 16 7 23 15 16 19 11 19 -14 0z"/>
<path d="M852 5173 c-6 -2 -10 -9 -7 -13 7 -11 35 -2 35 11 0 10 -8 10 -28 2z"/>
<path d="M1270 5165 c-7 -9 -11 -17 -9 -20 3 -2 10 5 17 15 14 24 10 26 -8 5z"/>
<path d="M1446 5165 c-3 -8 -1 -15 3 -15 5 0 11 7 15 15 3 8 1 15 -3 15 -5 0
-11 -7 -15 -15z"/>
<path d="M1607 5165 c-8 -20 -4 -29 11 -24 5 2 6 13 2 23 -6 19 -7 19 -13 1z"/>
<path d="M1785 5170 c-3 -5 1 -10 9 -10 9 0 16 5 16 10 0 6 -4 10 -9 10 -6 0
-13 -4 -16 -10z"/>
<path d="M1830 5166 c0 -8 -6 -17 -12 -19 -8 -3 -6 -6 5 -6 11 -1 17 6 17 19
0 11 -2 20 -5 20 -3 0 -5 -6 -5 -14z"/>
<path d="M1983 5163 c-3 -10 -8 -22 -11 -27 -3 -5 0 -6 5 -3 11 7 25 47 17 47
-3 0 -7 -8 -11 -17z"/>
<path d="M2260 5176 c0 -2 13 -6 29 -8 17 -2 28 -1 25 4 -5 8 -54 12 -54 4z"/>
<path d="M770 5160 c0 -5 7 -10 15 -10 8 0 15 -5 15 -12 0 -6 3 -8 6 -5 8 8
-14 37 -27 37 -5 0 -9 -4 -9 -10z"/>
<path d="M2230 5166 c0 -4 7 -14 15 -22 8 -9 15 -11 15 -6 0 5 -7 15 -15 22
-8 7 -15 9 -15 6z"/>
<path d="M1345 5150 c27 -12 43 -12 25 0 -8 5 -22 9 -30 9 -10 0 -8 -3 5 -9z"/>
<path d="M2140 5150 c12 -8 12 -10 1 -10 -8 0 -12 -2 -9 -5 3 -3 13 -2 22 1
14 5 15 9 4 15 -7 5 -17 9 -23 9 -5 0 -3 -5 5 -10z"/>
<path d="M1925 5141 c-6 -5 -19 -11 -30 -14 -16 -4 -14 -5 6 -6 15 0 32 6 39
14 13 16 0 21 -15 6z"/>
<path d="M2204 5135 c8 -8 17 -15 20 -15 3 0 3 7 0 15 -4 8 -13 15 -21 15 -12
0 -12 -2 1 -15z"/>
<path d="M560 5129 c0 -6 -7 -9 -15 -5 -8 3 -15 1 -15 -4 0 -6 9 -10 20 -10
11 0 20 7 20 15 0 8 -2 15 -5 15 -3 0 -5 -5 -5 -11z"/>
<path d="M581 5104 c0 -11 3 -14 6 -6 3 7 2 16 -1 19 -3 4 -6 -2 -5 -13z"/>
<path d="M2178 5113 c7 -3 16 -2 19 1 4 3 -2 6 -13 5 -11 0 -14 -3 -6 -6z"/>
<path d="M75 5100 c-3 -5 -1 -10 4 -10 6 0 11 5 11 10 0 6 -2 10 -4 10 -3 0
-8 -4 -11 -10z"/>
<path d="M1125 5099 c-9 -14 -2 -20 14 -10 8 6 9 11 3 15 -6 3 -14 1 -17 -5z"/>
<path d="M2255 5100 c-3 -6 1 -7 9 -4 18 7 21 14 7 14 -6 0 -13 -4 -16 -10z"/>
<path d="M2932 5090 c0 -14 2 -19 5 -12 2 6 2 18 0 25 -3 6 -5 1 -5 -13z"/>
<path d="M1805 5089 c-4 -6 -13 -8 -21 -5 -8 3 -14 2 -14 -3 0 -16 13 -19 32
-8 16 9 22 9 25 -1 4 -10 8 -10 19 -1 8 6 14 16 14 21 0 6 -7 5 -15 -2 -10 -9
-15 -9 -15 -1 0 14 -17 14 -25 0z"/>
<path d="M1910 5089 c0 -5 5 -7 10 -4 6 3 10 8 10 11 0 2 -4 4 -10 4 -5 0 -10
-5 -10 -11z"/>
<path d="M2565 5090 c-3 -5 -1 -10 4 -10 6 0 11 5 11 10 0 6 -2 10 -4 10 -3 0
-8 -4 -11 -10z"/>
<path d="M1655 5080 c-3 -5 -2 -10 4 -10 5 0 13 5 16 10 3 6 2 10 -4 10 -5 0
-13 -4 -16 -10z"/>
<path d="M1726 5078 c5 -8 2 -9 -9 -5 -9 3 -19 1 -23 -4 -4 -7 3 -9 17 -7 23
3 40 28 19 28 -6 0 -8 -5 -4 -12z"/>
<path d="M2133 5083 c9 -2 25 -2 35 0 9 3 1 5 -18 5 -19 0 -27 -2 -17 -5z"/>
<path d="M980 5069 c0 -5 5 -7 10 -4 6 3 10 8 10 11 0 2 -4 4 -10 4 -5 0 -10
-5 -10 -11z"/>
<path d="M1238 5073 c12 -2 32 -2 45 0 12 2 2 4 -23 4 -25 0 -35 -2 -22 -4z"/>
<path d="M2206 5071 c-13 -5 -16 -10 -9 -14 7 -4 14 -3 18 2 3 6 13 7 22 4 11
-4 14 -3 9 5 -8 13 -13 14 -40 3z"/>
<path d="M1030 5060 c12 -8 13 -13 2 -30 -7 -11 -8 -20 -3 -20 12 0 24 37 16
50 -3 5 -12 10 -18 10 -7 0 -6 -4 3 -10z"/>
<path d="M1430 5060 c-8 -5 -10 -10 -5 -10 6 0 17 5 25 10 8 5 11 10 5 10 -5
0 -17 -5 -25 -10z"/>
<path d="M1161 5044 c0 -11 3 -14 6 -6 3 7 2 16 -1 19 -3 4 -6 -2 -5 -13z"/>
<path d="M1360 5040 c0 -5 5 -10 10 -10 6 0 10 5 10 10 0 6 -4 10 -10 10 -5 0
-10 -4 -10 -10z"/>
<path d="M2760 5039 c0 -5 5 -7 10 -4 6 3 10 8 10 11 0 2 -4 4 -10 4 -5 0 -10
-5 -10 -11z"/>
<path d="M2960 5040 c0 -5 5 -10 11 -10 5 0 7 5 4 10 -3 6 -8 10 -11 10 -2 0
-4 -4 -4 -10z"/>
<path d="M860 5020 c0 -5 5 -10 11 -10 5 0 7 5 4 10 -3 6 -8 10 -11 10 -2 0
-4 -4 -4 -10z"/>
<path d="M2575 5021 c-6 -5 -19 -11 -30 -14 -19 -4 -19 -5 1 -6 12 0 27 6 34
14 14 16 10 20 -5 6z"/>
<path d="M28 5013 c6 -2 18 -2 25 0 6 3 1 5 -13 5 -14 0 -19 -2 -12 -5z"/>
<path d="M2697 5013 c-4 -3 -7 -11 -7 -17 0 -6 5 -5 12 2 6 6 9 14 7 17 -3 3
-9 2 -12 -2z"/>
<path d="M145 5001 c-3 -5 -1 -12 5 -16 5 -3 10 1 10 9 0 18 -6 21 -15 7z"/>
<path d="M1358 5003 c6 -2 18 -2 25 0 6 3 1 5 -13 5 -14 0 -19 -2 -12 -5z"/>
<path d="M1660 4986 c0 -14 4 -27 8 -30 5 -3 6 8 4 25 -5 35 -12 38 -12 5z"/>
<path d="M710 4981 c0 -6 4 -13 10 -16 6 -3 7 1 4 9 -7 18 -14 21 -14 7z"/>
<path d="M1110 4986 c0 -2 7 -7 16 -10 8 -3 12 -2 9 4 -6 10 -25 14 -25 6z"/>
<path d="M1428 4983 c7 -3 16 -2 19 1 4 3 -2 6 -13 5 -11 0 -14 -3 -6 -6z"/>
<path d="M2745 4980 c-3 -5 -1 -10 4 -10 6 0 11 5 11 10 0 6 -2 10 -4 10 -3 0
-8 -4 -11 -10z"/>
<path d="M2737 4940 c3 -11 9 -17 15 -14 5 3 4 12 -3 20 -16 19 -18 18 -12 -6z"/>
<path d="M1010 4940 c0 -5 5 -10 11 -10 5 0 7 5 4 10 -3 6 -8 10 -11 10 -2 0
-4 -4 -4 -10z"/>
<path d="M1410 4939 c0 -5 5 -7 10 -4 6 3 10 8 10 11 0 2 -4 4 -10 4 -5 0 -10
-5 -10 -11z"/>
<path d="M340 4925 c0 -9 6 -12 15 -9 8 4 15 7 15 9 0 2 -7 5 -15 9 -9 3 -15
0 -15 -9z"/>
<path d="M1665 4910 c3 -5 8 -10 11 -10 2 0 4 5 4 10 0 6 -5 10 -11 10 -5 0
-7 -4 -4 -10z"/>
<path d="M2721 4904 c0 -11 3 -14 6 -6 3 7 2 16 -1 19 -3 4 -6 -2 -5 -13z"/>
<path d="M28 4903 c7 -3 16 -2 19 1 4 3 -2 6 -13 5 -11 0 -14 -3 -6 -6z"/>
<path d="M2557 4890 c3 -11 9 -20 14 -20 5 0 9 9 9 20 0 11 -6 20 -14 20 -9 0
-12 -7 -9 -20z"/>
<path d="M1585 4890 c-18 -8 -17 -9 8 -9 16 -1 26 3 22 9 -3 6 -7 10 -8 9 -1
0 -11 -4 -22 -9z"/>
<path d="M270 4886 c0 -2 11 -6 25 -8 13 -3 22 -1 19 3 -5 9 -44 13 -44 5z"/>
<path d="M505 4880 c-3 -5 -1 -10 4 -10 6 0 11 5 11 10 0 6 -2 10 -4 10 -3 0
-8 -4 -11 -10z"/>
<path d="M1080 4855 c0 -8 2 -15 4 -15 2 0 6 7 10 15 3 8 1 15 -4 15 -6 0 -10
-7 -10 -15z"/>
<path d="M2540 4835 c-11 -13 -10 -14 4 -9 9 3 16 10 16 15 0 13 -6 11 -20 -6z"/>
<path d="M995 4830 c3 -5 8 -10 11 -10 2 0 4 5 4 10 0 6 -5 10 -11 10 -5 0 -7
-4 -4 -10z"/>
<path d="M2308 4833 c7 -3 16 -2 19 1 4 3 -2 6 -13 5 -11 0 -14 -3 -6 -6z"/>
<path d="M580 4822 c0 -12 19 -26 26 -19 2 2 -2 10 -11 17 -9 8 -15 8 -15 2z"/>
<path d="M2690 4820 c0 -5 5 -10 10 -10 6 0 10 5 10 10 0 6 -4 10 -10 10 -5 0
-10 -4 -10 -10z"/>
<path d="M1156 4795 c4 -10 0 -13 -15 -10 -12 2 -21 0 -21 -5 0 -5 -9 -12 -20
-15 -11 -4 -18 -10 -15 -15 3 -5 -6 -17 -20 -26 -13 -9 -23 -20 -20 -24 3 -4
-6 -19 -20 -31 -13 -13 -25 -28 -25 -34 0 -5 30 20 68 57 37 36 76 70 87 76
32 16 205 14 317 -3 235 -36 269 -46 353 -103 50 -34 50 -34 76 -112 31 -93
63 -159 144 -295 79 -132 98 -181 116 -300 6 -44 20 -111 30 -150 29 -106 41
-194 34 -256 l-7 -56 -113 -107 c-124 -116 -146 -154 -106 -182 12 -9 21 -25
22 -37 0 -22 91 -107 114 -107 21 0 267 -87 375 -132 l105 -45 85 -125 c47
-68 100 -146 119 -172 19 -25 35 -55 36 -64 2 -24 17 -45 88 -122 54 -59 57
-61 57 -36 0 19 -6 29 -20 33 -11 3 -20 9 -20 13 0 4 -16 24 -35 44 -19 21
-35 41 -35 46 0 5 -5 21 -12 37 -6 15 -12 30 -12 33 -1 3 -11 17 -24 30 -29
32 -92 118 -92 126 0 3 -11 19 -25 36 -14 16 -25 36 -25 44 0 8 -4 14 -8 14
-4 0 -16 14 -26 31 -10 17 -31 39 -48 49 -20 12 -25 20 -16 23 7 3 2 6 -12 6
-14 1 -35 8 -46 16 -12 8 -24 12 -27 9 -3 -3 -35 8 -71 25 -37 17 -72 31 -80
31 -7 0 -19 7 -26 15 -7 8 -24 15 -39 15 -35 0 -72 11 -67 19 3 4 -12 8 -32 9
-51 4 -152 70 -152 101 0 6 -5 11 -12 11 -6 0 -8 3 -5 7 4 3 0 14 -9 24 -23
25 -11 69 19 70 12 0 16 3 9 6 -6 2 -9 9 -6 14 3 6 12 5 22 -3 14 -10 15 -10
5 1 -9 11 -4 21 22 48 19 19 37 33 42 30 4 -3 13 1 20 8 10 11 10 15 0 18 -7
3 -2 6 11 6 12 1 21 4 21 9 -3 20 3 23 19 11 15 -13 16 -12 4 2 -11 15 -9 20
14 38 15 12 21 21 13 21 -10 0 -11 2 -2 8 12 8 15 49 13 176 -1 40 -5 55 -11
45 -6 -10 -9 -3 -9 23 0 20 -5 40 -11 43 -6 4 -8 13 -5 21 3 8 2 14 -2 14 -7
0 -12 33 -12 90 0 27 -2 32 -10 20 -8 -11 -10 -4 -9 30 1 25 -1 52 -5 61 -4 9
-6 20 -5 25 5 26 -2 54 -12 49 -6 -4 -9 -1 -8 6 3 18 -32 89 -43 89 -5 0 -6 5
-3 10 3 6 1 10 -6 10 -6 0 -9 8 -6 20 3 12 1 17 -5 14 -5 -3 -12 3 -15 15 -3
12 -9 21 -14 21 -5 0 -6 6 -3 14 3 8 0 17 -7 22 -8 4 -10 3 -5 -4 4 -7 5 -12
2 -12 -3 0 -20 30 -38 68 -18 37 -36 69 -39 72 -3 3 -9 16 -13 30 -4 14 -11
34 -16 45 -4 11 -16 42 -25 68 -20 55 -61 98 -127 131 -26 13 -45 25 -43 27 3
4 -31 8 -72 9 -13 0 -23 4 -23 9 0 7 -96 23 -140 23 -8 0 -22 2 -30 5 -8 3
-34 5 -56 4 -23 -1 -44 2 -47 6 -6 10 -94 9 -150 -2 -25 -5 -43 -3 -50 4 -16
16 -27 14 -21 -4z"/>
<path d="M2090 4789 c0 -5 5 -7 10 -4 6 3 10 8 10 11 0 2 -4 4 -10 4 -5 0 -10
-5 -10 -11z"/>
<path d="M2537 4780 c3 -11 7 -20 9 -20 2 0 4 9 4 20 0 11 -4 20 -9 20 -5 0
-7 -9 -4 -20z"/>
<path d="M2395 4780 c-3 -5 -1 -10 4 -10 6 0 11 5 11 10 0 6 -2 10 -4 10 -3 0
-8 -4 -11 -10z"/>
<path d="M2125 4770 c-3 -5 -1 -10 4 -10 6 0 11 5 11 10 0 6 -2 10 -4 10 -3 0
-8 -4 -11 -10z"/>
<path d="M2571 4764 c0 -11 3 -14 6 -6 3 7 2 16 -1 19 -3 4 -6 -2 -5 -13z"/>
<path d="M2921 4754 c-12 -14 -11 -16 4 -12 10 1 20 9 23 16 5 17 -10 15 -27
-4z"/>
<path d="M2847 4753 c-4 -3 -7 -11 -7 -17 0 -6 5 -5 12 2 6 6 9 14 7 17 -3 3
-9 2 -12 -2z"/>
<path d="M1154 4736 c-3 -9 -11 -16 -18 -16 -6 0 -38 -27 -71 -60 -71 -72 -66
-81 7 -10 28 27 54 47 58 45 4 -3 10 2 13 9 5 11 25 14 89 12 46 -1 89 -6 96
-10 17 -10 15 -26 -4 -26 -10 0 -14 -6 -11 -14 3 -7 0 -19 -6 -25 -9 -9 -8
-11 6 -6 9 4 17 11 17 15 0 4 14 24 30 45 17 21 29 39 28 40 -2 1 -19 5 -38 9
-19 3 -30 2 -23 -2 7 -4 -22 -8 -64 -9 -43 -1 -83 2 -90 8 -9 8 -14 7 -19 -5z"/>
<path d="M2445 4720 c-3 -5 -2 -10 4 -10 5 0 13 5 16 10 3 6 2 10 -4 10 -5 0
-13 -4 -16 -10z"/>
<path d="M2515 4721 c-3 -5 -1 -12 5 -16 5 -3 10 1 10 9 0 18 -6 21 -15 7z"/>
<path d="M772 4700 c7 -11 17 -20 22 -20 5 0 1 9 -9 20 -10 11 -20 20 -22 20
-2 0 2 -9 9 -20z"/>
<path d="M1473 4709 c-60 -11 -97 -33 -134 -81 l-33 -43 35 33 c20 18 38 29
42 26 4 -4 7 -3 7 3 0 12 61 39 105 47 28 6 58 -4 56 -18 -1 -3 -1 -8 -1 -11
0 -2 11 7 25 21 14 14 25 27 25 29 0 6 -76 2 -127 -6z"/>
<path d="M2620 4710 c0 -5 7 -7 15 -4 8 4 15 8 15 10 0 2 -7 4 -15 4 -8 0 -15
-4 -15 -10z"/>
<path d="M2925 4710 c-3 -5 1 -10 10 -10 9 0 13 5 10 10 -3 6 -8 10 -10 10 -2
0 -7 -4 -10 -10z"/>
<path d="M1611 4688 c-19 -12 -29 -24 -22 -26 9 -3 9 -8 -1 -20 -12 -15 -11
-16 4 -3 10 7 15 18 12 23 -10 16 84 2 112 -17 35 -23 40 -14 8 16 -19 18 -34
23 -61 20 -33 -3 -36 -1 -24 13 18 21 13 20 -28 -6z"/>
<path d="M2839 4697 c-14 -10 -14 -14 -3 -25 12 -11 15 -10 20 2 9 24 1 36
-17 23z"/>
<path d="M2968 4703 c6 -2 18 -2 25 0 6 3 1 5 -13 5 -14 0 -19 -2 -12 -5z"/>
<path d="M77 4670 c-3 -11 -3 -20 -1 -20 2 0 8 9 14 20 6 11 7 20 2 20 -6 0
-12 -9 -15 -20z"/>
<path d="M620 4660 c0 -16 4 -30 8 -30 5 0 7 14 4 30 -2 17 -6 30 -8 30 -2 0
-4 -13 -4 -30z"/>
<path d="M960 4680 c-9 -6 -10 -10 -3 -10 6 0 15 5 18 10 8 12 4 12 -15 0z"/>
<path d="M2532 4670 c0 -14 2 -19 5 -12 2 6 2 18 0 25 -3 6 -5 1 -5 -13z"/>
<path d="M25 4669 c-4 -6 -5 -12 -2 -15 2 -3 7 2 10 11 7 17 1 20 -8 4z"/>
<path d="M730 4671 c0 -6 5 -13 10 -16 6 -3 10 1 10 9 0 9 -4 16 -10 16 -5 0
-10 -4 -10 -9z"/>
<path d="M1725 4670 c3 -5 12 -10 19 -10 32 0 112 -98 119 -144 2 -15 8 -31
14 -34 15 -10 33 -48 33 -71 0 -12 4 -21 9 -21 5 0 15 -24 21 -52 7 -29 15
-57 19 -63 3 -5 6 -16 7 -23 2 -8 10 -22 18 -31 9 -10 16 -24 16 -33 0 -8 9
-27 20 -40 10 -14 16 -28 13 -32 -3 -3 -1 -6 5 -6 7 0 11 -3 10 -7 -1 -5 4
-21 10 -36 7 -16 12 -35 12 -43 0 -8 4 -14 8 -14 12 0 16 -54 16 -195 0 -109
-3 -125 -28 -179 -40 -86 -25 -79 18 8 31 64 36 85 36 143 0 87 -17 235 -28
242 -4 3 -14 26 -21 50 -7 24 -25 67 -40 95 -29 54 -91 195 -91 208 0 9 -41
102 -78 178 -20 40 -40 64 -76 88 -48 32 -73 41 -61 22z"/>
<path d="M2770 4671 c0 -5 -3 -18 -6 -28 -6 -16 -5 -16 9 2 19 23 21 35 7 35
-5 0 -10 -4 -10 -9z"/>
<path d="M2885 4670 c-3 -5 -1 -10 4 -10 6 0 11 5 11 10 0 6 -2 10 -4 10 -3 0
-8 -4 -11 -10z"/>
<path d="M1140 4659 c0 -5 -4 -7 -10 -4 -5 3 -10 2 -10 -4 0 -5 -7 -17 -16
-25 -8 -9 -11 -16 -6 -16 5 0 15 7 23 16 7 8 26 21 43 29 l31 13 -27 1 c-16 1
-28 -4 -28 -10z"/>
<path d="M2400 4660 c-13 -8 -13 -10 2 -10 9 0 20 5 23 10 8 13 -5 13 -25 0z"/>
<path d="M670 4656 c0 -2 9 -6 20 -9 11 -3 18 -1 14 4 -5 9 -34 13 -34 5z"/>
<path d="M825 4650 c-3 -5 -1 -10 4 -10 6 0 11 5 11 10 0 6 -2 10 -4 10 -3 0
-8 -4 -11 -10z"/>
<path d="M1219 4649 c20 -8 22 -11 10 -26 -12 -14 -12 -16 0 -12 8 3 21 15 29
27 14 21 13 22 -24 21 -35 0 -36 -1 -15 -10z"/>
<path d="M1526 4631 c-4 -5 -14 -8 -24 -7 -22 4 -79 -20 -105 -44 -11 -11 -24
-17 -29 -14 -4 3 -8 -1 -8 -10 0 -8 -13 -17 -31 -21 -20 -5 -27 -10 -20 -15
10 -5 7 -17 -8 -46 -12 -21 -24 -53 -27 -71 -3 -18 -10 -30 -15 -27 -5 3 -9
-4 -9 -16 0 -11 -4 -28 -9 -38 -5 -9 -15 -36 -22 -59 -6 -24 -16 -40 -22 -36
-6 4 -8 -5 -4 -26 5 -23 3 -30 -5 -25 -6 4 -8 3 -5 -3 8 -12 -41 -167 -54
-171 -5 -2 -9 -13 -9 -25 -1 -12 -9 -40 -20 -62 -11 -22 -19 -50 -20 -62 0
-12 -5 -34 -10 -49 -11 -27 -17 -72 -25 -167 -7 -94 43 -215 99 -237 21 -8 55
-40 42 -40 -4 0 1 -11 10 -25 8 -13 13 -29 9 -34 -8 -14 26 -121 39 -122 6 0
2 -4 -9 -8 -11 -5 -25 -4 -32 1 -7 6 -13 6 -13 2 0 -11 40 -37 47 -31 4 5 38
-25 61 -55 11 -13 11 -22 2 -39 -8 -14 -8 -19 -1 -15 6 4 11 2 11 -3 0 -6 7
-11 15 -11 19 0 41 -37 44 -75 1 -9 7 -12 16 -9 14 6 13 8 -1 19 -12 8 -13 14
-6 19 6 4 29 -16 52 -46 43 -54 130 -216 130 -242 0 -8 7 -21 15 -30 9 -8 14
-19 13 -23 -2 -9 8 -43 27 -88 42 -100 49 -115 53 -111 6 7 -40 136 -49 136
-3 0 -9 15 -12 33 -3 17 -20 64 -38 102 -18 39 -32 74 -31 78 1 4 -4 15 -13
23 -14 14 -20 34 -11 34 2 0 17 -7 32 -15 16 -8 25 -15 20 -15 -5 0 13 -22 40
-48 27 -26 58 -61 69 -76 11 -16 29 -38 40 -50 22 -23 29 -34 63 -95 12 -22
27 -41 33 -41 6 0 8 -4 4 -9 -3 -6 0 -13 8 -18 13 -9 42 -63 39 -75 -1 -5 2
-8 7 -8 12 0 28 -45 39 -107 9 -49 8 -51 -12 -47 -51 12 -73 12 -103 3 -18 -6
-33 -15 -33 -20 0 -5 -6 -9 -12 -9 -7 0 -28 -14 -47 -30 -35 -31 -51 -37 -51
-20 0 6 -9 10 -20 10 -11 0 -20 5 -20 10 0 6 -7 10 -15 10 -8 0 -15 5 -15 10
0 6 -7 10 -16 10 -8 0 -12 5 -9 10 4 6 3 9 -2 8 -4 -2 -29 12 -55 30 -26 17
-52 32 -58 32 -6 0 -8 5 -4 12 5 8 2 9 -9 5 -10 -3 -17 -2 -17 3 0 6 -9 10
-20 10 -11 0 -20 4 -20 8 0 4 -28 16 -62 26 -95 27 -146 47 -159 62 -6 8 -15
11 -20 8 -5 -3 -9 -1 -9 5 0 6 -18 20 -40 31 -22 11 -40 23 -40 26 0 2 9 0 19
-6 15 -7 22 -7 27 2 4 7 4 10 0 6 -11 -10 -49 23 -131 114 -17 18 -54 52 -83
76 -50 42 -52 45 -52 95 0 29 -5 59 -10 67 -8 13 -10 13 -10 -2 0 -36 -21 -27
-47 21 -38 67 -69 87 -34 21 14 -27 29 -46 33 -44 5 3 8 0 8 -7 0 -6 7 -17 16
-24 9 -6 18 -32 21 -57 5 -42 11 -50 74 -103 38 -31 84 -80 103 -109 50 -78
195 -177 281 -191 77 -12 214 -85 317 -165 65 -52 102 -59 136 -27 15 13 46
37 69 52 46 29 69 29 147 -4 39 -17 41 -17 74 5 38 26 62 22 62 -10 0 -11 13
-33 29 -49 16 -15 32 -41 36 -57 4 -17 11 -30 16 -30 14 0 11 9 -31 96 -35 71
-44 82 -70 86 -17 3 -35 -1 -43 -9 -11 -11 -13 -3 -15 47 -1 33 -5 68 -10 78
-5 9 -7 35 -6 57 6 89 14 161 20 185 11 40 11 55 2 76 -7 16 -8 15 -4 -5 3
-13 1 -20 -3 -15 -14 14 -43 125 -37 140 3 8 0 11 -10 7 -10 -4 -12 0 -7 13 5
13 3 15 -7 9 -9 -5 -11 -4 -6 3 4 6 0 25 -9 41 -8 17 -16 39 -18 50 -2 11 -6
24 -10 27 -4 4 -7 12 -7 18 0 6 5 4 10 -4 8 -13 10 -12 10 3 0 9 -4 17 -9 17
-5 0 -12 11 -15 24 -3 13 -8 30 -11 38 -6 16 30 58 50 58 8 0 17 -11 21 -25 3
-14 11 -22 17 -18 6 3 20 -5 31 -19 23 -28 132 -65 295 -99 60 -12 99 -26 107
-37 16 -20 18 -68 4 -77 -5 -3 -10 -14 -10 -23 0 -9 -7 -30 -15 -46 -8 -15
-15 -38 -15 -50 0 -33 -11 -66 -20 -61 -5 3 -6 -4 -3 -16 8 -30 19 -12 38 61
9 36 23 79 30 96 7 17 16 54 20 81 l6 50 -41 17 c-22 9 -53 16 -68 16 -15 -1
-45 3 -67 8 -66 14 -253 93 -272 114 -12 13 -17 35 -17 73 1 64 -7 63 -61 -10
-38 -52 -55 -66 -55 -46 0 15 79 181 100 211 32 45 24 45 -30 0 -28 -23 -50
-49 -50 -58 0 -13 3 -12 15 4 14 17 14 16 1 -13 -9 -17 -21 -35 -27 -39 -7 -4
-9 -3 -5 4 3 5 8 51 11 102 5 90 10 114 23 106 4 -2 7 11 6 30 -1 19 3 49 9
67 5 18 12 39 15 47 2 8 6 25 8 38 1 12 7 46 13 75 15 75 16 124 1 195 -12 60
-19 71 -24 38 -1 -8 -14 -24 -28 -35 -15 -12 -25 -31 -25 -46 0 -13 3 -22 7
-20 10 6 4 -149 -9 -200 -5 -22 -17 -66 -26 -99 -9 -32 -18 -70 -20 -85 -3
-14 -9 -44 -14 -66 -15 -58 -14 -278 1 -269 7 4 8 3 4 -5 -10 -16 29 -168 69
-267 18 -45 30 -85 27 -88 -3 -3 0 -6 6 -6 6 0 9 -6 6 -14 -3 -8 -1 -17 5 -21
6 -3 11 -11 11 -16 0 -6 -4 -8 -10 -4 -5 3 -4 -5 3 -18 7 -14 11 -52 8 -97 -2
-55 -5 -69 -12 -52 -5 12 -13 22 -19 22 -6 0 -9 4 -5 9 3 5 -1 15 -8 23 -7 7
-16 21 -20 31 -13 34 -71 116 -79 111 -4 -3 -8 1 -8 10 0 8 -16 30 -35 50 -19
20 -32 36 -28 36 4 0 -4 10 -17 23 -14 12 -26 21 -27 20 -4 -4 -63 59 -63 68
0 5 -4 9 -8 9 -30 0 -214 184 -237 238 -10 23 -24 42 -29 42 -6 0 -4 5 4 10
13 9 12 13 -7 28 -20 16 -43 60 -43 83 0 14 17 11 34 -7 9 -8 16 -13 16 -9 0
16 42 -19 56 -48 9 -18 34 -49 55 -71 43 -42 52 -66 17 -42 -12 9 -27 16 -33
16 -5 -1 2 -8 18 -16 15 -8 27 -19 27 -25 0 -6 5 -7 10 -4 6 3 10 -1 10 -9 0
-9 5 -16 10 -16 6 0 10 5 10 10 0 13 -43 82 -65 103 -9 10 -14 17 -10 17 16 0
-70 96 -98 109 -52 25 -87 56 -87 78 0 20 10 15 71 -32 100 -77 147 -133 193
-227 15 -32 29 -58 30 -58 13 0 -17 87 -42 124 -18 26 -32 50 -32 53 0 10 -86
90 -110 103 -11 6 -20 17 -20 25 0 8 -3 14 -7 13 -5 -2 -22 6 -40 17 -26 15
-34 29 -43 70 -19 91 -27 292 -14 357 3 14 0 29 -6 33 -5 3 -7 11 -4 17 4 7 2
8 -5 4 -6 -4 -14 0 -17 9 -6 15 6 62 58 230 12 39 23 76 24 83 2 8 9 28 17 45
8 18 21 51 28 74 6 24 16 40 22 36 6 -3 7 -1 3 5 -8 13 41 102 56 102 5 0 7 4
4 8 -5 9 18 32 44 46 8 4 35 17 60 30 52 27 66 25 111 -17 19 -18 47 -42 62
-54 15 -12 46 -58 67 -102 22 -45 42 -81 44 -81 2 0 -1 16 -7 35 -6 19 -14 35
-19 35 -4 0 -8 5 -8 11 0 31 -48 99 -97 139 -97 79 -99 80 -162 56 -87 -33
-136 -92 -201 -241 -11 -24 -77 -225 -115 -350 -15 -49 -31 -95 -36 -100 -13
-18 -40 -147 -46 -225 -7 -96 8 -151 52 -191 19 -17 36 -39 38 -48 3 -9 3 4 0
29 -16 178 -21 265 -16 314 5 50 4 56 -11 50 -13 -5 -16 0 -16 25 0 26 4 31
24 31 l23 0 0 -152 c0 -159 15 -281 55 -428 41 -153 96 -232 255 -370 155
-135 243 -234 316 -356 54 -91 91 -174 80 -185 -5 -5 -9 -1 -10 10 -2 26 -96
181 -164 272 -32 42 -106 121 -165 175 -249 229 -290 286 -336 466 -19 74 -27
89 -52 104 -46 27 -82 66 -94 103 -15 43 -15 183 -1 253 23 115 219 673 257
735 28 44 105 97 166 114 20 5 36 14 36 19 0 13 -7 13 -14 1z m374 -817 c17
-49 8 -127 -35 -304 -76 -316 -71 -415 40 -715 51 -140 56 -181 43 -350 -4
-47 -2 -99 4 -127 8 -33 8 -57 1 -80 l-11 -33 -1 45 c-1 25 -8 61 -15 81 -9
26 -10 53 -4 90 4 30 11 90 14 134 6 78 5 84 -41 210 -121 331 -127 420 -49
747 39 167 53 278 35 278 -6 0 -11 14 -11 30 0 41 16 38 30 -6z m-749 -131 c0
-38 3 -94 5 -125 2 -32 1 -58 -4 -58 -4 0 -9 12 -10 28 -1 15 -7 39 -13 54 -7
17 -8 42 -4 65 5 21 7 53 6 71 -2 17 2 32 8 32 7 0 11 -26 12 -67z m765 -570
c-10 -10 -19 5 -10 18 6 11 8 11 12 0 2 -7 1 -15 -2 -18z"/>
<path d="M2680 4625 c0 -5 5 -17 10 -25 5 -8 10 -10 10 -5 0 6 -5 17 -10 25
-5 8 -10 11 -10 5z"/>
<path d="M1746 4595 c4 -8 10 -15 14 -15 4 0 11 -11 14 -25 4 -14 11 -25 16
-25 13 0 13 6 -2 32 -24 41 -54 65 -42 33z"/>
<path d="M2090 4595 c-14 -16 -3 -20 19 -6 8 5 9 11 3 15 -5 3 -15 -1 -22 -9z"/>
<path d="M1060 4580 c-6 -11 -9 -20 -8 -20 2 0 11 9 21 20 9 11 13 20 7 20 -5
0 -14 -9 -20 -20z"/>
<path d="M1190 4586 c0 -8 -6 -17 -12 -19 -8 -4 -9 -6 -2 -6 18 -1 37 26 24
34 -5 3 -10 0 -10 -9z"/>
<path d="M2550 4579 c0 -5 5 -7 10 -4 6 3 10 8 10 11 0 2 -4 4 -10 4 -5 0 -10
-5 -10 -11z"/>
<path d="M12 4555 c0 -16 2 -22 5 -12 2 9 2 23 0 30 -3 6 -5 -1 -5 -18z"/>
<path d="M2720 4565 c0 -8 7 -15 15 -15 9 0 12 6 9 15 -4 8 -10 15 -15 15 -5
0 -9 -7 -9 -15z"/>
<path d="M2770 4569 c0 -5 5 -7 10 -4 6 3 10 8 10 11 0 2 -4 4 -10 4 -5 0 -10
-5 -10 -11z"/>
<path d="M2625 4561 c-3 -5 -1 -12 5 -16 5 -3 10 1 10 9 0 18 -6 21 -15 7z"/>
<path d="M2975 4560 c-3 -5 -1 -10 4 -10 6 0 11 5 11 10 0 6 -2 10 -4 10 -3 0
-8 -4 -11 -10z"/>
<path d="M2784 4544 c-18 -14 -18 -15 4 -4 12 6 22 13 22 15 0 8 -5 6 -26 -11z"/>
<path d="M2860 4541 c0 -5 5 -13 10 -16 6 -3 10 -2 10 4 0 5 -4 13 -10 16 -5
3 -10 2 -10 -4z"/>
<path d="M2371 4514 c0 -11 3 -14 6 -6 3 7 2 16 -1 19 -3 4 -6 -2 -5 -13z"/>
<path d="M2707 4523 c-4 -3 -7 -11 -7 -17 0 -6 5 -5 12 2 6 6 9 14 7 17 -3 3
-9 2 -12 -2z"/>
<path d="M2785 4520 c-16 -7 -17 -9 -3 -9 9 -1 20 4 23 9 7 11 7 11 -20 0z"/>
<path d="M2981 4514 c0 -11 3 -14 6 -6 3 7 2 16 -1 19 -3 4 -6 -2 -5 -13z"/>
<path d="M1795 4508 c15 -37 54 -111 55 -102 0 19 -42 114 -51 114 -5 0 -6 -6
-4 -12z"/>
<path d="M670 4506 c0 -2 9 -6 20 -9 11 -3 20 -1 20 4 0 5 -9 9 -20 9 -11 0
-20 -2 -20 -4z"/>
<path d="M1980 4501 c0 -10 19 -25 25 -20 1 2 -3 10 -11 17 -8 7 -14 8 -14 3z"/>
<path d="M880 4496 c0 -2 9 -6 20 -9 11 -3 20 -1 20 4 0 5 -9 9 -20 9 -11 0
-20 -2 -20 -4z"/>
<path d="M2825 4490 c-3 -5 -2 -10 4 -10 5 0 13 5 16 10 3 6 2 10 -4 10 -5 0
-13 -4 -16 -10z"/>
<path d="M2866 4491 c-3 -5 1 -11 9 -14 9 -4 12 -1 8 9 -6 16 -10 17 -17 5z"/>
<path d="M2895 4490 c3 -5 8 -10 11 -10 2 0 4 5 4 10 0 6 -5 10 -11 10 -5 0
-7 -4 -4 -10z"/>
<path d="M720 4469 c0 -5 5 -7 10 -4 6 3 10 8 10 11 0 2 -4 4 -10 4 -5 0 -10
-5 -10 -11z"/>
<path d="M930 4469 c0 -5 5 -7 10 -4 6 3 10 8 10 11 0 2 -4 4 -10 4 -5 0 -10
-5 -10 -11z"/>
<path d="M2720 4465 c-8 -9 -8 -15 -2 -15 12 0 26 19 19 26 -2 2 -10 -2 -17
-11z"/>
<path d="M1073 4439 c-14 -35 -10 -37 11 -5 9 14 12 27 8 30 -5 3 -13 -8 -19
-25z"/>
<path d="M2410 4460 c-8 -5 -11 -12 -8 -16 4 -3 14 1 23 10 18 17 9 21 -15 6z"/>
<path d="M2840 4462 c0 -4 9 -8 20 -9 11 -1 18 2 15 8 -7 11 -35 12 -35 1z"/>
<path d="M751 4444 c0 -11 3 -14 6 -6 3 7 2 16 -1 19 -3 4 -6 -2 -5 -13z"/>
<path d="M785 4450 c3 -5 8 -10 11 -10 2 0 4 5 4 10 0 6 -5 10 -11 10 -5 0 -7
-4 -4 -10z"/>
<path d="M2098 4417 c-3 -19 -2 -25 4 -19 6 6 8 18 6 28 -3 14 -5 12 -10 -9z"/>
<path d="M2961 4414 c0 -11 3 -14 6 -6 3 7 2 16 -1 19 -3 4 -6 -2 -5 -13z"/>
<path d="M110 4380 c0 -5 5 -10 11 -10 5 0 7 5 4 10 -3 6 -8 10 -11 10 -2 0
-4 -4 -4 -10z"/>
<path d="M1853 4370 c1 -14 8 -30 15 -36 8 -5 14 -28 15 -51 1 -23 6 -39 10
-36 5 3 15 -3 22 -13 12 -17 13 -14 3 19 -6 20 -15 37 -20 37 -4 0 -8 8 -8 18
-1 9 -10 33 -20 52 -17 31 -19 32 -17 10z"/>
<path d="M2380 4370 c0 -5 5 -10 11 -10 5 0 7 5 4 10 -3 6 -8 10 -11 10 -2 0
-4 -4 -4 -10z"/>
<path d="M2560 4365 c-7 -8 -8 -15 -2 -15 5 0 15 7 22 15 7 8 8 15 2 15 -5 0
-15 -7 -22 -15z"/>
<path d="M2675 4370 c3 -5 11 -10 16 -10 6 0 7 5 4 10 -3 6 -11 10 -16 10 -6
0 -7 -4 -4 -10z"/>
<path d="M2760 4372 c0 -5 7 -9 15 -9 8 0 12 4 9 9 -3 4 -9 8 -15 8 -5 0 -9
-4 -9 -8z"/>
<path d="M2910 4370 c0 -5 5 -10 10 -10 6 0 10 5 10 10 0 6 -4 10 -10 10 -5 0
-10 -4 -10 -10z"/>
<path d="M270 4351 c0 -11 -3 -27 -7 -37 -4 -11 -3 -15 4 -11 13 8 23 67 11
67 -4 0 -8 -9 -8 -19z"/>
<path d="M2497 4355 c6 -17 25 -15 31 3 2 7 -5 12 -17 12 -14 0 -19 -5 -14
-15z"/>
<path d="M2590 4341 c-31 -27 -31 -50 0 -30 8 5 11 9 5 9 -5 0 3 11 19 25 16
14 25 25 19 25 -6 0 -25 -13 -43 -29z"/>
<path d="M2957 4364 c-8 -8 3 -34 15 -34 7 0 6 5 -1 13 -6 8 -8 17 -4 20 3 4
4 7 1 7 -2 0 -7 -3 -11 -6z"/>
<path d="M2841 4344 c0 -11 3 -14 6 -6 3 7 2 16 -1 19 -3 4 -6 -2 -5 -13z"/>
<path d="M2430 4340 c0 -5 7 -10 15 -10 8 0 15 5 15 10 0 6 -7 10 -15 10 -8 0
-15 -4 -15 -10z"/>
<path d="M68 4323 c7 -3 16 -2 19 1 4 3 -2 6 -13 5 -11 0 -14 -3 -6 -6z"/>
<path d="M695 4320 c-3 -5 -1 -10 4 -10 6 0 11 5 11 10 0 6 -2 10 -4 10 -3 0
-8 -4 -11 -10z"/>
<path d="M1801 4280 c0 -22 27 -78 28 -59 1 9 -6 30 -14 45 -8 16 -15 22 -14
14z"/>
<path d="M2615 4280 c-18 -8 -17 -9 8 -9 15 -1 27 4 27 9 0 12 -8 12 -35 0z"/>
<path d="M2918 4283 c7 -3 16 -2 19 1 4 3 -2 6 -13 5 -11 0 -14 -3 -6 -6z"/>
<path d="M2492 4268 c2 -6 10 -14 16 -16 7 -2 10 2 6 12 -7 18 -28 22 -22 4z"/>
<path d="M2544 4252 c-6 -4 -8 -16 -4 -26 6 -18 7 -18 13 4 7 28 6 32 -9 22z"/>
<path d="M2576 4244 c-4 -9 -4 -19 -1 -22 3 -3 5 0 5 7 0 7 4 9 10 6 6 -3 7 1
4 9 -8 20 -10 20 -18 0z"/>
<path d="M1002 4230 c0 -14 2 -19 5 -12 2 6 2 18 0 25 -3 6 -5 1 -5 -13z"/>
<path d="M2800 4245 c0 -2 6 -8 13 -14 10 -8 14 -7 14 2 0 8 -6 14 -14 14 -7
0 -13 -1 -13 -2z"/>
<path d="M1930 4204 c0 -21 30 -118 38 -123 4 -3 19 -44 32 -90 13 -47 25 -80
27 -74 5 13 -28 126 -62 218 -26 69 -35 87 -35 69z"/>
<path d="M1837 4165 c8 -51 31 -125 32 -103 1 27 -20 122 -30 132 -4 5 -6 -8
-2 -29z"/>
<path d="M170 4170 c0 -6 7 -10 15 -10 8 0 15 2 15 4 0 2 -7 6 -15 10 -8 3
-15 1 -15 -4z"/>
<path d="M2950 4165 c-7 -8 -9 -15 -6 -15 4 0 14 7 22 15 9 8 11 15 6 15 -5 0
-15 -7 -22 -15z"/>
<path d="M40 4140 c0 -5 5 -10 10 -10 6 0 10 5 10 10 0 6 -4 10 -10 10 -5 0
-10 -4 -10 -10z"/>
<path d="M2566 4137 c3 -10 9 -15 12 -12 3 3 0 11 -7 18 -10 9 -11 8 -5 -6z"/>
<path d="M111 4124 c0 -11 3 -14 6 -6 3 7 2 16 -1 19 -3 4 -6 -2 -5 -13z"/>
<path d="M2610 4116 c0 -9 51 -56 61 -56 4 0 11 5 14 10 3 6 -2 10 -11 10 -10
0 -28 10 -41 22 -13 12 -23 18 -23 14z"/>
<path d="M11 4094 c0 -11 3 -14 6 -6 3 7 2 16 -1 19 -3 4 -6 -2 -5 -13z"/>
<path d="M989 4050 c-2 -42 -8 -84 -14 -110 -4 -14 -4 -22 -1 -19 16 15 36
121 26 137 -8 14 -10 13 -11 -8z"/>
<path d="M2337 4049 c7 -7 15 -10 18 -7 3 3 -2 9 -12 12 -14 6 -15 5 -6 -5z"/>
<path d="M2846 4034 c-11 -8 -16 -14 -10 -14 13 0 39 18 34 24 -3 2 -14 -2
-24 -10z"/>
<path d="M2946 4043 c6 -4 14 -15 17 -23 5 -11 6 -9 4 4 -1 11 -9 21 -17 23
-10 3 -11 2 -4 -4z"/>
<path d="M1865 4025 c4 -11 9 -37 12 -57 3 -21 9 -35 13 -33 10 6 -8 87 -22
100 -8 7 -9 4 -3 -10z"/>
<path d="M291 4004 c0 -11 3 -14 6 -6 3 7 2 16 -1 19 -3 4 -6 -2 -5 -13z"/>
<path d="M2767 4008 c2 -5 10 -8 18 -8 8 0 16 3 18 8 3 4 -5 7 -18 7 -13 0
-21 -3 -18 -7z"/>
<path d="M2721 3984 c0 -11 3 -14 6 -6 3 7 2 16 -1 19 -3 4 -6 -2 -5 -13z"/>
<path d="M2816 3992 c-2 -4 18 -9 45 -10 27 -1 49 2 49 6 0 10 -88 14 -94 4z"/>
<path d="M2725 3944 c-23 -13 -33 -24 -23 -24 9 0 20 4 23 10 3 5 27 16 53 24
39 12 42 15 17 14 -16 0 -48 -11 -70 -24z"/>
<path d="M731 3923 c-6 -21 -10 -51 -10 -68 1 -22 3 -18 9 17 5 25 11 56 15
67 3 12 4 21 1 21 -3 0 -10 -17 -15 -37z"/>
<path d="M2975 3949 c-4 -5 -18 -14 -32 -20 -26 -10 -23 -29 5 -28 14 0 13 2
-3 9 -16 7 -16 9 -4 9 20 1 70 40 52 41 -6 0 -15 -5 -18 -11z"/>
<path d="M2790 3930 c0 -5 5 -10 11 -10 5 0 7 5 4 10 -3 6 -8 10 -11 10 -2 0
-4 -4 -4 -10z"/>
<path d="M787 3913 c-9 -9 -9 -91 1 -96 4 -3 7 19 8 49 0 30 -1 54 -1 54 -1 0
-5 -3 -8 -7z"/>
<path d="M2510 3910 c0 -5 5 -10 11 -10 5 0 7 5 4 10 -3 6 -8 10 -11 10 -2 0
-4 -4 -4 -10z"/>
<path d="M2599 3903 c-13 -17 -13 -17 6 -3 11 8 22 16 24 17 2 2 0 3 -6 3 -6
0 -17 -8 -24 -17z"/>
<path d="M2865 3890 c-4 -6 6 -10 22 -10 22 0 25 2 13 10 -19 12 -27 12 -35 0z"/>
<path d="M2490 3880 c-8 -5 -11 -12 -7 -16 4 -4 13 -2 19 4 15 15 7 24 -12 12z"/>
<path d="M2734 3875 c22 -17 40 -20 32 -6 -3 5 -16 11 -28 14 -22 6 -22 5 -4
-8z"/>
<path d="M2558 3873 c7 -3 16 -2 19 1 4 3 -2 6 -13 5 -11 0 -14 -3 -6 -6z"/>
<path d="M2667 3856 c-4 -10 0 -12 14 -9 10 3 16 9 13 14 -8 13 -21 11 -27 -5z"/>
<path d="M2970 3850 c-12 -8 -11 -10 8 -10 12 0 22 5 22 10 0 13 -11 13 -30 0z"/>
<path d="M2540 3839 c0 -5 5 -7 10 -4 6 3 10 8 10 11 0 2 -4 4 -10 4 -5 0 -10
-5 -10 -11z"/>
<path d="M2610 3840 c-12 -8 -11 -10 7 -10 12 0 25 5 28 10 8 13 -15 13 -35 0z"/>
<path d="M2035 3830 c-3 -6 -6 -43 -5 -83 1 -39 -1 -80 -5 -90 -8 -19 0 -35
13 -23 6 7 12 206 6 206 -2 0 -6 -5 -9 -10z"/>
<path d="M920 3815 c-7 -9 -10 -18 -7 -21 3 -3 10 4 17 15 13 25 8 27 -10 6z"/>
<path d="M2780 3810 c-12 -7 -10 -9 8 -7 12 0 22 5 22 9 0 11 -12 10 -30 -2z"/>
<path d="M2840 3810 c0 -5 9 -10 21 -10 11 0 17 5 14 10 -3 6 -13 10 -21 10
-8 0 -14 -4 -14 -10z"/>
<path d="M2415 3800 c-3 -6 1 -7 9 -4 18 7 21 14 7 14 -6 0 -13 -4 -16 -10z"/>
<path d="M2902 3784 c-7 -8 -8 -14 -3 -14 10 0 25 19 20 25 -2 1 -10 -3 -17
-11z"/>
<path d="M2985 3790 c-3 -5 -1 -10 4 -10 6 0 11 5 11 10 0 6 -2 10 -4 10 -3 0
-8 -4 -11 -10z"/>
<path d="M706 3773 c-14 -47 -28 -224 -21 -259 5 -21 7 -43 6 -49 -2 -5 1 -7
5 -3 4 5 12 -2 18 -14 6 -12 24 -26 41 -31 16 -6 36 -16 43 -24 19 -19 24 -16
10 6 -7 11 -29 27 -49 36 -55 25 -66 74 -51 228 12 113 11 152 -2 110z"/>
<path d="M2387 3779 c7 -7 15 -10 18 -7 3 3 -2 9 -12 12 -14 6 -15 5 -6 -5z"/>
<path d="M2510 3780 c-9 -6 -10 -10 -3 -10 6 0 15 5 18 10 8 12 4 12 -15 0z"/>
<path d="M878 3764 c-33 -17 -35 -24 -8 -24 10 0 24 9 30 20 13 24 13 23 -22
4z"/>
<path d="M140 3731 c0 -6 4 -11 9 -11 5 0 12 -10 14 -22 4 -22 4 -22 6 -2 0
12 -6 27 -14 34 -10 9 -15 9 -15 1z"/>
<path d="M801 3717 c-1 -27 26 -137 34 -137 2 0 3 31 3 70 -1 38 -5 67 -9 64
-5 -3 -10 -15 -10 -27 -1 -12 -5 -4 -9 18 -6 33 -7 35 -9 12z"/>
<path d="M742 3710 c0 -14 2 -19 5 -12 2 6 2 18 0 25 -3 6 -5 1 -5 -13z"/>
<path d="M2408 3723 c7 -3 16 -2 19 1 4 3 -2 6 -13 5 -11 0 -14 -3 -6 -6z"/>
<path d="M743 3601 c3 -46 10 -88 15 -93 6 -6 8 -18 5 -27 -4 -13 -3 -14 5 -2
7 10 7 21 0 35 -6 12 -12 51 -13 88 -1 37 -5 71 -10 75 -4 5 -5 -30 -2 -76z"/>
<path d="M2016 3595 c-4 -15 -11 -23 -17 -19 -7 4 -9 0 -5 -13 4 -12 -1 -29
-14 -46 -11 -14 -20 -30 -20 -36 0 -19 -57 -101 -65 -93 -4 4 -4 -3 -1 -15 5
-14 2 -24 -8 -30 -9 -5 -12 -13 -7 -22 9 -14 24 8 82 119 19 36 37 67 40 70
10 9 22 45 26 78 4 38 -2 42 -11 7z"/>
<path d="M1031 3544 c0 -11 3 -14 6 -6 3 7 2 16 -1 19 -3 4 -6 -2 -5 -13z"/>
<path d="M770 3456 c0 -2 7 -7 16 -10 8 -3 12 -2 9 4 -6 10 -25 14 -25 6z"/>
<path d="M2191 3384 c0 -11 3 -14 6 -6 3 7 2 16 -1 19 -3 4 -6 -2 -5 -13z"/>
<path d="M1033 3379 c-15 -6 -13 -9 14 -25 18 -11 33 -22 33 -26 0 -5 5 -8 12
-8 6 0 2 10 -10 23 -22 24 -20 37 5 37 8 0 11 -5 8 -10 -4 -6 -3 -9 2 -8 4 1
24 -12 43 -30 32 -30 69 -45 55 -22 -3 6 -11 10 -17 10 -5 0 -26 16 -45 35
-34 34 -57 40 -100 24z"/>
<path d="M835 3360 c3 -5 8 -10 11 -10 2 0 4 5 4 10 0 6 -5 10 -11 10 -5 0 -7
-4 -4 -10z"/>
<path d="M553 3323 c9 -2 23 -2 30 0 6 3 -1 5 -18 5 -16 0 -22 -2 -12 -5z"/>
<path d="M668 3323 c18 -2 45 -2 60 0 15 2 0 4 -33 4 -33 0 -45 -2 -27 -4z"/>
<path d="M940 3304 c0 -2 33 -19 73 -39 39 -19 86 -43 102 -55 34 -22 45 -25
45 -10 0 6 -10 15 -22 20 -26 11 -61 32 -68 41 -6 8 -130 49 -130 43z"/>
<path d="M1100 3306 c0 -8 31 -36 41 -36 5 0 1 9 -8 20 -16 18 -33 26 -33 16z"/>
<path d="M800 3291 c0 -8 41 -23 47 -17 2 1 -8 8 -22 14 -14 6 -25 8 -25 3z"/>
<path d="M470 3280 c-12 -8 -12 -10 3 -15 9 -4 33 -22 54 -41 20 -19 42 -34
47 -34 6 1 2 8 -9 18 -12 9 -24 25 -28 35 -3 9 -13 17 -22 17 -8 0 -15 7 -15
15 0 17 -9 19 -30 5z"/>
<path d="M705 3245 c87 -22 175 -55 263 -101 23 -12 42 -19 42 -15 0 10 -168
91 -189 91 -6 0 -11 4 -11 9 0 7 -49 19 -97 23 -7 1 -13 5 -13 10 0 4 -19 8
-42 7 -38 -1 -33 -4 47 -24z"/>
<path d="M415 3206 c3 -27 7 -52 10 -54 9 -9 4 62 -5 83 -7 14 -8 5 -5 -29z"/>
<path d="M975 3240 c3 -5 8 -10 11 -10 2 0 4 5 4 10 0 6 -5 10 -11 10 -5 0 -7
-4 -4 -10z"/>
<path d="M590 3226 c0 -2 11 -15 24 -29 14 -15 30 -42 37 -62 14 -37 29 -47
29 -18 0 18 -58 99 -77 107 -7 3 -13 4 -13 2z"/>
<path d="M1000 3223 c1 -9 50 -47 54 -41 2 1 -10 13 -25 26 -16 13 -29 20 -29
15z"/>
<path d="M970 3199 c0 -5 5 -7 10 -4 6 3 10 8 10 11 0 2 -4 4 -10 4 -5 0 -10
-5 -10 -11z"/>
<path d="M1340 3180 c0 -5 5 -10 10 -10 6 0 10 5 10 10 0 6 -4 10 -10 10 -5 0
-10 -4 -10 -10z"/>
<path d="M520 3170 c0 -5 5 -10 10 -10 6 0 10 5 10 10 0 6 -4 10 -10 10 -5 0
-10 -4 -10 -10z"/>
<path d="M1045 3160 c9 -14 115 -63 122 -56 6 5 -74 51 -106 61 -17 5 -21 4
-16 -5z"/>
<path d="M438 3095 c2 -19 7 -33 11 -30 9 5 1 65 -8 65 -4 0 -5 -16 -3 -35z"/>
<path d="M1025 3120 c-3 -5 -1 -10 4 -10 6 0 11 5 11 10 0 6 -2 10 -4 10 -3 0
-8 -4 -11 -10z"/>
<path d="M746 3105 c4 -8 11 -15 16 -15 6 0 5 6 -2 15 -7 8 -14 15 -16 15 -2
0 -1 -7 2 -15z"/>
<path d="M1052 3108 c5 -15 28 -23 28 -10 0 5 -7 13 -16 16 -10 4 -14 1 -12
-6z"/>
<path d="M685 3100 c-4 -7 -3 -15 2 -19 5 -3 13 -15 17 -26 5 -11 10 -15 12
-9 7 17 -23 68 -31 54z"/>
<path d="M610 3090 c0 -5 5 -10 10 -10 13 0 70 -57 70 -70 0 -6 9 -10 20 -10
11 0 19 -3 19 -7 -3 -19 2 -33 12 -33 7 0 9 10 4 28 -6 25 -16 36 -30 32 -4
-1 -19 12 -35 29 -34 35 -70 57 -70 41z"/>
<path d="M770 3080 c-9 -6 -10 -10 -3 -10 6 0 15 5 18 10 8 12 4 12 -15 0z"/>
<path d="M1106 3083 c-6 -7 31 -28 102 -58 17 -8 32 -12 32 -9 0 3 -16 12 -35
20 -19 8 -35 19 -35 24 0 6 -12 10 -27 10 -22 0 -25 2 -13 10 13 8 13 10 -1
10 -9 0 -19 -3 -23 -7z"/>
<path d="M1890 3069 c0 -5 5 -7 10 -4 6 3 10 8 10 11 0 2 -4 4 -10 4 -5 0 -10
-5 -10 -11z"/>
<path d="M1957 3014 c3 -16 5 -45 5 -64 -1 -25 2 -30 8 -20 8 12 10 11 10 -7
0 -13 8 -24 19 -28 11 -3 23 -14 26 -25 3 -10 24 -35 45 -57 22 -21 40 -43 40
-50 0 -14 19 -28 27 -19 6 5 -81 119 -115 149 -12 11 -28 44 -38 75 -19 63
-35 90 -27 46z"/>
<path d="M1255 3009 c-4 -6 2 -13 14 -16 12 -3 21 -9 21 -12 0 -4 7 -8 16 -8
14 0 14 2 -2 14 -10 7 -24 13 -32 13 -7 0 -10 5 -7 10 3 6 4 10 1 10 -3 0 -8
-5 -11 -11z"/>
<path d="M470 2993 c-1 -7 -3 -19 -4 -25 -1 -8 -20 -14 -51 -16 -27 -2 -53 -7
-58 -11 -4 -4 18 -6 49 -5 64 3 78 12 71 45 -2 13 -5 18 -7 12z"/>
<path d="M1330 2969 c0 -5 5 -7 10 -4 6 3 10 8 10 11 0 2 -4 4 -10 4 -5 0 -10
-5 -10 -11z"/>
<path d="M656 2935 c7 -44 11 -51 20 -42 4 3 -1 23 -10 44 l-16 38 6 -40z"/>
<path d="M850 2959 c0 -5 5 -7 10 -4 6 3 10 8 10 11 0 2 -4 4 -10 4 -5 0 -10
-5 -10 -11z"/>
<path d="M2204 2932 c-6 -4 -14 -27 -18 -52 -11 -72 -30 -150 -37 -150 -3 0
-4 -11 -2 -24 3 -13 0 -33 -6 -45 -10 -17 -9 -22 3 -27 17 -7 15 -50 -2 -47
-5 1 -13 -14 -17 -33 -7 -42 0 -57 9 -19 7 29 26 25 26 -6 0 -10 4 -19 9 -19
6 0 8 43 6 104 -2 65 2 125 11 162 7 33 14 77 14 100 0 22 5 45 12 52 13 13 9
16 -8 4z"/>
<path d="M1375 2912 c6 -4 10 -16 10 -27 0 -11 8 -21 17 -23 14 -3 16 1 11 15
-9 26 -24 43 -37 43 -7 0 -7 -3 -1 -8z m22 -34 c-3 -8 -6 -5 -6 6 -1 11 2 17
5 13 3 -3 4 -12 1 -19z"/>
<path d="M782 2890 c0 -14 2 -19 5 -12 2 6 2 18 0 25 -3 6 -5 1 -5 -13z"/>
<path d="M2473 2826 c-5 -39 -21 -95 -35 -124 -14 -28 -21 -52 -16 -52 14 0
56 103 64 158 3 28 12 56 19 62 23 19 96 -21 88 -47 -2 -6 1 -14 6 -18 6 -3
11 2 11 13 0 27 -39 59 -86 70 l-40 9 -11 -71z"/>
<path d="M390 2860 c0 -5 5 -10 11 -10 5 0 7 5 4 10 -3 6 -8 10 -11 10 -2 0
-4 -4 -4 -10z"/>
<path d="M675 2860 c-3 -5 -2 -10 2 -10 5 0 14 -9 21 -21 11 -18 11 -23 -5
-35 -17 -13 -17 -13 5 -14 29 0 39 26 18 49 -9 10 -16 23 -16 29 0 15 -17 16
-25 2z"/>
<path d="M980 2862 c0 -12 19 -26 26 -19 2 2 -2 10 -11 17 -9 8 -15 8 -15 2z"/>
<path d="M860 2827 c0 -20 4 -37 10 -37 5 0 7 14 3 33 -8 45 -13 47 -13 4z"/>
<path d="M470 2822 c0 -5 19 -18 43 -29 81 -40 124 -43 47 -3 -58 30 -90 41
-90 32z"/>
<path d="M1406 2808 c3 -5 10 -6 15 -3 13 9 11 12 -6 12 -8 0 -12 -4 -9 -9z"/>
<path d="M1050 2806 c0 -2 7 -6 15 -10 8 -3 15 -1 15 4 0 6 -7 10 -15 10 -8 0
-15 -2 -15 -4z"/>
<path d="M1420 2770 c6 -11 13 -20 16 -20 2 0 0 9 -6 20 -6 11 -13 20 -16 20
-2 0 0 -9 6 -20z"/>
<path d="M2011 2774 c0 -11 3 -14 6 -6 3 7 2 16 -1 19 -3 4 -6 -2 -5 -13z"/>
<path d="M2610 2781 c0 -6 7 -11 16 -11 9 0 12 -5 8 -12 -4 -7 -3 -8 4 -4 8 5
12 0 12 -13 0 -12 4 -21 9 -21 9 0 26 -48 23 -62 -1 -5 3 -8 9 -8 6 0 9 -7 6
-14 -4 -10 -1 -13 7 -10 8 3 20 -12 31 -37 18 -39 18 -42 2 -54 -9 -7 -17 -19
-17 -28 0 -11 9 -7 29 14 33 32 33 31 -20 114 -14 22 -40 65 -56 95 -28 50
-63 78 -63 51z"/>
<path d="M647 2768 c6 -7 9 -23 8 -36 -1 -15 3 -21 14 -20 11 2 15 -4 14 -19
-2 -20 1 -22 27 -17 34 7 83 -3 76 -15 -3 -5 1 -8 10 -7 9 0 21 -8 28 -19 6
-11 19 -27 29 -37 11 -10 16 -22 11 -29 -4 -7 -3 -9 3 -6 6 4 21 -8 34 -25 29
-40 76 -93 106 -120 12 -12 20 -26 16 -31 -3 -6 -1 -7 5 -3 6 4 17 -5 26 -22
18 -35 127 -78 157 -62 22 12 32 13 25 1 -8 -12 63 -20 94 -10 24 8 24 8 -5 7
-16 -1 -39 0 -50 1 -17 1 -18 3 -5 11 11 7 2 10 -32 10 -88 0 -146 18 -170 53
-12 18 -45 55 -73 83 -28 28 -59 64 -69 80 -46 73 -218 227 -242 217 -8 -3
-14 -1 -14 5 0 5 -7 13 -16 16 -13 5 -14 3 -7 -6z m84 -49 l24 -20 -24 7 c-17
4 -22 3 -16 -6 5 -9 4 -11 -4 -6 -6 4 -9 12 -6 17 4 5 -1 9 -9 9 -9 0 -16 5
-16 10 0 17 26 11 51 -11z"/>
<path d="M2406 2740 c-5 -19 -12 -41 -16 -50 -21 -40 -41 -92 -37 -96 2 -2 12
14 22 36 10 22 22 40 26 40 10 0 22 62 17 87 -3 12 -7 7 -12 -17z"/>
<path d="M880 2756 c0 -2 8 -10 18 -17 15 -13 16 -12 3 4 -13 16 -21 21 -21
13z"/>
<path d="M1471 2744 c0 -11 3 -14 6 -6 3 7 2 16 -1 19 -3 4 -6 -2 -5 -13z"/>
<path d="M441 2714 c0 -11 3 -14 6 -6 3 7 2 16 -1 19 -3 4 -6 -2 -5 -13z"/>
<path d="M1161 2714 c13 -16 29 -19 29 -5 0 5 -9 11 -21 14 -16 4 -18 3 -8 -9z"/>
<path d="M1373 2710 c-1 -11 3 -20 8 -20 6 0 7 5 4 10 -3 6 -1 10 4 10 6 0 11
5 11 10 0 19 -26 10 -27 -10z"/>
<path d="M2527 2711 c-4 -17 -3 -21 5 -13 5 5 8 16 6 23 -3 8 -7 3 -11 -10z"/>
<path d="M990 2679 c-13 -9 -12 -10 2 -5 11 3 15 1 12 -8 -3 -7 4 -24 15 -37
11 -13 20 -19 21 -12 0 6 -4 15 -10 18 -15 10 -12 23 8 28 16 4 16 5 0 6 -10
0 -18 6 -18 11 0 13 -11 12 -30 -1z"/>
<path d="M1210 2687 c0 -7 35 -43 68 -71 31 -27 28 -14 -5 20 -34 35 -63 59
-63 51z"/>
<path d="M417 2655 c-4 -8 -2 -17 3 -20 6 -4 10 3 10 14 0 25 -6 27 -13 6z"/>
<path d="M1500 2665 c0 -5 5 -17 10 -25 5 -8 10 -10 10 -5 0 6 -5 17 -10 25
-5 8 -10 11 -10 5z"/>
<path d="M2486 2634 c-9 -22 3 -32 14 -14 12 19 12 30 1 30 -5 0 -12 -7 -15
-16z"/>
<path d="M2527 2630 c3 -11 7 -20 9 -20 2 0 4 9 4 20 0 11 -4 20 -9 20 -5 0
-7 -9 -4 -20z"/>
<path d="M1456 2571 c4 -82 14 -110 14 -40 0 25 4 49 9 55 6 5 3 18 -9 34 -18
24 -18 24 -14 -49z"/>
<path d="M1095 2620 c-4 -6 3 -10 14 -10 25 0 27 6 6 13 -8 4 -17 2 -20 -3z"/>
<path d="M1391 2614 c0 -11 3 -14 6 -6 3 7 2 16 -1 19 -3 4 -6 -2 -5 -13z"/>
<path d="M2232 2582 c-26 -47 -54 -130 -49 -145 2 -6 20 31 40 83 20 52 35 95
33 97 -1 1 -12 -14 -24 -35z"/>
<path d="M1055 2570 c9 -16 20 -30 26 -30 5 0 2 14 -8 30 -9 17 -21 30 -25 30
-5 0 -2 -13 7 -30z"/>
<path d="M2056 2585 c4 -8 8 -15 10 -15 2 0 4 7 4 15 0 8 -4 15 -10 15 -5 0
-7 -7 -4 -15z"/>
<path d="M2465 2590 c-3 -5 1 -10 10 -10 9 0 13 5 10 10 -3 6 -8 10 -10 10 -2
0 -7 -4 -10 -10z"/>
<path d="M1172 2569 c2 -7 12 -13 21 -15 23 -3 21 3 -4 17 -17 8 -20 8 -17 -2z"/>
<path d="M1480 2576 c0 -2 7 -9 15 -16 13 -11 14 -10 9 4 -5 14 -24 23 -24 12z"/>
<path d="M520 2560 c36 -11 50 -11 50 0 0 6 -17 10 -37 9 -34 -1 -35 -2 -13
-9z"/>
<path d="M580 2554 c0 -8 5 -12 10 -9 6 4 8 11 5 16 -9 14 -15 11 -15 -7z"/>
<path d="M750 2560 c0 -5 5 -10 11 -10 5 0 7 5 4 10 -3 6 -8 10 -11 10 -2 0
-4 -4 -4 -10z"/>
<path d="M2521 2554 c0 -11 3 -14 6 -6 3 7 2 16 -1 19 -3 4 -6 -2 -5 -13z"/>
<path d="M2345 2550 c3 -5 8 -10 11 -10 2 0 4 5 4 10 0 6 -5 10 -11 10 -5 0
-7 -4 -4 -10z"/>
<path d="M2445 2550 c-3 -5 -1 -10 4 -10 6 0 11 5 11 10 0 6 -2 10 -4 10 -3 0
-8 -4 -11 -10z"/>
<path d="M2442 2478 c-68 -113 -89 -156 -127 -262 -21 -58 -39 -92 -51 -97
-15 -6 -15 -8 -3 -8 24 -1 43 27 69 104 13 39 34 90 47 115 12 25 23 49 23 53
0 5 11 23 25 41 14 18 25 38 25 43 0 6 7 16 15 23 12 10 14 -2 11 -97 -3 -86
-2 -96 4 -48 12 84 21 215 16 215 -3 0 -27 -37 -54 -82z"/>
<path d="M641 2536 c2 -2 22 -6 44 -9 27 -4 35 -3 25 3 -14 9 -79 15 -69 6z"/>
<path d="M785 2530 c4 -6 11 -8 16 -5 14 9 11 15 -7 15 -8 0 -12 -5 -9 -10z"/>
<path d="M1221 2537 c2 -1 13 -9 24 -17 19 -14 19 -14 6 3 -7 9 -18 17 -24 17
-6 0 -8 -1 -6 -3z"/>
<path d="M825 2510 c3 -5 8 -10 11 -10 2 0 4 5 4 10 0 6 -5 10 -11 10 -5 0 -7
-4 -4 -10z"/>
<path d="M1550 2476 c43 -63 56 -67 18 -7 -17 28 -35 51 -40 51 -5 0 5 -20 22
-44z"/>
<path d="M2772 2492 c-37 -32 -40 -42 -12 -35 11 3 20 12 20 20 0 19 21 12 34
-12 6 -11 21 -28 34 -38 13 -11 21 -25 18 -33 -3 -9 0 -11 11 -7 10 4 14 2 10
-4 -4 -6 3 -13 14 -16 17 -4 19 -10 13 -29 -6 -20 -5 -21 10 -9 19 16 22 9
-57 100 -26 29 -47 59 -47 66 0 25 -16 24 -48 -3z"/>
<path d="M2524 2416 c2 -53 7 -100 10 -103 4 -4 4 37 1 92 -2 54 -7 100 -10
103 -2 3 -3 -39 -1 -92z"/>
<path d="M2701 2464 c0 -11 3 -14 6 -6 3 7 2 16 -1 19 -3 4 -6 -2 -5 -13z"/>
<path d="M728 2453 c6 -2 18 -2 25 0 6 3 1 5 -13 5 -14 0 -19 -2 -12 -5z"/>
<path d="M1478 2420 c2 -22 6 -40 8 -40 2 0 4 18 4 40 0 22 -3 40 -8 40 -4 0
-6 -18 -4 -40z"/>
<path d="M1670 2399 c7 -11 14 -19 16 -16 7 7 -7 37 -17 37 -6 0 -5 -9 1 -21z"/>
<path d="M2185 2318 c3 -118 13 -188 26 -188 5 0 4 12 -2 28 -6 15 -11 77 -13
139 -1 62 -4 115 -8 118 -3 4 -5 -40 -3 -97z"/>
<path d="M2261 2394 c0 -11 3 -14 6 -6 3 7 2 16 -1 19 -3 4 -6 -2 -5 -13z"/>
<path d="M2709 2390 c-9 -5 -29 -28 -45 -51 -16 -23 -42 -48 -59 -56 l-30 -14
30 6 c17 3 41 20 55 37 39 50 72 78 82 72 5 -3 6 -22 2 -42 -6 -33 4 -43 10
-10 2 7 6 21 10 30 15 33 -18 50 -55 28z"/>
<path d="M1613 2366 c7 -14 15 -26 20 -26 13 0 7 17 -13 35 -19 17 -19 17 -7
-9z"/>
<path d="M1687 2349 c4 -13 8 -18 11 -10 2 7 -1 18 -6 23 -8 8 -9 4 -5 -13z"/>
<path d="M2433 2351 c0 -11 5 -18 9 -15 4 3 5 11 1 19 -7 21 -12 19 -10 -4z"/>
<path d="M2950 2338 c0 -3 6 -21 14 -39 7 -19 14 -61 15 -93 1 -33 4 -62 8
-65 3 -4 3 34 1 82 -3 64 -9 92 -21 105 -9 9 -17 14 -17 10z"/>
<path d="M2161 2304 c0 -11 3 -14 6 -6 3 7 2 16 -1 19 -3 4 -6 -2 -5 -13z"/>
<path d="M2658 2277 c-21 -19 -35 -37 -31 -40 3 -4 0 -7 -7 -7 -7 0 -10 -3 -7
-7 4 -3 17 2 28 13 25 22 25 21 -15 -64 -17 -36 -33 -58 -37 -51 -4 8 -9 4
-14 -9 -3 -12 -1 -30 5 -39 9 -15 10 -14 5 10 -3 17 -1 26 6 25 12 -3 112 177
107 192 -2 6 -20 -5 -40 -23z"/>
<path d="M2721 2284 c0 -11 3 -14 6 -6 3 7 2 16 -1 19 -3 4 -6 -2 -5 -13z"/>
<path d="M2422 2270 c0 -14 2 -19 5 -12 2 6 2 18 0 25 -3 6 -5 1 -5 -13z"/>
<path d="M1370 2274 c0 -6 9 -23 20 -36 10 -14 16 -29 12 -32 -4 -4 0 -6 8 -4
8 2 14 -2 13 -8 -1 -7 5 -11 15 -10 9 0 16 -5 14 -12 -1 -8 3 -12 10 -9 7 2
21 -2 31 -11 15 -13 17 -13 17 0 0 8 -18 27 -41 42 -22 15 -53 42 -69 59 -16
18 -30 27 -30 21z"/>
<path d="M2696 2243 c-3 -10 -9 -25 -12 -33 -4 -8 3 -3 15 12 23 28 26 38 12
38 -5 0 -11 -8 -15 -17z"/>
<path d="M2570 2190 c0 -6 7 -18 15 -26 13 -14 15 -13 12 7 -4 24 -27 40 -27
19z"/>
<path d="M2916 2184 c-8 -22 -8 -26 3 -20 5 4 11 0 14 -6 7 -21 17 -4 10 20
-6 26 -18 29 -27 6z"/>
<path d="M1739 2123 c-86 -54 -149 -103 -134 -103 6 0 46 22 89 49 43 27 84
47 91 45 7 -3 19 1 27 9 11 11 30 14 69 11 49 -4 72 -11 119 -34 14 -7 42 -53
48 -80 2 -8 8 -16 13 -18 5 -2 9 -13 9 -25 0 -12 5 -29 10 -37 8 -11 9 -6 7
20 -3 38 -54 136 -84 162 -23 20 -74 36 -138 43 -47 5 -55 3 -126 -42z"/>
<path d="M1520 2153 c0 -8 29 -37 40 -40 30 -10 40 -18 40 -34 0 -10 -5 -19
-12 -19 -6 0 -9 -3 -5 -6 7 -7 66 36 66 49 1 4 -9 7 -21 7 -12 0 -41 11 -65
25 -23 14 -43 22 -43 18z"/>
<path d="M2026 2142 c12 -10 28 -31 37 -47 20 -38 22 -16 3 30 -11 26 -21 35
-38 35 l-23 -1 21 -17z"/>
<path d="M2872 2140 c-12 -10 -18 -21 -14 -24 10 -6 48 31 41 38 -2 2 -14 -4
-27 -14z"/>
<path d="M2951 2124 c0 -11 3 -14 6 -6 3 7 2 16 -1 19 -3 4 -6 -2 -5 -13z"/>
<path d="M2818 2087 c-59 -49 -66 -55 -79 -59 -8 -3 -9 -7 -3 -11 6 -3 22 4
36 16 14 12 38 32 54 44 15 13 26 25 23 27 -3 3 -17 -5 -31 -17z"/>
<path d="M2617 2073 c-4 -3 -7 -16 -6 -27 0 -19 1 -19 10 3 10 24 8 36 -4 24z"/>
<path d="M2143 1984 c0 -23 1 -24 9 -10 7 12 7 21 0 28 -6 6 -9 0 -9 -18z"/>
<path d="M2675 1990 c-3 -5 -1 -10 4 -10 6 0 11 5 11 10 0 6 -2 10 -4 10 -3 0
-8 -4 -11 -10z"/>
<path d="M2777 1989 c-9 -6 -15 -14 -12 -20 10 -16 32 -10 38 11 6 22 0 24
-26 9z"/>
<path d="M2525 1970 c3 -5 8 -10 11 -10 2 0 4 5 4 10 0 6 -5 10 -11 10 -5 0
-7 -4 -4 -10z"/>
<path d="M2744 1955 c22 -17 40 -20 32 -6 -3 5 -16 11 -28 14 -22 6 -22 5 -4
-8z"/>
<path d="M2680 1950 c-8 -5 -10 -10 -5 -10 6 0 17 5 25 10 8 5 11 10 5 10 -5
0 -17 -5 -25 -10z"/>
<path d="M2635 1930 c-3 -5 -2 -10 4 -10 5 0 13 5 16 10 3 6 2 10 -4 10 -5 0
-13 -4 -16 -10z"/>
<path d="M2670 1843 c-36 -36 -56 -61 -45 -55 24 13 120 111 114 116 -2 3 -33
-25 -69 -61z"/>
<path d="M2955 1889 c-22 -12 -74 -39 -115 -61 -78 -42 -73 -44 20 -9 30 11
74 25 98 31 35 9 42 15 42 35 0 14 -1 25 -3 25 -1 0 -21 -10 -42 -21z"/>
<path d="M2600 1860 c0 -5 5 -10 11 -10 5 0 7 5 4 10 -3 6 -8 10 -11 10 -2 0
-4 -4 -4 -10z"/>
<path d="M1468 1673 c6 -2 18 -2 25 0 6 3 1 5 -13 5 -14 0 -19 -2 -12 -5z"/>
<path d="M2965 1502 c-3 -11 -17 -36 -30 -56 -13 -20 -20 -38 -15 -41 6 -4 10
-2 10 4 0 5 6 16 13 23 15 14 39 79 33 85 -2 3 -7 -4 -11 -15z"/>
<path d="M2223 1443 c9 -2 25 -2 35 0 9 3 1 5 -18 5 -19 0 -27 -2 -17 -5z"/>
<path d="M2440 1440 c-9 -6 -10 -10 -3 -10 6 0 15 5 18 10 8 12 4 12 -15 0z"/>
<path d="M2987 1425 c-10 -35 -58 -114 -70 -115 -5 0 -41 -32 -80 -70 -40 -39
-88 -81 -108 -93 -89 -55 -135 -89 -147 -112 -16 -31 -52 -34 -52 -5 0 24 -11
25 -49 5 -45 -23 -114 -45 -142 -45 -20 0 -28 -6 -33 -23 -5 -23 -44 -45 -105
-62 -22 -7 -22 -8 -6 -24 13 -12 19 -13 22 -4 2 7 21 17 41 23 23 6 45 21 57
39 13 21 29 31 55 34 47 7 87 19 122 38 13 6 20 4 28 -11 9 -16 15 -18 38 -9
29 11 64 44 56 52 -3 2 8 9 23 15 15 5 41 22 57 37 16 15 37 28 46 30 10 2 29
15 43 29 14 14 31 26 37 26 5 0 10 4 10 10 0 11 100 110 112 110 4 0 8 7 8 15
0 8 4 15 10 15 15 0 42 66 38 97 l-3 28 -8 -30z"/>
<path d="M2910 1379 c0 -5 5 -7 10 -4 6 3 10 8 10 11 0 2 -4 4 -10 4 -5 0 -10
-5 -10 -11z"/>
<path d="M2870 1360 c0 -5 7 -7 15 -4 8 4 15 8 15 10 0 2 -7 4 -15 4 -8 0 -15
-4 -15 -10z"/>
<path d="M2788 1295 c-41 -40 -61 -53 -74 -48 -12 4 -15 3 -10 -5 4 -7 2 -12
-3 -12 -6 0 -11 -7 -11 -16 0 -8 -4 -13 -9 -10 -5 3 -12 -2 -15 -11 -6 -15 -8
-15 -16 -3 -8 13 -10 13 -10 -2 0 -9 -19 -30 -41 -47 -32 -23 -48 -29 -70 -24
-47 9 -93 -5 -131 -41 -20 -19 -56 -40 -80 -47 -48 -14 -150 -99 -119 -99 11
0 21 7 24 15 9 22 88 75 113 75 12 0 39 15 58 34 45 42 103 59 138 40 29 -15
25 -17 146 86 110 94 189 170 177 170 -5 0 -35 -25 -67 -55z"/>
<path d="M2870 1325 c-19 -23 -8 -25 14 -4 11 11 15 19 9 19 -6 0 -16 -7 -23
-15z"/>
<path d="M2822 1274 c-12 -13 -19 -24 -14 -24 11 0 47 39 41 44 -2 2 -14 -7
-27 -20z"/>
<path d="M2770 1230 c-8 -5 -12 -11 -10 -14 3 -2 14 2 24 10 22 15 10 19 -14
4z"/>
<path d="M2710 1175 c-11 -13 -10 -14 4 -9 9 3 16 10 16 15 0 13 -6 11 -20 -6z"/>
<path d="M2450 1065 c-11 -13 -10 -14 4 -9 9 3 16 10 16 15 0 13 -6 11 -20 -6z"/>
<path d="M2537 1059 c7 -7 15 -10 18 -7 3 3 -2 9 -12 12 -14 6 -15 5 -6 -5z"/>
<path d="M2415 1040 c-3 -5 -1 -10 4 -10 6 0 11 5 11 10 0 6 -2 10 -4 10 -3 0
-8 -4 -11 -10z"/>
<path d="M1363 963 c9 -2 23 -2 30 0 6 3 -1 5 -18 5 -16 0 -22 -2 -12 -5z"/>
<path d="M1455 956 c22 -8 43 -12 48 -7 4 4 2 8 -5 8 -7 1 -29 4 -48 7 l-35 7
40 -15z"/>
<path d="M1268 933 c7 -3 16 -2 19 1 4 3 -2 6 -13 5 -11 0 -14 -3 -6 -6z"/>
<path d="M1655 890 c3 -5 8 -10 11 -10 2 0 4 5 4 10 0 6 -5 10 -11 10 -5 0 -7
-4 -4 -10z"/>
<path d="M2148 822 c-16 -9 -28 -20 -28 -25 0 -7 37 15 69 40 15 11 -19 -1
-41 -15z"/>
<path d="M1208 703 c6 -2 18 -2 25 0 6 3 1 5 -13 5 -14 0 -19 -2 -12 -5z"/>
<path d="M1640 699 c0 -5 5 -7 10 -4 6 3 10 8 10 11 0 2 -4 4 -10 4 -5 0 -10
-5 -10 -11z"/>
<path d="M1941 706 c2 -2 22 -6 44 -9 28 -5 34 -4 20 3 -19 8 -73 14 -64 6z"/>
<path d="M1578 593 c12 -2 30 -2 40 0 9 3 -1 5 -23 4 -22 0 -30 -2 -17 -4z"/>
</g>
</svg>
