<?xml version="1.0" standalone="no"?>
<!DOCTYPE svg PUBLIC "-//W3C//DTD SVG 20010904//EN"
 "http://www.w3.org/TR/2001/REC-SVG-20010904/DTD/svg10.dtd">
<svg version="1.0" xmlns="http://www.w3.org/2000/svg"
 width="300.000000pt" height="375.000000pt" viewBox="0 0 300.000000 375.000000"
 preserveAspectRatio="xMidYMid meet">
<metadata>
Created by potrace 1.10, written by Peter Selinger 2001-2011
</metadata>
<g transform="translate(0.000000,375.000000) scale(0.100000,-0.100000)"
fill="#000000" stroke="none">
<path d="M4 3721 c0 -16 3 -28 5 -26 2 3 13 0 24 -6 12 -7 17 -7 13 -1 -3 5 1
12 9 16 8 3 17 1 20 -4 3 -6 17 2 31 17 30 33 25 39 -15 19 -38 -20 -60 -20
-67 -1 -10 25 -22 17 -20 -14z"/>
<path d="M437 3724 c-15 -13 -39 -27 -53 -30 -25 -6 -54 10 -54 30 0 6 -9 12
-20 12 -24 0 -26 -11 -4 -20 8 -3 12 -10 9 -16 -8 -12 43 -33 67 -27 9 3 23
-1 29 -9 10 -12 8 -18 -7 -29 -17 -14 -16 -14 10 -3 23 10 30 10 34 0 2 -6 9
-12 15 -12 6 0 -1 13 -16 28 -27 28 -36 49 -17 37 6 -3 10 -1 10 4 0 6 7 11
15 11 8 0 15 -4 15 -8 0 -4 9 -8 21 -9 27 -2 19 21 -9 25 -24 4 -29 18 -10 24
7 3 8 7 2 10 -5 4 -22 -5 -37 -18z"/>
<path d="M615 3694 c-19 -39 -32 -54 -48 -55 -28 -2 -27 -2 -60 6 -26 7 -28 6
-22 -18 12 -47 -50 -69 -82 -29 -7 9 -15 13 -18 10 -3 -3 3 -15 13 -28 16 -19
24 -22 55 -16 21 4 44 17 56 31 10 14 27 25 36 25 29 0 84 31 90 51 4 11 11
17 16 13 6 -3 10 0 8 7 -4 30 2 50 11 44 8 -5 8 -11 1 -19 -6 -7 -8 -16 -5
-19 4 -3 -5 -20 -20 -37 -14 -17 -26 -38 -26 -46 0 -9 -4 -13 -8 -10 -10 6 -9
-45 1 -61 4 -5 2 -24 -2 -41 -8 -26 -7 -30 7 -25 11 5 13 3 7 -7 -5 -8 -4 -11
2 -7 15 9 37 -19 29 -38 -3 -8 -1 -15 4 -15 6 0 10 6 10 14 0 22 33 29 47 11
13 -18 38 -11 27 7 -5 8 -1 9 12 4 18 -7 18 -6 1 11 -12 12 -33 18 -65 18 -44
0 -47 2 -47 27 0 14 -3 29 -6 32 -12 12 9 88 29 109 18 18 25 19 48 8 36 -16
43 -6 7 11 -28 13 -36 38 -21 70 6 13 2 16 -26 16 -32 0 -37 -4 -61 -54z"/>
<path d="M831 3734 c-11 -13 -10 -17 5 -28 19 -14 21 -66 5 -123 -6 -20 -6
-33 0 -33 5 0 9 -10 9 -22 0 -19 2 -20 10 -8 5 8 8 31 5 50 -3 26 -3 29 3 10
l8 -24 14 21 c9 11 24 22 34 24 11 2 21 9 23 16 5 14 -39 5 -49 -11 -13 -18
-24 9 -21 54 1 23 -3 40 -9 40 -6 0 -8 10 -4 25 7 29 -11 34 -33 9z"/>
<path d="M880 3742 c0 -10 76 -92 84 -92 4 0 5 8 1 19 -6 20 -8 19 78 6 32 -5
37 -9 32 -26 -4 -13 -2 -19 9 -19 8 0 18 -6 22 -12 4 -7 4 -10 -1 -6 -9 8 -35
-15 -35 -31 0 -6 -4 -11 -10 -11 -12 0 2 -39 14 -39 5 -1 10 12 11 29 2 40 9
45 61 45 24 0 44 4 44 8 0 5 4 6 9 2 5 -3 12 -1 15 4 4 5 2 12 -3 15 -5 3 -7
15 -4 26 3 12 0 20 -6 20 -7 0 -9 -5 -6 -11 9 -13 -24 -38 -51 -39 -19 0 -41
18 -58 47 -5 9 -2 11 10 6 11 -4 15 -3 10 5 -3 6 -1 14 5 18 8 4 9 3 5 -4 -5
-9 6 -12 38 -12 25 0 48 5 51 10 4 6 12 7 18 4 7 -4 9 -4 5 1 -4 4 0 15 9 24
15 15 15 16 -1 19 -10 2 -23 -4 -30 -14 -18 -24 -72 -23 -91 2 -14 18 -16 18
-26 1 -20 -34 -119 -55 -119 -26 0 5 -9 9 -19 9 -11 0 -22 4 -25 9 -7 11 -46
22 -46 13z"/>
<path d="M1025 3740 c-3 -5 -1 -10 4 -10 6 0 11 5 11 10 0 6 -2 10 -4 10 -3 0
-8 -4 -11 -10z"/>
<path d="M1350 3736 c0 -8 -10 -22 -22 -30 l-23 -16 26 -25 c21 -21 35 -26 84
-27 33 0 67 -6 75 -12 13 -9 13 -9 2 6 -9 11 -10 18 -2 23 5 3 10 2 10 -3 0
-11 55 -10 66 1 4 4 -7 7 -24 7 -17 0 -34 5 -37 10 -5 8 -11 8 -19 1 -22 -18
-133 -18 -151 0 -14 14 -14 17 4 33 16 14 23 15 41 6 11 -6 26 -9 33 -7 7 2 0
10 -15 17 -16 7 -28 17 -28 22 0 4 -4 8 -10 8 -5 0 -10 -6 -10 -14z"/>
<path d="M1492 3725 c-8 -17 -20 -25 -39 -26 l-28 -1 25 -7 c14 -4 27 -4 28 1
6 13 19 10 37 -8 9 -9 19 -14 22 -11 3 3 -2 14 -12 23 -16 17 -16 18 4 26 23
8 52 1 63 -16 5 -8 8 -7 8 1 0 18 -38 35 -60 28 -12 -4 -20 -2 -20 4 0 20 -17
11 -28 -14z"/>
<path d="M1698 3738 c-7 -20 37 -58 68 -57 l29 1 -25 11 c-47 22 -52 28 -39
43 9 11 7 14 -9 14 -11 0 -22 -5 -24 -12z"/>
<path d="M1780 3740 c0 -5 5 -10 10 -10 6 0 10 5 10 10 0 6 -4 10 -10 10 -5 0
-10 -4 -10 -10z"/>
<path d="M1902 3738 c-18 -18 -15 -24 18 -38 21 -9 30 -19 30 -35 0 -13 4 -25
10 -27 18 -6 -2 -48 -26 -54 -42 -11 -69 3 -79 38 -7 21 -17 34 -30 36 -18 2
-18 1 -4 -10 9 -7 16 -21 16 -30 0 -14 -3 -15 -14 -6 -17 13 -31 2 -16 -13 8
-8 5 -22 -10 -50 -24 -45 -75 -71 -116 -58 -14 5 -43 11 -63 14 -44 7 -62 40
-32 62 10 7 24 13 31 13 7 0 10 6 7 15 -8 20 24 31 47 17 10 -6 20 -8 23 -3 7
12 -4 21 -25 21 -20 0 -42 33 -31 45 4 5 1 5 -6 1 -7 -4 -11 -13 -9 -19 4 -13
-38 -57 -54 -57 -6 0 -8 -4 -5 -8 3 -5 0 -19 -7 -33 -7 -13 -12 -38 -12 -55 1
-26 -3 -31 -22 -31 -20 0 -21 2 -11 15 12 13 11 14 -9 2 -25 -16 -20 -34 8
-27 23 6 43 -17 34 -40 -5 -12 -9 -14 -12 -5 -3 6 -9 10 -13 7 -5 -3 -19 5
-32 19 -26 26 -73 41 -83 26 -4 -6 -12 -7 -18 -3 -9 5 -9 3 0 -8 10 -12 8 -17
-8 -28 -17 -10 -20 -19 -15 -46 4 -21 2 -36 -5 -41 -8 -5 -5 -10 12 -16 19 -7
21 -11 9 -18 -12 -8 -11 -10 7 -10 33 0 53 -11 53 -29 0 -14 2 -14 10 -1 9 13
11 13 20 0 9 -13 12 -13 21 3 5 9 19 17 30 17 11 0 18 4 15 8 -2 4 4 13 14 20
15 9 20 8 26 -6 4 -9 6 -23 5 -31 -5 -25 22 -62 56 -76 29 -12 32 -16 26 -49
-4 -28 -1 -39 20 -60 15 -14 37 -26 51 -26 14 0 28 -4 31 -10 3 -5 14 -9 23
-9 15 1 15 2 0 6 -10 2 -18 8 -18 13 0 12 25 7 44 -9 14 -12 16 -11 10 4 -6
15 -3 17 14 13 12 -4 22 -2 22 2 0 13 -55 22 -94 14 -43 -7 -86 16 -86 46 0
11 3 19 8 19 4 -1 15 -1 25 0 20 1 23 21 3 21 -8 0 -22 10 -30 22 -9 12 -26
23 -38 25 -23 3 -58 37 -58 56 0 6 11 1 23 -12 16 -14 34 -21 55 -19 17 1 28
6 25 11 -3 5 -15 6 -26 3 -12 -3 -29 2 -39 11 -18 17 -25 39 -9 29 5 -4 8 2 7
11 -2 10 -9 19 -17 19 -8 1 -21 2 -29 3 -13 1 -28 51 -16 51 13 0 55 -28 49
-33 -10 -10 6 -8 28 3 21 12 26 1 7 -18 -10 -10 -6 -11 17 -7 42 8 64 -8 48
-35 -19 -30 -17 -32 26 -25 23 4 42 2 45 -4 7 -11 56 6 56 20 0 4 16 5 36 3
22 -3 33 -1 29 6 -8 13 -51 13 -74 0 -10 -5 -34 -7 -54 -3 -26 4 -39 13 -53
38 -17 31 -17 34 2 57 11 14 25 23 32 20 6 -2 12 1 12 8 0 6 -4 8 -10 5 -5 -3
-10 -1 -10 5 0 7 -9 5 -22 -4 -26 -19 -75 -21 -80 -4 -3 8 -12 8 -33 0 l-30
-10 32 -1 c41 -1 52 -18 17 -27 -38 -10 -56 6 -70 59 -12 48 -3 71 15 40 6
-10 11 -13 11 -6 0 7 14 11 31 11 28 -1 30 -3 15 -13 -9 -7 -16 -18 -16 -24 0
-6 10 -2 22 9 25 23 69 20 100 -7 10 -9 22 -12 30 -7 7 5 26 7 42 5 l29 -3
-28 24 c-23 21 -26 28 -17 45 22 40 88 52 146 28 16 -7 18 -5 13 9 -4 9 -3 15
2 12 5 -3 15 1 22 10 11 13 15 12 34 -11 15 -16 28 -23 39 -19 22 8 20 17 -6
29 -37 16 -34 41 6 55 19 6 36 16 39 23 3 7 16 13 31 15 19 1 26 -3 26 -16 0
-13 2 -14 9 -4 10 16 2 62 -10 62 -5 0 -9 9 -9 20 0 11 -5 20 -11 20 -5 0 -8
-4 -4 -10 3 -5 -3 -18 -14 -29 -11 -11 -24 -29 -30 -40 -11 -19 -12 -20 -29
-3 -17 16 -16 17 8 24 20 6 18 7 -9 4 -35 -3 -71 18 -71 41 0 7 -7 13 -15 13
-12 0 -13 -4 -3 -25 14 -32 3 -44 -20 -20 -9 10 -11 15 -4 11 6 -4 12 -2 12 3
0 6 -5 11 -11 11 -5 0 -7 5 -4 10 9 14 -19 12 -33 -2z m132 -78 c22 0 20 -5
-9 -34 -29 -29 -33 -25 -33 29 0 34 2 37 13 22 7 -9 20 -17 29 -17z m-514
-278 c0 -7 5 -10 10 -7 6 3 10 -3 10 -15 0 -11 -8 -23 -17 -27 -10 -3 -25 -12
-33 -18 -16 -13 -50 -16 -50 -5 0 4 -12 13 -27 20 -18 8 -23 14 -15 17 10 4 9
9 -4 24 -21 24 -11 49 20 49 14 0 27 4 31 9 7 13 74 -30 75 -47z"/>
<path d="M1990 3741 c0 -17 18 -21 24 -6 3 9 0 15 -9 15 -8 0 -15 -4 -15 -9z"/>
<path d="M2186 3735 c7 -18 20 -19 30 -4 3 6 17 9 30 6 14 -2 27 0 30 4 3 5
-17 9 -45 9 -41 0 -49 -3 -45 -15z"/>
<path d="M2400 3743 c24 -2 50 -9 57 -15 9 -8 13 -7 13 2 0 8 3 11 6 7 8 -8
-5 -44 -22 -62 -23 -22 -123 -18 -109 5 7 12 -22 33 -35 25 -6 -4 -9 -12 -7
-19 6 -15 -12 -40 -35 -49 -10 -3 -34 1 -54 9 -42 18 -54 12 -29 -13 17 -16
17 -17 -3 -26 -22 -10 -38 -37 -21 -37 5 0 7 -10 4 -22 -5 -19 0 -26 25 -36
16 -8 30 -18 30 -23 0 -6 -5 -7 -12 -3 -8 5 -9 -2 -5 -25 5 -22 3 -33 -7 -37
-8 -3 -12 -16 -10 -34 3 -24 -2 -31 -26 -42 -29 -13 -44 -33 -16 -22 18 7 29
-25 14 -43 -20 -24 -97 -11 -125 22 -30 34 -30 65 0 66 12 0 16 3 10 6 -16 6
-6 53 14 70 9 7 11 13 4 18 -6 3 -11 3 -11 -1 0 -4 -11 5 -24 19 -29 31 -38
25 -30 -19 7 -37 0 -44 -55 -46 -23 -1 -47 -8 -54 -17 -10 -12 -9 -14 7 -8 11
5 22 3 26 -3 4 -7 15 -8 32 -1 13 5 30 6 37 1 11 -6 11 -9 0 -13 -12 -4 -12
-6 0 -6 11 -1 10 -6 -4 -21 -11 -12 -13 -20 -6 -20 7 0 9 -4 6 -10 -3 -5 -14
-10 -24 -10 -10 0 -24 -7 -31 -15 -10 -12 -10 -15 4 -15 9 0 16 -4 16 -10 0
-5 5 -10 11 -10 29 0 61 -65 42 -84 -4 -3 -8 -23 -9 -42 -1 -20 -10 -48 -21
-62 -24 -32 -78 -50 -101 -35 -10 6 -25 6 -42 0 -16 -5 -34 -5 -50 1 -33 13
-40 14 -40 5 0 -5 3 -8 8 -9 4 0 20 -6 36 -13 22 -9 32 -9 43 0 10 9 17 9 25
1 6 -6 16 -8 23 -6 20 8 27 -13 9 -30 -19 -20 -34 -21 -34 -3 0 8 -12 14 -28
15 -15 0 -32 2 -37 3 -6 2 -20 -1 -33 -5 -15 -5 -31 -3 -46 7 -25 17 -58 17
-54 1 2 -5 9 -8 16 -6 6 2 12 -1 12 -7 0 -5 -6 -12 -12 -15 -7 -3 0 -4 15 -2
25 3 26 2 14 -13 -13 -14 -12 -20 2 -46 10 -16 32 -39 50 -50 18 -11 69 -44
112 -72 86 -57 94 -61 85 -38 -10 26 5 45 46 56 32 8 43 7 56 -4 30 -25 48
-31 24 -7 -13 12 -21 29 -18 37 3 8 6 19 6 24 0 19 44 27 72 13 31 -16 52 -18
26 -3 -10 5 -18 16 -18 24 0 7 -5 15 -12 17 -9 3 -9 6 0 12 7 4 12 2 12 -3 0
-6 4 -11 10 -11 5 0 9 6 7 12 -1 9 13 13 45 12 26 0 44 4 42 8 -3 4 2 5 10 2
10 -4 16 -1 16 8 0 19 62 71 69 59 3 -4 12 -10 20 -12 11 -4 10 -9 -5 -24 -18
-18 -18 -18 8 -12 17 5 28 3 31 -6 4 -9 6 -9 6 1 1 10 9 9 34 -4 65 -34 64
-34 60 -10 -5 22 -13 29 -69 55 -54 25 -58 27 -63 42 -3 12 -1 12 14 -1 10 -8
16 -10 12 -3 -15 24 16 53 55 53 21 0 38 -5 38 -10 0 -6 6 -10 13 -9 6 1 25
-3 40 -9 39 -16 49 -15 45 6 -2 13 -15 18 -51 20 -26 2 -47 7 -47 13 0 5 -8 9
-17 9 -15 0 -16 2 -3 10 20 13 6 24 -17 12 -10 -5 -28 -8 -40 -6 -13 2 -23 0
-23 -6 0 -17 -41 -31 -71 -25 -16 4 -29 11 -29 15 0 5 8 6 18 3 15 -6 15 -5 3
10 -11 14 -11 17 1 17 8 0 19 -5 24 -10 11 -11 44 -3 44 10 0 5 -12 9 -27 9
-36 0 -61 5 -69 14 -4 4 -21 7 -37 7 -22 0 -28 4 -23 15 3 8 2 14 -2 13 -4 -1
-17 3 -29 10 -24 13 -33 62 -12 62 6 0 9 -6 6 -13 -3 -8 -1 -20 4 -28 6 -10 9
-4 9 19 0 35 18 42 44 17 8 -8 19 -15 25 -15 14 0 -7 38 -32 60 -19 16 -15 50
7 50 6 0 16 10 21 23 16 35 51 33 85 -3 25 -27 31 -29 36 -16 9 24 40 11 87
-36 41 -40 62 -48 26 -10 -11 12 -17 26 -14 31 3 5 -5 13 -17 17 -25 8 -48 28
-48 42 0 5 -15 13 -32 18 -40 12 -47 39 -17 65 26 23 51 25 43 4 -4 -10 0 -15
14 -15 18 0 20 3 11 32 -5 18 -9 34 -9 35 0 1 7 0 15 -3 10 -4 15 0 15 14 0
11 3 28 7 38 5 13 3 15 -8 10 -8 -4 -4 1 9 12 12 11 22 24 22 30 0 5 9 17 19
26 20 19 87 19 84 1 -1 -5 10 -11 24 -12 27 -1 46 -21 36 -37 -4 -5 1 -7 12
-2 11 4 21 2 26 -5 8 -14 29 -3 29 15 0 8 -13 16 -30 19 -34 7 -76 45 -63 57
4 5 18 10 30 12 16 2 20 7 14 16 -7 11 -15 10 -44 -6 -20 -10 -34 -22 -30 -26
10 -9 -10 -7 -26 3 -12 8 -12 12 -2 25 12 14 10 15 -18 5 -17 -6 -31 -15 -31
-20 0 -5 -4 -9 -10 -9 -5 0 -7 6 -4 14 7 18 -9 23 -81 23 -49 0 -52 0 -15 -4z
m-87 -109 c-5 -14 -3 -14 21 1 19 13 30 15 34 8 4 -7 20 -15 35 -18 15 -4 27
-8 27 -10 0 -1 -5 -16 -11 -34 -12 -35 -56 -64 -79 -52 -8 5 -28 7 -45 7 -24
-1 -29 -5 -27 -20 2 -10 -2 -22 -9 -27 -8 -4 -10 -11 -6 -16 7 -6 21 7 29 29
2 3 15 4 30 1 24 -4 25 -7 15 -24 -9 -15 -9 -24 1 -40 7 -12 11 -24 8 -27 -3
-3 -6 0 -6 7 0 7 -14 11 -40 9 -23 -2 -40 -8 -40 -15 0 -17 -37 -36 -45 -23
-3 5 -1 10 5 10 6 0 8 5 5 10 -3 6 -1 10 5 10 6 0 9 4 6 8 -3 4 -1 25 4 46 7
34 6 38 -15 46 -32 12 -39 28 -24 56 13 25 39 33 39 12 0 -7 5 -5 11 5 11 19
47 15 61 -7 5 -6 8 -2 8 12 0 12 -5 22 -11 22 -8 0 -8 5 1 15 16 19 21 19 13
-1z m67 -234 c0 -5 -4 -10 -10 -10 -5 0 -10 5 -10 10 0 6 5 10 10 10 6 0 10
-4 10 -10z m-375 -120 c3 -5 -1 -10 -10 -10 -9 0 -13 5 -10 10 3 6 8 10 10 10
2 0 7 -4 10 -10z m55 -15 c13 8 71 -16 67 -29 -6 -18 -45 -34 -72 -28 -14 2
-22 8 -19 13 3 5 10 6 16 3 5 -4 3 5 -6 18 -9 14 -13 28 -9 32 4 4 9 2 11 -3
2 -6 7 -9 12 -6z m133 -97 c3 -10 14 -18 26 -18 12 0 21 -6 21 -13 0 -26 40
-50 90 -55 47 -4 70 -21 33 -23 -10 -1 -27 -2 -38 -3 -11 0 -20 -8 -20 -17 0
-38 -79 -79 -153 -79 -20 0 -31 -4 -27 -10 4 -6 -8 -13 -26 -17 -32 -6 -32 -6
-8 -16 l24 -10 -25 -5 c-30 -5 -60 28 -60 69 0 35 16 47 25 18 6 -17 9 -19 16
-8 5 8 9 9 9 3 0 -6 7 -11 16 -11 11 0 8 6 -9 21 -37 32 -38 48 -5 86 20 23
28 28 23 15 -5 -15 -3 -17 6 -8 19 19 1 35 -24 21 -21 -11 -21 -10 -6 13 23
34 66 54 85 39 19 -17 19 4 -1 24 -21 21 -19 28 4 14 11 -7 22 -20 24 -30z
m-98 18 c8 4 15 1 15 -6 0 -6 -4 -9 -9 -5 -5 3 -12 -4 -16 -15 -3 -11 -11 -20
-16 -20 -5 0 -9 -13 -9 -29 0 -17 -4 -33 -10 -36 -5 -3 -10 -13 -10 -22 0 -9
-7 -21 -15 -27 -16 -11 -39 -119 -23 -110 4 3 8 -2 8 -10 0 -9 5 -16 10 -16 7
0 7 6 0 19 -5 11 -10 28 -9 38 0 14 2 15 6 3 3 -8 11 -21 16 -29 15 -18 18
-41 6 -41 -6 0 -7 -5 -4 -10 7 -12 -75 -51 -89 -43 -5 3 -6 1 -3 -4 4 -6 0
-16 -8 -23 -17 -14 -51 -9 -48 8 2 7 0 11 -5 10 -12 -3 -52 13 -52 21 0 4 11
18 25 31 14 13 25 34 25 46 0 12 6 25 13 27 6 3 -3 6 -20 6 -18 1 -33 -4 -33
-10 0 -5 5 -7 10 -4 18 11 11 -22 -11 -49 -11 -14 -28 -26 -37 -25 -14 0 -13
2 3 10 16 7 14 8 -10 4 -35 -6 -44 0 -68 42 -17 31 -17 32 4 52 23 21 60 21
112 0 27 -11 32 -10 48 10 11 13 19 19 19 15 0 -5 5 -1 11 9 5 9 15 17 22 17
17 1 57 36 57 50 0 6 4 9 8 6 8 -5 12 18 12 72 -1 17 4 32 10 32 6 0 8 4 5 10
-4 7 2 7 19 0 14 -5 33 -7 41 -4z"/>
<path d="M2213 3538 c11 -10 24 -15 31 -11 7 5 4 9 -9 11 -11 2 -25 7 -30 11
-6 3 -2 -2 8 -11z"/>
<path d="M2245 3450 c-3 -5 -1 -10 4 -10 6 0 11 5 11 10 0 6 -2 10 -4 10 -3 0
-8 -4 -11 -10z"/>
<path d="M2085 3059 c-4 -6 -5 -12 -2 -15 2 -3 7 2 10 11 7 17 1 20 -8 4z"/>
<path d="M2680 3731 c0 -23 37 -38 53 -22 8 8 5 11 -12 11 -16 0 -21 4 -17 15
3 9 0 15 -9 15 -8 0 -15 -9 -15 -19z"/>
<path d="M2750 3740 c0 -5 7 -10 15 -10 8 0 15 5 15 10 0 6 -7 10 -15 10 -8 0
-15 -4 -15 -10z"/>
<path d="M2808 3743 c7 -3 16 -2 19 1 4 3 -2 6 -13 5 -11 0 -14 -3 -6 -6z"/>
<path d="M2968 3743 c6 -2 18 -2 25 0 6 3 1 5 -13 5 -14 0 -19 -2 -12 -5z"/>
<path d="M1655 3705 c-20 -16 -20 -16 2 -10 15 4 26 0 36 -15 11 -16 16 -18
20 -7 7 18 -8 41 -21 33 -6 -3 -12 -1 -14 4 -2 7 -11 4 -23 -5z"/>
<path d="M1841 3709 c10 -6 8 -9 -8 -9 -24 0 -31 -14 -12 -26 6 -3 22 5 36 19
l25 25 -27 0 c-19 0 -23 -3 -14 -9z"/>
<path d="M2828 3713 c7 -3 16 -2 19 1 4 3 -2 6 -13 5 -11 0 -14 -3 -6 -6z"/>
<path d="M2865 3710 c3 -5 8 -10 11 -10 2 0 4 5 4 10 0 6 -5 10 -11 10 -5 0
-7 -4 -4 -10z"/>
<path d="M2730 3693 c-14 -7 -19 -13 -12 -13 6 0 11 -5 10 -11 -2 -6 4 -14 12
-16 12 -4 12 -3 1 5 -11 8 -10 11 4 19 28 16 13 31 -15 16z"/>
<path d="M2990 3695 c0 -10 -10 -15 -32 -15 -22 0 -29 -3 -22 -10 15 -15 64 5
64 25 0 8 -2 15 -5 15 -3 0 -5 -7 -5 -15z"/>
<path d="M2185 3690 c3 -5 8 -10 11 -10 2 0 4 5 4 10 0 6 -5 10 -11 10 -5 0
-7 -4 -4 -10z"/>
<path d="M2670 3689 c0 -5 5 -7 10 -4 6 3 10 8 10 11 0 2 -4 4 -10 4 -5 0 -10
-5 -10 -11z"/>
<path d="M2890 3696 c0 -2 7 -6 15 -10 8 -3 15 -1 15 4 0 6 -7 10 -15 10 -8 0
-15 -2 -15 -4z"/>
<path d="M1590 3680 c-1 -8 -2 -19 -1 -24 1 -5 -6 -17 -15 -27 -15 -16 -15
-17 5 -12 11 3 19 9 16 13 -3 5 -1 10 3 12 5 1 5 14 1 28 -4 14 -8 18 -9 10z"/>
<path d="M1875 3679 c-4 -6 -4 -13 -1 -16 3 -4 6 -1 6 5 0 6 7 9 15 6 8 -4 15
-1 15 5 0 14 -27 14 -35 0z"/>
<path d="M2521 3654 c-12 -27 -11 -28 4 -12 10 9 16 21 13 28 -2 7 -10 -1 -17
-16z"/>
<path d="M2844 3668 c-4 -6 -3 -8 4 -4 6 3 18 -1 26 -10 15 -14 16 -14 16 5 0
23 -33 30 -46 9z"/>
<path d="M1010 3660 c-9 -6 -10 -10 -3 -10 6 0 15 5 18 10 8 12 4 12 -15 0z"/>
<path d="M1118 3663 c7 -3 16 -2 19 1 4 3 -2 6 -13 5 -11 0 -14 -3 -6 -6z"/>
<path d="M1650 3665 c0 -2 7 -8 15 -15 12 -10 15 -10 15 2 0 8 -7 15 -15 15
-8 0 -15 -1 -15 -2z"/>
<path d="M9 3651 c11 -7 11 -9 0 -13 -8 -3 -11 -9 -7 -13 9 -10 28 3 28 21 0
8 -8 14 -17 14 -14 0 -15 -2 -4 -9z"/>
<path d="M50 3645 c0 -8 -5 -15 -11 -15 -6 0 -9 -6 -6 -14 3 -8 -1 -22 -8 -33
-24 -30 -19 -51 6 -26 20 19 39 103 25 103 -4 0 -6 -7 -6 -15z"/>
<path d="M352 3635 c-7 -14 -12 -34 -12 -43 1 -9 7 1 15 23 16 45 14 58 -3 20z"/>
<path d="M1740 3650 c0 -5 5 -10 11 -10 5 0 7 5 4 10 -3 6 -8 10 -11 10 -2 0
-4 -4 -4 -10z"/>
<path d="M2248 3653 c6 -2 18 -2 25 0 6 3 1 5 -13 5 -14 0 -19 -2 -12 -5z"/>
<path d="M2970 3656 c0 -2 7 -6 15 -10 8 -3 15 -1 15 4 0 6 -7 10 -15 10 -8 0
-15 -2 -15 -4z"/>
<path d="M2110 3634 c0 -5 6 -19 14 -30 12 -15 17 -17 27 -6 11 10 10 12 0 12
-8 0 -20 8 -27 18 -7 9 -14 12 -14 6z"/>
<path d="M958 3610 c-20 -18 -14 -30 14 -30 10 0 18 -4 18 -10 0 -14 27 -13
36 2 4 6 3 9 -2 6 -5 -3 -15 0 -22 8 -7 8 -8 14 -3 14 6 0 8 7 4 16 -4 11 -8
12 -13 4 -4 -7 -9 -8 -11 -3 -2 6 -12 3 -21 -7z"/>
<path d="M2961 3615 c-18 -8 -42 -15 -52 -15 -11 0 -19 -4 -19 -9 0 -14 41
-25 49 -13 3 6 19 14 34 17 15 4 27 13 27 21 0 17 3 17 -39 -1z"/>
<path d="M2482 3609 c2 -6 8 -10 13 -10 5 0 11 4 13 10 2 6 -4 11 -13 11 -9 0
-15 -5 -13 -11z"/>
<path d="M2066 3597 c3 -10 9 -15 12 -12 3 3 0 11 -7 18 -10 9 -11 8 -5 -6z"/>
<path d="M2643 3589 c-1 -12 3 -19 10 -16 15 5 16 29 2 34 -6 2 -11 -6 -12
-18z"/>
<path d="M730 3586 c0 -9 7 -12 21 -9 16 4 17 8 7 14 -19 13 -28 11 -28 -5z"/>
<path d="M1340 3596 c0 -2 8 -10 18 -17 15 -13 16 -12 3 4 -13 16 -21 21 -21
13z"/>
<path d="M1433 3586 c-45 -16 -51 -26 -17 -27 l29 -1 -30 -13 c-16 -8 -26 -14
-21 -15 5 0 3 -6 -3 -14 -9 -10 -8 -16 4 -26 12 -10 15 -9 15 7 0 42 56 58 92
26 10 -9 21 -13 25 -9 4 4 3 10 -3 14 -6 4 -13 15 -17 25 -5 13 -13 16 -26 12
-16 -5 -18 -2 -14 15 3 11 4 19 2 19 -2 -1 -18 -7 -36 -13z"/>
<path d="M1180 3571 c0 -23 -11 -31 -54 -42 -30 -8 -30 -8 7 -6 38 3 51 -8 20
-16 -15 -4 -14 -5 3 -6 20 -1 36 20 49 67 5 16 2 22 -9 22 -9 0 -16 -8 -16
-19z"/>
<path d="M2799 3572 c6 -2 11 -11 11 -19 0 -10 6 -14 20 -10 16 4 18 2 11 -11
-7 -14 -4 -17 16 -18 17 -2 23 2 19 12 -3 7 4 16 15 19 21 7 26 25 7 26 -7 0
-35 1 -62 2 -27 2 -44 1 -37 -1z"/>
<path d="M211 3554 c0 -11 3 -14 6 -6 3 7 2 16 -1 19 -3 4 -6 -2 -5 -13z"/>
<path d="M1675 3560 c3 -5 13 -10 21 -10 8 0 14 5 14 10 0 6 -9 10 -21 10 -11
0 -17 -4 -14 -10z"/>
<path d="M1983 3553 c3 -13 1 -23 -5 -23 -5 0 -7 -4 -3 -9 9 -15 -43 -49 -88
-57 l-42 -7 29 -10 c19 -6 30 -6 35 1 3 5 15 12 26 14 10 1 32 17 48 35 27 31
28 33 12 55 l-17 23 5 -22z"/>
<path d="M2100 3560 c0 -5 5 -10 10 -10 6 0 10 5 10 10 0 6 -4 10 -10 10 -5 0
-10 -4 -10 -10z"/>
<path d="M701 3547 c-9 -11 -2 -14 32 -15 l42 -2 -29 15 c-34 18 -31 18 -45 2z"/>
<path d="M2460 3551 c0 -3 14 -12 30 -19 17 -8 35 -23 41 -35 7 -11 19 -29 28
-39 16 -16 17 -16 18 3 1 11 -2 17 -7 14 -9 -6 -20 18 -20 46 0 11 -4 17 -10
14 -5 -3 -10 0 -10 7 0 9 -13 14 -35 15 -19 1 -35 -2 -35 -6z"/>
<path d="M1740 3546 c0 -9 40 -13 46 -5 3 5 -6 9 -20 9 -14 0 -26 -2 -26 -4z"/>
<path d="M2640 3540 c0 -5 5 -10 11 -10 5 0 7 5 4 10 -3 6 -8 10 -11 10 -2 0
-4 -4 -4 -10z"/>
<path d="M2685 3540 c3 -5 8 -10 11 -10 2 0 4 5 4 10 0 6 -5 10 -11 10 -5 0
-7 -4 -4 -10z"/>
<path d="M968 3533 c6 -2 18 -2 25 0 6 3 1 5 -13 5 -14 0 -19 -2 -12 -5z"/>
<path d="M2073 3533 c-27 -3 -43 -9 -43 -17 0 -9 10 -12 33 -9 17 3 40 6 49 6
10 1 20 7 22 14 3 7 0 12 -7 11 -7 -1 -31 -3 -54 -5z"/>
<path d="M1006 3519 c-20 -12 -84 -14 -116 -4 -13 4 -20 2 -20 -7 0 -7 -9 -19
-20 -26 -21 -13 -27 -32 -10 -32 5 0 18 10 30 22 21 23 24 21 14 -6 -3 -9 -11
-16 -18 -16 -6 0 -22 -12 -35 -25 -16 -17 -34 -25 -57 -25 -19 0 -34 -4 -34
-9 0 -10 65 2 102 19 36 17 55 2 53 -44 0 -26 2 -32 11 -25 8 7 14 6 19 -1 3
-5 15 -10 27 -10 11 0 22 -8 25 -20 3 -11 9 -17 14 -14 5 3 16 -2 25 -10 13
-14 19 -14 43 -1 16 8 32 11 36 7 5 -4 5 -2 1 5 -3 6 -2 14 4 18 5 3 10 13 10
21 0 10 -8 7 -25 -11 -29 -28 -43 -31 -70 -11 -18 13 -18 14 2 20 11 4 28 15
38 26 13 15 22 17 36 9 13 -6 19 -6 19 1 0 5 -4 10 -10 10 -5 0 -12 11 -16 24
-3 14 -12 27 -20 30 -8 3 -11 13 -8 23 5 14 4 15 -4 4 -9 -12 -13 -12 -26 2
-21 20 -20 37 2 53 21 16 5 18 -22 3z m14 -79 c0 -11 6 -20 14 -20 8 0 16 -7
20 -15 3 -8 1 -15 -5 -15 -6 0 -8 -4 -5 -9 7 -11 -39 -31 -72 -31 -38 0 -55
14 -48 37 4 12 1 25 -9 33 -8 7 -15 23 -15 36 0 18 6 23 33 26 42 5 87 -17 87
-42z"/>
<path d="M970 3440 c-17 -13 -20 -20 -10 -20 19 0 34 11 38 28 3 16 2 15 -28
-8z"/>
<path d="M2680 3510 c-9 -6 -10 -10 -3 -10 6 0 15 5 18 10 8 12 4 12 -15 0z"/>
<path d="M2140 3506 c0 -2 9 -6 20 -9 11 -3 18 -1 14 4 -5 9 -34 13 -34 5z"/>
<path d="M2448 3498 c19 -19 14 -38 -10 -39 -18 -1 -19 -2 -5 -6 10 -3 14 -9
10 -16 -4 -7 0 -6 10 2 9 7 22 11 29 9 7 -3 21 -2 31 1 17 6 16 9 -7 34 -14
15 -35 27 -48 27 -17 0 -19 -3 -10 -12z"/>
<path d="M2645 3500 c-3 -5 -1 -10 4 -10 6 0 11 5 11 10 0 6 -2 10 -4 10 -3 0
-8 -4 -11 -10z"/>
<path d="M2710 3495 c0 -9 9 -15 24 -15 13 0 26 -7 30 -15 3 -8 13 -15 21 -15
9 0 13 5 10 10 -3 6 1 13 9 16 9 3 16 11 16 16 0 6 -6 5 -15 -2 -12 -10 -16
-9 -21 4 -4 11 -11 13 -22 7 -10 -6 -23 -6 -34 0 -14 7 -18 6 -18 -6z"/>
<path d="M2900 3486 c0 -2 7 -9 15 -16 9 -7 15 -8 15 -2 0 5 -7 12 -15 16 -8
3 -15 4 -15 2z"/>
<path d="M2360 3461 c0 -6 4 -13 10 -16 6 -3 7 1 4 9 -7 18 -14 21 -14 7z"/>
<path d="M2595 3460 c3 -5 13 -10 21 -10 8 0 12 5 9 10 -3 6 -13 10 -21 10 -8
0 -12 -4 -9 -10z"/>
<path d="M1666 3445 c4 -8 13 -15 21 -15 13 0 13 3 3 15 -7 8 -16 15 -21 15
-5 0 -6 -7 -3 -15z"/>
<path d="M2832 3447 c-9 -10 -4 -16 18 -24 23 -8 30 -8 34 3 3 8 -3 18 -14 24
-24 13 -25 13 -38 -3z"/>
<path d="M1925 3440 c3 -5 11 -10 16 -10 6 0 7 5 4 10 -3 6 -11 10 -16 10 -6
0 -7 -4 -4 -10z"/>
<path d="M1965 3440 c-3 -5 -1 -10 4 -10 6 0 11 5 11 10 0 6 -2 10 -4 10 -3 0
-8 -4 -11 -10z"/>
<path d="M2635 3435 c-27 -13 -27 -14 -7 -15 12 0 22 -4 22 -10 0 -5 8 -10 18
-10 15 -1 14 -3 -5 -19 l-22 -19 27 -5 c15 -3 29 -1 30 4 2 5 11 9 20 10 11 0
13 2 4 6 -10 4 -10 8 -1 19 9 11 8 14 -4 14 -9 0 -19 9 -22 20 -7 23 -18 24
-60 5z"/>
<path d="M780 3431 c-20 -6 -22 -8 -8 -13 9 -4 24 0 35 7 19 15 12 17 -27 6z"/>
<path d="M2890 3420 c0 -5 5 -10 10 -10 6 0 10 5 10 10 0 6 -4 10 -10 10 -5 0
-10 -4 -10 -10z"/>
<path d="M2843 3398 c4 -10 3 -17 -1 -17 -19 3 -25 -2 -12 -11 8 -5 11 -12 7
-16 -3 -4 -12 -2 -19 3 -13 11 -53 11 -63 1 -3 -3 5 -5 17 -5 34 0 88 -14 94
-24 3 -5 9 -7 14 -4 5 3 27 -3 49 -15 47 -24 91 -29 51 -5 -14 8 -36 19 -50
25 -18 8 -21 13 -11 19 10 6 9 10 -4 15 -27 10 -42 7 -25 -5 12 -9 12 -10 -3
-5 -10 3 -24 6 -30 6 -7 0 -6 4 3 10 13 8 12 12 -4 27 -18 17 -18 17 -13 1z"/>
<path d="M651 3383 c-1 -17 16 -25 25 -12 4 7 3 9 -4 5 -5 -3 -13 0 -15 6 -4
9 -6 10 -6 1z"/>
<path d="M1950 3360 c0 -5 5 -10 10 -10 6 0 10 5 10 10 0 6 -4 10 -10 10 -5 0
-10 -4 -10 -10z"/>
<path d="M690 3340 c0 -5 7 -7 15 -4 8 4 15 8 15 10 0 2 -7 4 -15 4 -8 0 -15
-4 -15 -10z"/>
<path d="M1050 3340 c0 -5 5 -10 10 -10 6 0 10 5 10 10 0 6 -4 10 -10 10 -5 0
-10 -4 -10 -10z"/>
<path d="M615 3330 c-3 -6 1 -7 9 -4 18 7 21 14 7 14 -6 0 -13 -4 -16 -10z"/>
<path d="M1274 3332 c4 -7 2 -12 -3 -12 -6 0 -11 -15 -11 -32 l0 -33 13 25 c7
13 24 30 37 37 17 9 20 13 8 13 -9 0 -24 3 -34 7 -12 4 -15 3 -10 -5z"/>
<path d="M2320 3315 c-19 -14 -40 -25 -48 -25 -23 0 7 -31 46 -47 28 -11 37
-12 49 -1 14 11 15 10 9 -12 -6 -22 -5 -22 4 -7 11 17 13 17 30 2 10 -9 24
-14 29 -10 6 3 11 1 11 -6 0 -7 10 -9 25 -7 16 4 25 1 25 -8 0 -9 -10 -11 -34
-7 -21 3 -36 1 -41 -7 -6 -10 -2 -12 13 -8 16 4 22 2 22 -9 0 -13 3 -13 24 1
25 16 91 12 80 -5 -2 -5 8 -11 23 -15 15 -4 40 -13 55 -20 39 -20 43 -1 6 30
-22 18 -44 26 -69 26 -40 0 -65 20 -55 45 3 9 2 13 -4 10 -6 -3 -10 -2 -10 4
0 5 8 11 18 13 11 2 13 6 6 11 -7 4 -22 -2 -35 -12 -21 -16 -34 -18 -81 -12
-4 1 -10 10 -13 21 -5 17 -14 20 -47 18 -26 -2 -42 2 -45 10 -3 6 2 12 11 12
8 0 20 9 26 20 14 26 11 25 -30 -5z"/>
<path d="M2408 3313 c7 -3 16 -2 19 1 4 3 -2 6 -13 5 -11 0 -14 -3 -6 -6z"/>
<path d="M1310 3306 c0 -2 8 -10 18 -17 15 -13 16 -12 3 4 -13 16 -21 21 -21
13z"/>
<path d="M2543 3285 c0 -8 7 -15 14 -15 8 0 21 7 29 15 14 13 12 15 -14 15
-19 0 -29 -5 -29 -15z"/>
<path d="M2606 3285 c-3 -8 -3 -15 0 -15 3 0 12 7 20 15 13 13 13 15 1 15 -8
0 -17 -7 -21 -15z"/>
<path d="M603 3283 c-26 -10 -12 -22 20 -17 24 4 38 0 55 -16 12 -11 22 -17
22 -12 0 26 -66 57 -97 45z"/>
<path d="M1382 3278 c-7 -7 -12 -18 -12 -25 0 -8 -14 -16 -30 -20 -31 -6 -32
-18 -2 -18 19 0 42 18 42 34 0 6 11 13 25 17 14 3 22 10 19 15 -7 13 -28 11
-42 -3z"/>
<path d="M2435 3270 c4 -6 11 -8 16 -5 14 9 11 15 -7 15 -8 0 -12 -5 -9 -10z"/>
<path d="M320 3259 c0 -5 5 -7 10 -4 6 3 10 8 10 11 0 2 -4 4 -10 4 -5 0 -10
-5 -10 -11z"/>
<path d="M590 3241 c0 -6 4 -13 10 -16 6 -3 7 1 4 9 -7 18 -14 21 -14 7z"/>
<path d="M1273 3232 c1 -14 5 -18 11 -12 7 7 6 14 -1 21 -9 9 -12 7 -10 -9z"/>
<path d="M321 3220 c-7 -88 -6 -119 6 -107 8 8 9 30 3 72 -4 33 -8 49 -9 35z"/>
<path d="M1005 3230 c-3 -5 -2 -10 4 -10 5 0 13 5 16 10 3 6 2 10 -4 10 -5 0
-13 -4 -16 -10z"/>
<path d="M1815 3230 c3 -5 8 -10 11 -10 2 0 4 5 4 10 0 6 -5 10 -11 10 -5 0
-7 -4 -4 -10z"/>
<path d="M940 3220 c13 -8 13 -10 0 -10 -12 0 -11 -3 2 -17 14 -13 20 -14 33
-3 19 16 3 40 -29 40 -17 0 -18 -2 -6 -10z m40 -14 c0 -3 -4 -8 -10 -11 -5 -3
-10 -1 -10 4 0 6 5 11 10 11 6 0 10 -2 10 -4z"/>
<path d="M1043 3213 c-8 -3 -9 -12 -1 -34 7 -22 7 -33 -2 -44 -13 -16 -80 -21
-80 -7 0 5 -7 17 -15 28 -14 18 -15 17 -9 -11 8 -35 20 -45 55 -45 30 0 82 37
76 54 -2 6 0 21 4 34 5 14 5 21 0 18 -5 -4 -11 -2 -13 2 -1 5 -8 7 -15 5z"/>
<path d="M1771 3194 c-19 -19 -21 -24 -8 -24 9 0 18 4 21 9 6 10 24 9 41 0 15
-9 65 -20 65 -15 0 6 -85 57 -91 55 -2 -1 -15 -12 -28 -25z"/>
<path d="M570 3196 c8 -8 26 -17 40 -21 23 -6 23 -5 -5 14 -34 24 -57 28 -35
7z"/>
<path d="M653 3195 c0 -8 4 -15 7 -15 4 0 13 7 20 15 10 12 9 15 -7 15 -11 0
-20 -7 -20 -15z"/>
<path d="M1386 3195 c7 -17 20 -20 28 -6 3 5 -1 12 -10 15 -22 9 -24 8 -18 -9z"/>
<path d="M85 3149 c-1 -42 -19 -69 -46 -69 -14 0 -19 -7 -19 -25 0 -14 5 -25
11 -25 6 0 8 7 5 15 -3 9 -1 15 7 14 6 -1 19 -1 27 0 13 1 13 2 0 11 -12 8
-12 10 3 16 9 3 17 13 17 21 0 8 5 11 10 8 7 -4 10 8 8 33 -4 49 -23 51 -23 1z"/>
<path d="M690 3180 c0 -5 5 -10 10 -10 6 0 10 5 10 10 0 6 -4 10 -10 10 -5 0
-10 -4 -10 -10z"/>
<path d="M1 3113 c1 -32 4 -46 6 -30 2 15 10 27 16 27 8 0 7 3 -2 9 -10 7 -11
13 -2 30 10 17 9 21 -4 21 -12 0 -15 -12 -14 -57z"/>
<path d="M1960 3160 c-9 -6 -10 -10 -3 -10 6 0 15 5 18 10 8 12 4 12 -15 0z"/>
<path d="M2940 3153 c0 -7 -7 -13 -15 -13 -8 0 -15 -5 -15 -10 0 -6 10 -8 24
-4 31 7 44 -13 20 -31 -13 -9 -14 -14 -6 -15 23 0 42 26 29 39 -9 9 -8 14 3
21 11 7 11 10 2 10 -7 0 -11 4 -8 8 2 4 -4 8 -15 8 -10 0 -19 -6 -19 -13z"/>
<path d="M1010 3145 c-14 -8 -20 -14 -14 -15 5 0 19 7 30 15 24 18 16 19 -16
0z"/>
<path d="M2413 3153 c9 -2 23 -2 30 0 6 3 -1 5 -18 5 -16 0 -22 -2 -12 -5z"/>
<path d="M1190 3141 c0 -6 4 -13 10 -16 6 -3 7 1 4 9 -7 18 -14 21 -14 7z"/>
<path d="M1303 3135 c0 -8 4 -15 9 -15 4 0 8 7 8 15 0 8 -4 15 -8 15 -5 0 -9
-7 -9 -15z"/>
<path d="M2803 3140 c2 -8 12 -16 23 -17 13 -2 15 -1 4 4 -8 3 -19 11 -23 17
-6 7 -7 6 -4 -4z"/>
<path d="M1795 3120 c-8 -13 5 -13 25 0 13 8 13 10 -2 10 -9 0 -20 -4 -23 -10z"/>
<path d="M2859 3119 c-10 -6 -7 -9 14 -9 29 0 35 5 14 13 -8 3 -20 1 -28 -4z"/>
<path d="M327 3093 c-2 -5 0 -19 4 -33 7 -23 7 -22 6 8 -1 33 -3 37 -10 25z"/>
<path d="M555 3090 c-3 -5 -8 -19 -10 -31 -2 -11 -7 -30 -10 -42 -5 -21 -5
-21 6 1 7 12 16 22 20 22 5 0 7 13 6 30 -2 33 -3 34 -12 20z"/>
<path d="M665 3089 c-11 -17 1 -21 15 -4 8 9 8 15 2 15 -6 0 -14 -5 -17 -11z"/>
<path d="M1512 3065 c-7 -15 -8 -26 -2 -30 6 -4 10 1 10 11 0 14 3 14 15 4 23
-19 26 -8 5 17 l-17 22 -11 -24z"/>
<path d="M1642 3070 c-7 -11 -8 -20 -3 -20 9 0 24 30 18 36 -1 2 -8 -6 -15
-16z"/>
<path d="M2653 3084 c4 -4 17 -7 29 -8 13 -1 22 -7 21 -14 -4 -16 14 -16 21 1
4 6 4 2 2 -10 -3 -19 0 -23 20 -23 13 0 24 5 24 11 0 5 5 7 11 3 7 -4 25 -8
41 -10 26 -3 28 -2 18 17 -8 15 -20 20 -43 18 -18 -1 -45 3 -60 10 -30 12 -95
16 -84 5z"/>
<path d="M2922 3070 c0 -14 2 -19 5 -12 2 6 2 18 0 25 -3 6 -5 1 -5 -13z"/>
<path d="M98 3049 c5 -35 8 -36 14 -5 3 14 0 27 -7 29 -7 3 -10 -5 -7 -24z"/>
<path d="M2875 3071 c-3 -5 -1 -12 4 -15 5 -3 11 1 15 9 6 16 -9 21 -19 6z"/>
<path d="M1095 3050 c3 -5 8 -10 11 -10 2 0 4 5 4 10 0 6 -5 10 -11 10 -5 0
-7 -4 -4 -10z"/>
<path d="M2977 3033 c3 -7 9 -13 14 -13 5 0 9 6 9 13 0 8 -6 14 -14 14 -8 0
-12 -6 -9 -14z"/>
<path d="M1625 3029 c-4 -6 -5 -12 -2 -15 2 -3 7 2 10 11 7 17 1 20 -8 4z"/>
<path d="M2566 3031 c-12 -19 77 -54 114 -44 19 5 19 7 -6 20 -15 7 -34 11
-42 8 -19 -7 -63 5 -56 16 3 5 3 9 0 9 -3 0 -7 -4 -10 -9z"/>
<path d="M331 3014 c0 -11 3 -14 6 -6 3 7 2 16 -1 19 -3 4 -6 -2 -5 -13z"/>
<path d="M1717 3019 c7 -7 15 -10 18 -7 3 3 -2 9 -12 12 -14 6 -15 5 -6 -5z"/>
<path d="M1290 3010 c-9 -6 -10 -10 -3 -10 6 0 15 5 18 10 8 12 4 12 -15 0z"/>
<path d="M2938 3013 c7 -3 16 -2 19 1 4 3 -2 6 -13 5 -11 0 -14 -3 -6 -6z"/>
<path d="M1513 3003 c-18 -7 -16 -23 2 -23 8 0 15 4 15 9 0 6 17 7 38 4 20 -3
34 -2 30 2 -9 9 -68 15 -85 8z"/>
<path d="M2790 3000 c-11 -7 -5 -10 23 -10 20 0 37 5 37 10 0 13 -40 13 -60 0z"/>
<path d="M2718 2993 c6 -2 18 -2 25 0 6 3 1 5 -13 5 -14 0 -19 -2 -12 -5z"/>
<path d="M5 2979 c-9 -14 -2 -20 14 -10 8 6 9 11 3 15 -6 3 -14 1 -17 -5z"/>
<path d="M517 2953 c-9 -67 -8 -141 2 -147 5 -4 8 12 5 39 -2 32 0 44 8 39 7
-5 8 -3 3 7 -5 7 -8 32 -6 56 3 53 -5 57 -12 6z"/>
<path d="M2526 2968 c5 -8 2 -9 -10 -5 -14 6 -15 4 -4 -16 10 -19 13 -20 16
-4 2 9 8 17 13 17 6 0 7 5 4 10 -3 6 -11 10 -16 10 -6 0 -7 -5 -3 -12z"/>
<path d="M1448 2963 c7 -3 16 -2 19 1 4 3 -2 6 -13 5 -11 0 -14 -3 -6 -6z"/>
<path d="M2648 2963 c7 -3 16 -2 19 1 4 3 -2 6 -13 5 -11 0 -14 -3 -6 -6z"/>
<path d="M2760 2966 c0 -2 9 -6 20 -9 11 -3 18 -1 14 4 -5 9 -34 13 -34 5z"/>
<path d="M29 2943 c-13 -15 -12 -15 9 -4 23 12 28 21 13 21 -5 0 -15 -7 -22
-17z"/>
<path d="M1400 2940 c0 -5 5 -10 10 -10 6 0 10 5 10 10 0 6 -4 10 -10 10 -5 0
-10 -4 -10 -10z"/>
<path d="M1477 2936 c-3 -8 -2 -18 3 -21 13 -8 24 15 12 27 -6 6 -11 4 -15 -6z"/>
<path d="M1603 2918 c1 -8 -22 -15 -63 -20 -105 -12 -152 -27 -205 -67 -50
-38 -62 -53 -144 -183 -52 -81 -99 -193 -107 -250 -4 -24 -10 -51 -15 -60 -6
-12 -6 -18 0 -18 6 0 13 12 17 28 3 15 8 36 12 47 3 11 6 31 8 45 1 14 20 57
41 95 22 39 48 86 59 105 10 19 22 37 27 38 4 2 7 9 7 16 0 18 45 57 56 48 5
-4 6 -3 2 2 -5 6 -8 13 -8 16 0 11 40 54 40 44 1 -5 9 1 20 14 29 35 93 52
204 55 99 2 103 1 176 -35 41 -21 104 -56 139 -78 l63 -41 -18 -22 c-19 -22
-19 -22 1 -5 20 17 22 16 65 -21 l44 -38 -52 -7 c-28 -3 -54 -11 -57 -16 -3
-5 8 -5 27 1 63 18 98 11 129 -23 18 -18 26 -34 20 -37 -6 -4 0 -15 15 -25 23
-18 24 -20 7 -39 -10 -11 -12 -17 -5 -13 6 4 12 4 12 1 0 -13 -34 -65 -42 -65
-4 0 -8 -7 -8 -16 0 -18 -83 -104 -100 -104 -5 0 -10 3 -10 6 0 11 34 64 41
64 12 0 1 73 -12 80 -9 6 -9 8 0 11 9 3 10 18 3 54 -8 43 -10 47 -16 25 -4
-14 -20 -33 -36 -42 -15 -9 -33 -26 -40 -38 -10 -18 -5 -17 31 9 23 17 46 31
51 31 15 0 8 -19 -9 -24 -26 -8 -83 -65 -83 -81 0 -10 13 -6 43 15 23 16 46
25 50 21 10 -10 -16 -75 -37 -97 -12 -12 -13 -20 -4 -39 9 -20 7 -33 -14 -72
-24 -47 -26 -48 -67 -45 -29 2 -40 -1 -36 -9 4 -6 -7 -4 -23 5 -17 9 -40 16
-50 16 -11 0 -25 6 -31 14 -12 14 3 31 55 62 13 8 15 14 7 29 -10 17 -11 17
-18 -3 -7 -24 -43 -46 -93 -57 l-32 -7 12 29 c23 54 49 83 73 83 29 0 41 16
25 35 -9 11 -8 20 7 39 22 31 25 31 48 6 27 -30 52 -25 60 11 4 19 3 35 -5 42
-9 9 -10 5 -5 -18 l7 -30 -19 23 c-13 16 -22 19 -29 12 -8 -8 -13 -7 -18 5 -3
9 -2 14 3 11 5 -3 39 14 76 39 36 25 73 45 81 45 9 0 13 4 10 9 -4 5 0 12 6
14 7 3 -1 6 -19 6 -17 1 -35 -4 -39 -11 -4 -7 -3 -8 4 -4 7 4 12 2 12 -3 0 -6
-7 -11 -17 -11 -9 0 -31 -11 -50 -26 -18 -14 -33 -23 -33 -20 0 4 -10 -4 -22
-16 -13 -13 -22 -26 -20 -30 1 -5 -2 -8 -7 -8 -5 0 -23 -14 -40 -31 -30 -30
-39 -53 -23 -62 4 -2 2 -2 -5 -1 -12 3 -87 -76 -79 -83 2 -3 -5 -29 -15 -59
-11 -30 -17 -59 -14 -64 3 -5 1 -19 -4 -32 -26 -69 -33 -107 -33 -188 -1 -72
-4 -88 -14 -79 -7 6 -10 18 -7 27 4 15 3 15 -6 2 -10 -13 -12 -13 -21 0 -5 8
-10 11 -10 6 0 -5 -8 -3 -17 5 -10 8 -31 21 -48 28 -16 7 -38 17 -47 22 -10 5
-18 5 -18 0 0 -4 21 -16 48 -26 56 -22 129 -93 156 -153 10 -23 23 -42 28 -42
4 0 8 -6 8 -14 0 -8 7 -16 15 -20 8 -3 15 -1 15 4 0 5 8 7 18 4 16 -5 16 -5
-1 6 -9 6 -21 9 -26 5 -5 -3 -13 5 -17 17 -4 13 -12 26 -18 31 -8 5 -7 10 3
16 16 10 5 35 -14 28 -9 -4 -13 13 -14 64 l-2 69 46 -31 c31 -21 44 -36 41
-46 -3 -8 -6 -21 -6 -28 0 -8 -8 -12 -20 -10 -22 4 -25 -2 -10 -25 6 -9 5 -17
-2 -21 -16 -10 0 -29 20 -22 27 11 44 32 36 44 -4 7 -3 9 3 6 6 -4 9 11 9 36
-1 35 3 43 25 54 29 14 43 39 59 100 7 29 17 44 33 49 21 7 21 7 2 14 -31 11
-66 -17 -59 -47 8 -31 -22 -101 -47 -108 -22 -7 -109 33 -117 53 -2 7 1 47 8
87 14 83 5 78 98 55 17 -5 32 -5 32 0 0 5 13 11 29 15 16 3 35 13 41 21 16 18
30 9 30 -20 0 -22 -3 -23 -47 -20 -36 3 -43 2 -28 -5 31 -15 91 -13 104 3 8
10 9 16 1 21 -5 3 -10 15 -10 26 0 14 7 19 28 19 15 0 33 5 40 12 7 7 31 11
55 9 l42 -2 -34 28 -33 29 70 67 c72 70 132 167 132 212 0 25 -55 94 -126 157
-96 85 -343 227 -396 228 -20 0 -24 16 -6 22 8 3 6 7 -5 11 -10 4 -16 2 -14
-5z m99 -720 c2 -16 13 -25 40 -33 23 -6 35 -14 30 -21 -12 -19 -65 -25 -108
-12 -39 13 -40 14 -32 45 5 21 16 33 31 36 12 2 25 5 29 6 4 0 8 -9 10 -21z
m-37 -407 c3 -5 2 -12 -3 -15 -5 -3 -9 1 -9 9 0 17 3 19 12 6z"/>
<path d="M1660 2146 c0 -8 61 -12 66 -4 3 4 -11 8 -30 8 -20 0 -36 -2 -36 -4z"/>
<path d="M2314 2914 c3 -7 0 -15 -7 -18 -7 -2 -2 -8 11 -11 12 -4 22 -12 22
-17 0 -6 7 -8 15 -4 11 4 15 -1 15 -17 0 -16 13 -32 47 -53 25 -16 50 -29 55
-29 5 0 12 -5 16 -11 4 -7 18 -14 32 -15 14 -2 25 -11 26 -19 1 -8 2 -25 2
-37 1 -13 6 -23 10 -23 7 0 12 19 15 63 1 9 8 17 17 17 11 1 9 6 -8 20 -22 18
-22 20 -6 39 16 19 18 19 30 3 12 -15 13 -15 14 6 0 19 4 22 21 17 13 -5 25
-2 30 6 6 10 13 10 34 1 35 -16 52 -15 52 4 0 10 -7 14 -19 11 -22 -6 -35 12
-17 24 10 6 1 9 -26 11 -22 1 -56 3 -75 3 -19 1 -43 6 -52 10 -11 4 -18 3 -18
-4 0 -7 -9 -9 -22 -6 -19 4 -26 -2 -39 -30 -9 -19 -12 -35 -7 -35 5 0 11 7 14
15 4 10 16 14 33 13 15 -2 25 2 24 9 -2 7 9 5 30 -5 l32 -17 -32 -3 c-26 -3
-32 -7 -30 -24 1 -11 -6 -25 -15 -31 -22 -15 -93 3 -94 23 -2 35 -5 41 -14 35
-10 -6 -103 79 -95 87 3 3 -2 5 -10 5 -9 0 -14 -6 -11 -13z m330 -55 c-7 -12
-41 -12 -48 0 -4 5 0 11 6 14 19 6 49 -4 42 -14z"/>
<path d="M104 2912 c4 -7 2 -12 -3 -12 -7 0 -10 -23 -10 -57 l2 -58 6 50 c4
28 10 55 14 62 4 6 2 15 -4 19 -8 4 -9 3 -5 -4z"/>
<path d="M1339 2905 c-24 -8 -29 -14 -19 -20 10 -6 9 -11 -5 -22 -11 -7 -14
-13 -8 -13 6 0 16 7 23 15 7 8 20 15 30 15 9 0 25 9 35 19 16 19 16 20 -3 18
-11 0 -34 -6 -53 -12z"/>
<path d="M1178 2883 c6 -2 18 -2 25 0 6 3 1 5 -13 5 -14 0 -19 -2 -12 -5z"/>
<path d="M1236 2864 c-5 -13 -3 -14 6 -7 7 6 20 13 28 16 10 4 8 6 -6 6 -12 1
-25 -6 -28 -15z"/>
<path d="M61 2834 c0 -11 3 -14 6 -6 3 7 2 16 -1 19 -3 4 -6 -2 -5 -13z"/>
<path d="M1665 2840 c-3 -5 -1 -10 4 -10 6 0 11 5 11 10 0 6 -2 10 -4 10 -3 0
-8 -4 -11 -10z"/>
<path d="M2183 2844 c3 -4 0 -13 -8 -21 -18 -17 -19 -33 -4 -33 5 0 7 5 4 10
-9 15 12 12 28 -5 8 -8 17 -12 19 -9 3 2 18 -2 34 -10 29 -16 49 -12 24 4 -12
8 -12 10 -1 10 11 0 11 3 1 15 -7 8 -23 15 -36 15 -12 0 -29 7 -38 15 -8 8
-18 15 -22 15 -4 0 -5 -3 -1 -6z"/>
<path d="M1035 2830 c-4 -6 3 -10 14 -10 25 0 27 6 6 13 -8 4 -17 2 -20 -3z"/>
<path d="M2070 2830 c0 -5 5 -10 10 -10 6 0 10 5 10 10 0 6 -4 10 -10 10 -5 0
-10 -4 -10 -10z"/>
<path d="M2773 2827 c5 -17 60 -32 65 -19 7 22 2 26 -33 28 -22 1 -34 -3 -32
-9z"/>
<path d="M1091 2812 c8 -12 16 -17 20 -11 3 6 11 4 19 -5 7 -9 16 -14 20 -11
4 2 15 -4 25 -15 10 -11 23 -20 29 -20 15 0 -66 70 -81 70 -6 0 -19 3 -28 6
-15 6 -15 4 -4 -14z"/>
<path d="M2117 2795 c23 -32 34 -32 20 0 -7 14 -18 25 -25 25 -9 0 -8 -7 5
-25z"/>
<path d="M66 2795 c-9 -26 -7 -32 5 -12 6 10 9 21 6 23 -2 3 -7 -2 -11 -11z"/>
<path d="M2850 2790 c0 -5 7 -10 16 -10 8 0 12 5 9 10 -3 6 -10 10 -16 10 -5
0 -9 -4 -9 -10z"/>
<path d="M765 2758 c-4 -10 -18 -18 -31 -18 -14 0 -24 -6 -24 -14 0 -8 -6 -17
-12 -19 -10 -4 -10 -6 0 -6 7 -1 20 6 29 15 9 8 22 13 29 10 8 -3 24 -1 36 4
17 6 18 9 6 9 -9 1 -18 9 -21 19 -4 16 -4 16 -12 0z"/>
<path d="M1788 2763 c12 -2 20 -9 17 -14 -4 -5 -2 -9 3 -9 6 0 12 6 15 13 3 9
-5 13 -27 14 -20 0 -23 -1 -8 -4z"/>
<path d="M448 2753 c6 -2 18 -2 25 0 6 3 1 5 -13 5 -14 0 -19 -2 -12 -5z"/>
<path d="M558 2753 c7 -3 16 -2 19 1 4 3 -2 6 -13 5 -11 0 -14 -3 -6 -6z"/>
<path d="M2300 2751 c0 -9 30 -24 36 -18 2 1 -6 8 -16 15 -11 7 -20 8 -20 3z"/>
<path d="M1016 2721 c-4 -7 -5 -15 -2 -18 9 -9 19 4 14 18 -4 11 -6 11 -12 0z"/>
<path d="M1856 2721 c-17 -7 -18 -8 -3 -14 9 -3 19 -2 22 3 3 5 13 7 23 4 14
-5 15 -4 2 5 -17 12 -18 12 -44 2z"/>
<path d="M2006 2721 c-18 -7 -18 -8 -2 -14 10 -4 33 -7 51 -7 18 0 36 -6 39
-12 3 -7 4 -2 3 12 -2 20 -8 24 -37 26 -19 1 -44 -1 -54 -5z"/>
<path d="M2510 2704 c0 -8 5 -12 10 -9 6 3 10 10 10 16 0 5 -4 9 -10 9 -5 0
-10 -7 -10 -16z"/>
<path d="M309 2673 c-6 -61 4 -128 20 -131 10 -2 12 1 5 10 -6 7 -9 46 -8 86
3 74 -11 102 -17 35z"/>
<path d="M1156 2702 c-3 -5 -1 -14 5 -22 6 -11 9 -12 9 -2 0 7 5 10 10 7 6 -3
10 -2 10 3 0 13 -28 23 -34 14z"/>
<path d="M2714 2700 c-12 -5 -29 -19 -37 -31 -14 -19 -25 -22 -84 -21 -52 1
-62 -1 -40 -8 16 -5 34 -13 40 -18 21 -17 87 -19 87 -2 0 5 -6 7 -14 4 -8 -3
-17 0 -21 6 -5 8 3 10 26 8 29 -3 34 -6 32 -28 -3 -25 -3 -25 7 -2 10 23 33
32 24 8 -6 -15 52 -40 61 -26 3 5 -5 10 -17 12 -12 2 -23 8 -25 14 -3 8 6 9
29 4 18 -3 32 -12 31 -18 -2 -6 6 -16 18 -22 17 -10 20 -9 17 7 -1 10 1 19 6
20 15 3 25 27 14 34 -6 4 -36 5 -68 2 -53 -5 -57 -4 -63 18 -3 13 -1 26 4 30
18 11 -4 17 -27 9z"/>
<path d="M639 2668 c-7 -16 -22 -36 -35 -45 -21 -13 -24 -50 -3 -37 5 3 7 10
4 15 -4 5 -2 9 3 9 14 0 52 36 52 49 0 6 9 11 21 11 24 0 17 15 -10 23 -15 3
-23 -3 -32 -25z"/>
<path d="M1050 2696 c0 -2 7 -7 16 -10 8 -3 12 -2 9 4 -6 10 -25 14 -25 6z"/>
<path d="M2332 2688 c6 -16 68 -23 68 -8 0 6 -4 9 -9 5 -5 -3 -12 -1 -16 5 -9
15 -47 13 -43 -2z"/>
<path d="M2160 2679 c0 -15 59 -69 75 -69 8 0 15 -4 15 -10 0 -5 7 -10 15 -10
8 0 15 6 15 13 0 17 -44 42 -58 33 -6 -3 -8 2 -5 13 3 14 -3 21 -26 29 -20 7
-31 7 -31 1z"/>
<path d="M806 2659 c-30 -24 -35 -45 -6 -27 10 7 17 14 15 17 -3 2 3 10 13 17
9 7 14 14 11 14 -4 0 -18 -9 -33 -21z"/>
<path d="M479 2610 c-1 -36 -1 -95 1 -132 1 -51 -1 -68 -11 -69 -8 -1 2 -5 21
-9 19 -5 46 -11 60 -15 14 -4 48 -11 75 -15 28 -5 68 -16 91 -24 22 -8 52 -13
67 -12 15 2 27 0 27 -5 0 -5 7 -6 15 -3 8 4 15 10 15 14 0 9 -42 24 -78 28 -7
1 -10 7 -6 14 5 7 3 8 -6 3 -24 -15 -83 -6 -107 16 -13 13 -23 17 -23 10 0 -8
-7 -10 -22 -5 -13 4 -32 7 -42 6 -10 0 -28 6 -40 14 -18 12 -21 25 -22 97 -1
45 2 84 6 87 5 3 2 19 -5 35 -13 29 -13 28 -16 -35z"/>
<path d="M2435 2660 c3 -5 13 -10 22 -10 9 0 22 -8 30 -17 8 -10 12 -13 9 -6
-4 6 0 13 6 16 21 7 1 19 -37 24 -24 2 -34 0 -30 -7z"/>
<path d="M751 2611 c-8 -5 -9 -11 -3 -15 5 -3 12 1 16 9 6 17 6 18 -13 6z"/>
<path d="M826 2602 c-2 -4 4 -9 15 -9 10 -1 19 2 19 8 0 11 -27 12 -34 1z"/>
<path d="M1008 2603 c7 -3 16 -2 19 1 4 3 -2 6 -13 5 -11 0 -14 -3 -6 -6z"/>
<path d="M1040 2580 c0 -5 5 -10 11 -10 5 0 7 5 4 10 -3 6 -8 10 -11 10 -2 0
-4 -4 -4 -10z"/>
<path d="M2049 2583 c-1 -5 -1 -11 0 -15 0 -5 -4 -8 -10 -8 -5 0 -7 -4 -4 -10
3 -5 14 -10 23 -10 11 0 13 3 6 8 -6 4 -10 15 -8 25 1 9 0 17 -2 17 -2 0 -5
-3 -5 -7z"/>
<path d="M716 2569 c2 -4 -4 -10 -14 -14 -16 -6 -16 -7 1 -17 10 -5 19 -8 20
-6 1 1 7 13 14 25 11 19 10 22 -7 20 -10 -1 -17 -4 -14 -8z"/>
<path d="M2556 2571 c-3 -5 1 -11 9 -15 8 -3 15 -1 15 4 0 13 -18 22 -24 11z"/>
<path d="M843 2564 c3 -4 1 -16 -5 -28 -10 -19 -10 -20 5 -7 19 16 23 41 5 41
-6 0 -8 -3 -5 -6z"/>
<path d="M2458 2562 c-19 -4 -25 -22 -7 -22 5 0 8 -4 5 -8 -2 -4 9 -9 27 -10
17 -2 37 -8 45 -14 8 -7 20 -13 28 -14 7 -1 32 -5 54 -9 24 -4 40 -3 40 3 0
14 38 22 44 8 2 -6 5 -3 5 7 1 14 6 17 24 11 12 -3 27 -11 34 -16 8 -7 10 -3
6 12 -5 18 -2 21 13 18 10 -2 18 -11 18 -20 -1 -12 9 -16 47 -17 39 0 47 2 43
14 -4 8 -18 15 -33 15 -15 0 -36 7 -47 15 -23 18 -56 19 -72 3 -9 -9 -12 -9
-12 0 0 7 -7 12 -16 12 -8 0 -13 -4 -9 -9 10 -18 -16 -23 -34 -7 -23 21 -37
21 -20 0 11 -14 9 -15 -27 -8 -21 4 -45 7 -51 7 -7 0 -13 4 -13 8 0 4 -7 10
-16 13 -8 3 -12 2 -9 -4 9 -14 -7 -12 -30 3 -11 7 -28 12 -37 9z m152 -54 c0
-4 -7 -8 -15 -8 -8 0 -15 4 -15 8 0 5 7 9 15 9 8 0 15 -4 15 -9z"/>
<path d="M661 2534 c0 -11 3 -14 6 -6 3 7 2 16 -1 19 -3 4 -6 -2 -5 -13z"/>
<path d="M790 2540 c-9 -6 -10 -10 -3 -10 6 0 15 5 18 10 8 12 4 12 -15 0z"/>
<path d="M306 2521 c-5 -7 -8 -64 -7 -125 3 -139 3 -136 12 -136 8 0 2 207 -7
221 -3 5 0 9 5 9 6 0 11 -5 11 -12 0 -6 2 -9 5 -7 2 3 1 18 -3 34 -6 21 -11
25 -16 16z"/>
<path d="M769 2503 c-11 -15 -11 -16 1 -5 17 14 34 16 25 2 -3 -5 -2 -10 3
-10 6 0 12 7 16 15 8 21 -28 19 -45 -2z"/>
<path d="M1925 2510 c3 -5 8 -10 11 -10 2 0 4 5 4 10 0 6 -5 10 -11 10 -5 0
-7 -4 -4 -10z"/>
<path d="M2188 2514 c6 -3 10 -10 6 -15 -3 -5 -4 -9 -2 -9 88 -11 85 -11 58 4
-14 7 -36 16 -50 20 -14 3 -19 3 -12 0z"/>
<path d="M2993 2455 c0 -38 2 -53 4 -32 2 20 2 52 0 70 -2 17 -4 1 -4 -38z"/>
<path d="M635 2500 c-16 -7 -12 -8 17 -8 21 1 35 5 32 10 -6 10 -22 9 -49 -2z"/>
<path d="M88 2430 c-3 -30 -2 -64 3 -75 7 -17 8 -15 9 10 0 17 4 37 10 45 5 8
5 19 1 25 -5 5 -11 19 -13 30 -2 11 -7 -5 -10 -35z"/>
<path d="M618 2473 c7 -3 16 -2 19 1 4 3 -2 6 -13 5 -11 0 -14 -3 -6 -6z"/>
<path d="M772 2460 c0 -14 2 -19 5 -12 2 6 2 18 0 25 -3 6 -5 1 -5 -13z"/>
<path d="M2690 2460 c0 -6 7 -10 15 -10 8 0 15 2 15 4 0 2 -7 6 -15 10 -8 3
-15 1 -15 -4z"/>
<path d="M2626 2451 c-4 -6 -1 -11 6 -11 9 0 9 -3 -2 -10 -9 -6 -10 -10 -3
-10 17 0 27 20 15 32 -6 6 -12 6 -16 -1z"/>
<path d="M2743 2446 c7 -18 -22 -29 -49 -19 -18 7 -18 6 -1 -11 11 -12 15 -25
11 -39 -5 -16 -3 -19 10 -14 14 6 16 3 11 -13 -4 -11 -2 -20 4 -20 6 0 11 -7
11 -15 0 -17 9 -19 30 -5 13 8 12 11 -5 25 -11 9 -13 13 -5 9 12 -6 13 -5 3 7
-9 12 -10 24 -1 52 6 20 15 37 20 37 5 0 6 5 3 10 -10 16 -48 12 -42 -4z"/>
<path d="M196 2423 c-6 -14 -5 -15 5 -6 7 7 10 15 7 18 -3 3 -9 -2 -12 -12z"/>
<path d="M3 2395 c0 -22 2 -30 4 -17 2 12 2 30 0 40 -3 9 -5 -1 -4 -23z"/>
<path d="M745 2420 c3 -5 10 -10 16 -10 5 0 9 5 9 10 0 6 -7 10 -16 10 -8 0
-12 -4 -9 -10z"/>
<path d="M1780 2374 c6 -27 5 -37 -6 -41 -8 -3 -11 -9 -8 -14 3 -5 18 3 33 18
l28 28 -24 23 c-13 12 -26 22 -27 22 -2 0 0 -16 4 -36z"/>
<path d="M187 2370 c-15 -25 -16 -29 -3 -24 9 3 14 10 11 14 -3 5 0 10 6 12 7
2 10 10 8 16 -2 7 -12 0 -22 -18z"/>
<path d="M415 2381 c-11 -5 -24 -6 -30 -3 -5 3 -4 -2 4 -11 7 -9 10 -17 5 -17
-5 0 -3 -4 5 -9 12 -8 13 -12 1 -25 -11 -14 -10 -16 4 -10 9 3 16 14 16 24 0
10 7 25 15 34 26 25 18 32 -20 17z"/>
<path d="M2994 2290 c0 -52 1 -74 3 -47 2 26 2 68 0 95 -2 26 -3 4 -3 -48z"/>
<path d="M1878 2344 c-12 -11 5 -44 23 -44 16 0 39 26 39 44 0 8 -55 8 -62 0z"/>
<path d="M1 2324 c0 -11 3 -14 6 -6 3 7 2 16 -1 19 -3 4 -6 -2 -5 -13z"/>
<path d="M1815 2299 c4 -26 1 -47 -7 -57 -11 -13 -10 -14 9 -3 19 10 22 9 17
-4 -4 -8 -1 -15 5 -15 14 0 14 2 -5 66 -18 64 -26 69 -19 13z"/>
<path d="M2152 2329 c2 -7 12 -13 22 -15 21 -3 35 -14 18 -14 -7 0 -12 -4 -12
-10 0 -16 27 -12 34 5 3 8 13 15 23 15 17 1 17 1 -1 12 -30 17 -89 22 -84 7z"/>
<path d="M195 2320 c-3 -5 -1 -10 4 -10 6 0 11 5 11 10 0 6 -2 10 -4 10 -3 0
-8 -4 -11 -10z"/>
<path d="M2052 2298 c-19 -19 -14 -31 9 -25 15 4 19 2 15 -8 -3 -9 0 -12 8 -9
11 4 11 10 2 30 -13 27 -17 29 -34 12z"/>
<path d="M2220 2290 c0 -5 7 -7 15 -4 8 4 15 8 15 10 0 2 -7 4 -15 4 -8 0 -15
-4 -15 -10z"/>
<path d="M1022 2256 c-7 -18 -12 -41 -12 -53 0 -14 -16 -28 -55 -48 -30 -15
-55 -31 -55 -35 0 -4 -31 -19 -69 -35 -39 -15 -89 -45 -113 -66 -24 -21 -52
-41 -62 -45 -35 -12 -106 -61 -137 -95 -35 -39 -65 -101 -75 -156 -9 -47 -45
-106 -151 -250 -46 -62 -83 -117 -83 -123 0 -6 -5 -8 -12 -4 -8 5 -9 2 -5 -9
4 -11 1 -17 -9 -17 -8 0 -13 -4 -9 -10 10 -16 33 0 57 38 12 21 27 42 33 49 5
7 29 38 53 70 23 32 57 78 76 103 18 25 39 44 46 42 8 -2 10 3 6 14 -7 19 2
56 13 50 4 -3 7 3 8 12 4 56 16 97 40 135 29 44 77 97 88 97 3 0 22 12 41 26
19 15 34 23 34 18 0 -4 17 8 38 28 41 40 127 83 144 72 7 -4 8 -3 4 4 -4 7 2
16 16 21 13 5 36 21 52 35 16 14 33 23 38 20 5 -3 16 0 25 8 10 8 14 8 10 1
-4 -6 -2 -15 4 -19 8 -4 9 -3 5 4 -4 7 -2 12 4 12 6 0 9 4 5 9 -3 5 -1 12 4
15 8 5 21 49 26 89 3 31 -11 27 -23 -7z m-606 -634 c-17 -16 -18 -16 -5 5 7
12 15 20 18 17 3 -2 -3 -12 -13 -22z"/>
<path d="M1890 2266 c0 -8 4 -17 9 -20 5 -4 7 3 4 14 -6 23 -13 26 -13 6z"/>
<path d="M2298 2273 c6 -2 12 -11 12 -19 0 -8 5 -14 10 -14 7 0 7 6 0 20 -6
11 -16 20 -23 19 -9 0 -9 -2 1 -6z"/>
<path d="M2550 2271 c0 -4 11 -18 25 -31 14 -13 25 -34 25 -46 0 -19 -7 -23
-47 -29 -33 -4 -62 -1 -92 9 -57 21 -70 20 -64 -2 3 -14 12 -17 39 -14 22 3
34 0 34 -8 0 -7 7 -10 15 -6 20 7 19 -8 -1 -25 -9 -7 -18 -9 -22 -3 -4 5 -16
11 -27 12 -11 2 -24 7 -30 11 -5 3 -19 6 -30 5 -84 -5 -81 -4 -62 -15 11 -6
33 -9 50 -6 18 2 43 -1 57 -8 14 -7 41 -16 60 -20 31 -7 33 -6 21 9 -12 14 -9
18 22 31 49 20 80 19 102 -5 10 -11 20 -18 23 -15 3 3 -3 15 -14 27 -16 18
-17 21 -2 15 12 -4 15 -2 11 9 -3 8 -8 12 -11 9 -3 -3 -11 7 -17 22 -10 23 -9
29 4 35 14 6 14 7 -1 7 -10 1 -18 8 -18 16 0 8 -3 15 -7 16 -5 0 -16 2 -25 4
-10 2 -18 0 -18 -4z"/>
<path d="M316 2233 c-6 -14 -5 -15 5 -6 7 7 10 15 7 18 -3 3 -9 -2 -12 -12z"/>
<path d="M443 2231 c1 -9 7 -22 11 -30 8 -12 11 -12 20 2 10 13 20 14 61 5 28
-5 62 -10 77 -10 15 1 32 -6 38 -13 8 -9 23 -12 43 -9 26 5 29 3 17 -6 -12
-10 -12 -11 5 -5 11 4 31 7 44 6 19 -1 21 1 11 14 -8 10 -23 13 -51 9 -26 -4
-39 -2 -39 6 0 6 -6 10 -12 9 -7 -1 -20 0 -28 3 -47 16 -120 32 -157 33 -33 1
-42 -2 -40 -14z"/>
<path d="M2097 2211 c18 -18 32 -37 30 -43 -1 -5 8 -14 21 -19 12 -4 22 -5 22
0 0 4 13 8 30 8 16 0 27 -4 24 -9 -9 -14 14 -9 30 8 9 8 20 12 26 9 5 -3 10
-2 10 4 0 6 18 5 47 -4 46 -14 66 -13 47 3 -5 5 -28 14 -51 21 -35 9 -52 9
-103 -6 -60 -16 -61 -16 -83 5 l-21 22 33 0 c39 0 33 14 -7 17 -15 1 -40 5
-57 9 l-30 7 32 -32z"/>
<path d="M2834 2199 c-4 -7 -24 -9 -50 -6 -38 4 -42 2 -34 -12 6 -13 2 -20
-21 -30 -16 -7 -29 -17 -29 -21 0 -12 44 -3 48 10 2 5 8 10 13 10 6 0 7 -4 4
-10 -4 -6 1 -7 11 -3 13 5 15 3 9 -7 -5 -8 -4 -11 3 -6 13 8 5 36 -10 36 -5 0
-6 5 -3 10 4 6 12 7 18 3 18 -11 36 -12 43 -2 7 11 64 -18 64 -32 0 -6 7 -8
16 -5 9 4 22 2 29 -4 7 -6 19 -9 26 -8 10 2 16 -12 20 -42 l6 -45 1 50 2 50
-52 24 c-29 14 -65 31 -80 38 -19 9 -29 10 -34 2z"/>
<path d="M2260 2140 c0 -5 7 -10 16 -10 8 0 12 5 9 10 -3 6 -10 10 -16 10 -5
0 -9 -4 -9 -10z"/>
<path d="M1905 2120 c-16 -7 -17 -9 -3 -9 9 -1 18 -4 21 -8 2 -5 2 -2 1 5 -2
6 3 12 11 12 9 0 12 -6 9 -15 -4 -9 0 -15 9 -15 9 0 24 -11 35 -25 17 -22 28
-25 96 -27 55 -1 76 -6 76 -15 0 -7 8 -13 18 -13 14 0 15 2 2 10 -12 8 -10 10
8 10 13 0 21 -4 18 -9 -4 -5 23 -11 59 -13 36 -1 65 0 65 5 0 4 -4 7 -10 7 -5
0 -10 7 -10 15 0 13 -21 15 -129 15 -139 0 -161 4 -161 27 0 9 -6 13 -15 9 -8
-3 -15 -1 -15 4 0 11 45 24 73 22 9 0 15 3 12 9 -9 14 -49 11 -71 -6 -24 -18
-34 -19 -34 -2 0 15 -36 19 -65 7z"/>
<path d="M2090 2106 c0 -21 48 -32 63 -16 9 10 8 12 -4 7 -9 -3 -26 1 -38 9
-19 13 -21 13 -21 0z"/>
<path d="M2672 2083 c2 -10 -1 -18 -7 -18 -5 0 -14 -3 -20 -6 -5 -4 -36 -3
-67 0 -56 7 -80 -1 -38 -12 16 -4 18 -10 12 -28 -14 -36 -42 -39 -105 -13 -40
16 -65 20 -80 15 -19 -7 -17 -9 16 -15 23 -4 35 -11 31 -18 -4 -6 1 -8 14 -4
11 4 23 2 26 -3 4 -6 14 -7 23 -4 11 5 14 3 8 -6 -6 -10 -3 -11 14 -2 14 8 21
8 21 1 0 -5 7 -10 15 -10 8 0 15 5 15 12 0 6 10 22 22 35 15 16 17 23 7 23
-12 0 -11 2 1 10 23 15 30 12 30 -11 0 -12 -8 -23 -19 -26 -19 -5 -37 -43 -20
-43 5 0 9 4 9 10 0 5 11 12 25 16 14 3 23 10 20 14 -9 15 43 60 61 53 12 -4
15 -3 10 5 -4 8 0 12 10 12 16 0 16 1 -2 15 -25 19 -35 19 -32 -2z"/>
<path d="M1624 2071 c3 -4 26 -14 52 -21 l47 -13 -6 -61 c-4 -38 -2 -54 3 -41
5 11 9 37 9 57 1 20 6 40 12 44 7 4 -14 15 -47 25 -67 21 -77 23 -70 10z"/>
<path d="M2216 2072 c-3 -5 1 -9 9 -9 8 0 12 4 9 9 -3 4 -7 8 -9 8 -2 0 -6 -4
-9 -8z"/>
<path d="M2260 2072 c0 -4 11 -8 24 -8 14 0 22 4 20 8 -3 4 -14 8 -25 8 -10 0
-19 -4 -19 -8z"/>
<path d="M2391 2064 c0 -11 3 -14 6 -6 3 7 2 16 -1 19 -3 4 -6 -2 -5 -13z"/>
<path d="M2740 2060 c0 -6 7 -10 15 -10 8 0 15 2 15 4 0 2 -7 6 -15 10 -8 3
-15 1 -15 -4z"/>
<path d="M361 2044 c0 -11 3 -14 6 -6 3 7 2 16 -1 19 -3 4 -6 -2 -5 -13z"/>
<path d="M2836 1998 c-16 -15 -32 -25 -36 -23 -3 2 -6 -5 -6 -16 0 -27 10 -24
45 14 24 25 39 32 70 33 22 0 38 -3 35 -8 -9 -14 6 -48 21 -48 10 0 11 7 2 35
-8 28 -16 35 -36 36 -14 1 -35 2 -46 3 -11 1 -33 -10 -49 -26z"/>
<path d="M2670 2009 c0 -5 -4 -7 -10 -4 -5 3 -10 2 -10 -2 0 -13 40 -34 50
-28 17 10 11 28 -6 21 -12 -4 -15 -2 -10 9 3 8 1 15 -4 15 -6 0 -10 -5 -10
-11z"/>
<path d="M2992 1995 c0 -16 2 -22 5 -12 2 9 2 23 0 30 -3 6 -5 -1 -5 -18z"/>
<path d="M332 1995 c-7 -8 -10 -27 -8 -41 7 -39 16 -42 16 -6 0 17 5 34 10 37
12 7 13 25 3 25 -5 -1 -14 -7 -21 -15z"/>
<path d="M2750 2000 c-8 -5 -12 -12 -9 -15 4 -3 12 1 19 10 14 17 11 19 -10 5z"/>
<path d="M2704 1945 c-4 -8 -12 -15 -20 -15 -8 0 -14 -4 -14 -10 0 -18 39 -11
50 9 13 25 13 31 0 31 -6 0 -13 -7 -16 -15z"/>
<path d="M21 1934 c0 -11 3 -14 6 -6 3 7 2 16 -1 19 -3 4 -6 -2 -5 -13z"/>
<path d="M2988 1858 c-2 -51 0 -100 4 -108 4 -8 8 33 8 93 0 59 -2 107 -4 107
-3 0 -6 -42 -8 -92z"/>
<path d="M221 1924 c0 -11 3 -14 6 -6 3 7 2 16 -1 19 -3 4 -6 -2 -5 -13z"/>
<path d="M2456 1933 c-11 -12 -6 -19 14 -20 11 -1 20 2 20 7 0 10 -26 20 -34
13z"/>
<path d="M2949 1938 c-1 -2 -3 -14 -4 -27 -2 -23 -2 -24 11 -6 16 22 18 35 4
35 -5 0 -11 -1 -11 -2z"/>
<path d="M2718 1886 c-3 -14 -1 -31 3 -38 6 -8 9 1 9 25 0 42 -6 48 -12 13z"/>
<path d="M218 1893 c7 -3 16 -2 19 1 4 3 -2 6 -13 5 -11 0 -14 -3 -6 -6z"/>
<path d="M2384 1883 c-4 -14 -14 -23 -25 -23 -11 0 -19 -7 -19 -16 0 -8 5 -12
11 -9 6 4 13 -2 16 -14 3 -12 13 -21 25 -21 15 0 17 3 8 19 -5 11 -10 28 -10
38 0 16 2 16 21 -3 29 -29 18 -74 -17 -68 -13 2 -24 0 -24 -6 0 -5 14 -10 30
-10 17 0 30 -4 30 -10 0 -6 -18 -7 -45 -3 -31 4 -45 2 -45 -6 0 -7 22 -11 60
-11 63 0 66 3 50 44 -6 16 -6 27 0 31 12 7 10 64 -2 71 -4 3 -8 1 -8 -4 0 -22
-31 -21 -40 1 l-9 22 -7 -22z"/>
<path d="M1330 1878 c0 -5 10 -8 23 -9 45 -1 76 -8 104 -22 35 -19 84 -67 78
-77 -3 -4 1 -13 9 -19 8 -7 22 -41 32 -77 9 -36 21 -67 25 -70 16 -9 20 18 7
39 -8 12 -19 40 -26 62 -6 22 -22 56 -34 75 -12 19 -22 39 -23 44 0 5 -9 14
-20 20 -11 6 -23 16 -27 21 -4 6 -8 7 -8 3 0 -4 -18 -1 -40 7 -41 15 -100 16
-100 3z"/>
<path d="M1867 1883 c-4 -6 2 -20 12 -32 12 -13 17 -30 13 -43 -4 -17 -2 -20
11 -15 9 3 19 2 22 -3 8 -13 -17 -50 -35 -51 -10 0 -8 -3 5 -8 13 -5 23 -4 27
4 5 7 19 10 35 7 27 -5 28 -4 11 15 -10 11 -18 29 -18 41 0 12 -4 22 -10 22
-5 0 -10 7 -10 15 0 8 5 15 10 15 6 0 10 4 10 9 0 4 -11 6 -25 3 -18 -3 -30 1
-39 13 -8 11 -15 14 -19 8z"/>
<path d="M201 1864 c0 -11 3 -14 6 -6 3 7 2 16 -1 19 -3 4 -6 -2 -5 -13z"/>
<path d="M2948 1874 c-5 -4 -8 -16 -8 -28 0 -14 3 -17 11 -9 6 6 9 19 7 28 -1
9 -6 13 -10 9z"/>
<path d="M2821 1860 c0 -8 4 -23 7 -33 6 -15 9 -13 19 13 6 16 7 30 2 30 -5 0
-9 -6 -9 -12 0 -9 -4 -8 -10 2 -9 13 -10 13 -9 0z"/>
<path d="M1270 1849 c0 -5 5 -7 10 -4 6 3 10 8 10 11 0 2 -4 4 -10 4 -5 0 -10
-5 -10 -11z"/>
<path d="M1333 1843 c-20 -8 -15 -23 7 -23 11 0 20 7 20 15 0 15 -6 17 -27 8z"/>
<path d="M2229 1812 c9 -7 10 -11 2 -15 -7 -4 -8 -5 0 -3 15 2 13 20 -3 24
-10 3 -10 2 1 -6z"/>
<path d="M2946 1804 c-8 -22 -7 -52 2 -58 4 -2 8 13 8 35 1 43 -1 47 -10 23z"/>
<path d="M180 1790 c0 -5 5 -10 10 -10 6 0 10 5 10 10 0 6 -4 10 -10 10 -5 0
-10 -4 -10 -10z"/>
<path d="M1388 1793 c7 -3 16 -2 19 1 4 3 -2 6 -13 5 -11 0 -14 -3 -6 -6z"/>
<path d="M1330 1779 c0 -4 5 -9 11 -11 5 -2 11 -11 13 -20 1 -10 6 -21 11 -25
4 -4 5 3 2 17 -4 14 -7 30 -7 36 0 6 -7 11 -15 11 -8 0 -15 -4 -15 -8z"/>
<path d="M2818 1767 c-6 -28 1 -49 13 -41 12 7 12 64 0 64 -5 0 -11 -10 -13
-23z"/>
<path d="M2106 1771 c-78 -12 -47 -26 59 -27 83 -2 102 1 92 10 -15 16 -99 25
-151 17z"/>
<path d="M2661 1767 c-6 -8 -22 -12 -36 -9 -34 6 -31 -3 7 -22 42 -22 68 -20
68 3 0 27 -24 45 -39 28z"/>
<path d="M2020 1766 c0 -2 7 -6 15 -10 8 -3 15 -1 15 4 0 6 -7 10 -15 10 -8 0
-15 -2 -15 -4z"/>
<path d="M182 1740 c0 -14 2 -19 5 -12 2 6 2 18 0 25 -3 6 -5 1 -5 -13z"/>
<path d="M375 1751 c-3 -5 -2 -12 3 -15 5 -3 9 1 9 9 0 17 -3 19 -12 6z"/>
<path d="M2581 1734 c0 -11 3 -14 6 -6 3 7 2 16 -1 19 -3 4 -6 -2 -5 -13z"/>
<path d="M1940 1728 c-6 -18 -6 -34 1 -55 7 -19 3 -24 -26 -34 l-34 -13 37
-13 c20 -7 38 -13 39 -13 1 0 0 8 -3 18 -4 13 -1 12 14 -5 11 -13 26 -23 32
-23 7 0 10 -7 6 -16 -5 -14 -1 -15 29 -10 22 4 35 3 35 -4 0 -5 7 -10 16 -10
8 0 12 -4 9 -10 -3 -5 3 -10 15 -10 19 0 20 1 6 16 -19 18 -20 25 -5 22 6 -2
13 2 16 9 6 16 -48 26 -80 14 -21 -8 -25 -7 -20 4 3 8 10 12 16 8 6 -3 7 -1 3
5 -4 7 -16 12 -27 12 -10 0 -19 6 -19 14 0 8 -10 16 -22 18 -18 2 -24 11 -29
43 -3 22 -7 37 -9 33z"/>
<path d="M1884 1702 c-9 -14 -31 -18 -119 -22 -67 -3 -110 -9 -112 -16 -3 -8
17 -12 58 -13 33 -1 65 -3 69 -6 12 -7 70 6 65 15 -2 4 7 5 20 2 18 -3 25 0
25 11 0 8 6 17 13 20 8 3 9 8 2 15 -8 8 -14 7 -21 -6z"/>
<path d="M2268 1713 c7 -3 16 -2 19 1 4 3 -2 6 -13 5 -11 0 -14 -3 -6 -6z"/>
<path d="M347 1683 c-4 -3 -7 -13 -7 -22 1 -13 3 -13 11 2 11 19 8 33 -4 20z"/>
<path d="M1620 1655 c0 -5 5 -17 10 -25 5 -8 10 -10 10 -5 0 6 -5 17 -10 25
-5 8 -10 11 -10 5z"/>
<path d="M1835 1610 c-16 -7 -14 -9 12 -7 17 0 29 5 27 9 -6 10 -13 9 -39 -2z"/>
<path d="M336 1595 c-3 -8 -13 -15 -23 -15 -14 0 -15 -2 -4 -9 9 -6 20 -2 32
10 21 21 24 29 10 29 -5 0 -11 -7 -15 -15z"/>
<path d="M1345 1600 c-3 -5 -1 -10 4 -10 6 0 11 5 11 10 0 6 -2 10 -4 10 -3 0
-8 -4 -11 -10z"/>
<path d="M1624 1589 c5 -13 13 -50 19 -81 7 -31 15 -60 20 -64 13 -13 7 86 -7
120 -17 41 -43 62 -32 25z"/>
<path d="M1758 1593 c12 -2 30 -2 40 0 9 3 -1 5 -23 4 -22 0 -30 -2 -17 -4z"/>
<path d="M2558 1593 c6 -2 18 -2 25 0 6 3 1 5 -13 5 -14 0 -19 -2 -12 -5z"/>
<path d="M1375 1580 c-3 -5 -1 -10 4 -10 6 0 11 5 11 10 0 6 -2 10 -4 10 -3 0
-8 -4 -11 -10z"/>
<path d="M1337 1550 c3 -11 7 -20 9 -20 2 0 4 9 4 20 0 11 -4 20 -9 20 -5 0
-7 -9 -4 -20z"/>
<path d="M1700 1560 c0 -5 5 -10 10 -10 6 0 10 5 10 10 0 6 -4 10 -10 10 -5 0
-10 -4 -10 -10z"/>
<path d="M2237 1559 c-9 -6 -15 -14 -12 -20 8 -12 55 -12 55 1 0 6 8 10 18 11
14 0 14 2 -3 9 -27 11 -37 11 -58 -1z"/>
<path d="M1945 1550 c-3 -5 1 -10 9 -10 9 0 16 5 16 10 0 6 -4 10 -9 10 -6 0
-13 -4 -16 -10z"/>
<path d="M2339 1547 c9 -9 161 -16 156 -6 -2 3 -23 7 -47 8 -24 1 -60 3 -80 4
-21 1 -34 -1 -29 -6z"/>
<path d="M2718 1553 c7 -3 16 -2 19 1 4 3 -2 6 -13 5 -11 0 -14 -3 -6 -6z"/>
<path d="M2985 1550 c-3 -5 -1 -10 4 -10 6 0 11 5 11 10 0 6 -2 10 -4 10 -3 0
-8 -4 -11 -10z"/>
<path d="M1604 1527 c3 -10 6 -49 7 -85 0 -56 2 -63 10 -42 13 30 4 119 -12
134 -9 8 -10 6 -5 -7z"/>
<path d="M1738 1533 c6 -2 18 -2 25 0 6 3 1 5 -13 5 -14 0 -19 -2 -12 -5z"/>
<path d="M15 1522 c6 -4 11 -19 13 -34 2 -14 12 -43 24 -65 l20 -38 -6 35 c-4
19 -8 43 -9 53 -1 9 -5 17 -9 17 -4 0 -8 9 -8 20 0 12 -7 20 -17 20 -10 0 -14
-3 -8 -8z"/>
<path d="M1235 1520 c-3 -5 -1 -10 4 -10 6 0 11 5 11 10 0 6 -2 10 -4 10 -3 0
-8 -4 -11 -10z"/>
<path d="M1906 1501 c13 -12 21 -15 26 -7 13 20 9 26 -19 26 -26 0 -26 0 -7
-19z"/>
<path d="M1285 1490 c-10 -11 -13 -20 -8 -20 13 0 38 29 31 35 -3 3 -13 -4
-23 -15z"/>
<path d="M1382 1488 c-8 -10 -2 -13 26 -14 21 -1 27 1 14 3 -12 2 -20 9 -17
14 9 14 -11 11 -23 -3z"/>
<path d="M1858 1493 c7 -3 16 -2 19 1 4 3 -2 6 -13 5 -11 0 -14 -3 -6 -6z"/>
<path d="M1944 1478 c-3 -4 11 -8 30 -8 20 0 36 2 36 4 0 8 -61 12 -66 4z"/>
<path d="M2055 1470 c3 -5 8 -10 11 -10 2 0 4 5 4 10 0 6 -5 10 -11 10 -5 0
-7 -4 -4 -10z"/>
<path d="M1214 1438 l-19 -21 30 18 c41 26 40 25 23 25 -8 0 -23 -10 -34 -22z"/>
<path d="M1306 1445 c-25 -19 -16 -19 20 0 16 8 22 15 14 15 -8 -1 -24 -7 -34
-15z"/>
<path d="M1480 1450 c0 -6 7 -10 15 -10 8 0 15 2 15 4 0 2 -7 6 -15 10 -8 3
-15 1 -15 -4z"/>
<path d="M1640 1427 c0 -9 5 -17 10 -17 7 0 10 -26 8 -69 -1 -39 -4 -68 -7
-66 -4 2 -7 -31 -7 -73 -2 -83 -9 -156 -17 -169 -3 -5 2 -27 12 -48 l18 -40 9
120 c5 66 9 170 9 232 0 94 -3 115 -17 130 -17 16 -18 16 -18 0z"/>
<path d="M1790 1436 c0 -2 7 -7 16 -10 8 -3 12 -2 9 4 -6 10 -25 14 -25 6z"/>
<path d="M2448 1433 c-24 -6 -23 -19 0 -19 10 0 19 6 19 13 0 7 -1 12 -1 12
-1 -1 -9 -3 -18 -6z"/>
<path d="M1239 1403 c-13 -15 -12 -15 9 -4 23 12 28 21 13 21 -5 0 -15 -7 -22
-17z"/>
<path d="M169 1381 c-18 -15 -21 -23 -13 -31 9 -9 17 -4 33 19 25 35 15 41
-20 12z"/>
<path d="M1710 1390 c0 -5 4 -10 9 -10 6 0 13 5 16 10 3 6 -1 10 -9 10 -9 0
-16 -4 -16 -10z"/>
<path d="M1450 1367 c-25 -12 -58 -34 -73 -49 -16 -16 -33 -28 -38 -28 -11 0
-39 -25 -39 -33 0 -3 9 -3 20 0 11 3 17 9 14 14 -3 5 3 9 12 9 30 0 134 34
134 43 0 5 -17 7 -37 3 -34 -5 -36 -5 -13 6 14 6 28 10 33 10 4 -1 6 2 5 7 -2
5 6 17 17 25 27 21 19 19 -35 -7z"/>
<path d="M1582 1350 c0 -19 2 -27 5 -17 2 9 2 25 0 35 -3 9 -5 1 -5 -18z"/>
<path d="M1545 1319 c6 -38 -7 -57 -60 -94 -16 -11 -47 -37 -69 -57 -21 -21
-46 -38 -55 -38 -15 -1 -73 -29 -60 -30 3 0 27 7 53 16 26 9 55 14 64 12 12
-4 18 1 19 14 2 23 26 48 47 48 9 0 16 5 16 11 0 6 6 9 14 6 9 -4 19 9 31 40
14 36 15 51 6 76 l-11 32 5 -36z"/>
<path d="M1295 1320 c-3 -5 -1 -10 4 -10 6 0 11 5 11 10 0 6 -2 10 -4 10 -3 0
-8 -4 -11 -10z"/>
<path d="M2241 1303 c-7 -8 -10 -17 -6 -21 3 -3 9 -2 13 4 4 6 14 13 21 16 13
4 13 5 0 10 -8 3 -20 -1 -28 -9z"/>
<path d="M1250 1288 c-12 -22 -12 -22 6 -6 10 10 15 20 12 24 -4 3 -12 -5 -18
-18z"/>
<path d="M152 1288 c-33 -42 -92 -220 -92 -280 0 -23 9 -54 20 -72 26 -42 105
-107 163 -135 26 -13 64 -43 84 -68 22 -26 56 -54 80 -64 24 -10 43 -22 43
-26 0 -4 -14 -26 -30 -47 -18 -24 -30 -52 -30 -70 0 -17 -9 -47 -19 -67 -11
-20 -23 -52 -26 -72 -6 -31 -4 -37 19 -52 26 -17 35 -49 17 -60 -5 -3 -19 -31
-31 -63 -12 -31 -29 -65 -38 -75 -15 -17 -15 -19 1 -29 16 -9 17 -12 4 -26
-20 -24 -47 -82 -38 -82 5 0 21 20 36 45 16 24 33 41 39 38 6 -4 3 2 -6 13
-20 23 -20 33 -2 59 8 11 14 27 14 37 0 9 7 24 16 32 8 9 12 16 9 16 -4 0 0
11 9 25 21 32 20 47 -5 73 -23 25 -20 77 5 114 8 11 12 26 10 33 -3 7 0 16 5
20 6 3 9 11 5 16 -3 5 6 29 20 53 30 52 50 99 37 92 -4 -3 -17 1 -27 9 -10 8
-27 15 -36 15 -22 0 -72 65 -62 81 4 7 3 9 -3 6 -6 -4 -26 3 -44 16 -77 51
-91 59 -83 46 15 -25 -84 62 -110 96 -26 34 -37 99 -22 124 4 6 10 23 12 38 3
15 9 32 15 39 5 6 7 13 4 16 -3 3 1 11 10 18 8 7 15 18 15 26 0 7 5 25 12 41
21 52 21 77 0 51z"/>
<path d="M57 1269 c7 -7 15 -10 18 -7 3 3 -2 9 -12 12 -14 6 -15 5 -6 -5z"/>
<path d="M2195 1270 c-3 -5 -19 -10 -35 -10 -16 0 -32 -5 -36 -12 -5 -8 -2 -9
10 -5 10 4 28 7 41 7 12 0 25 7 29 15 6 17 0 20 -9 5z"/>
<path d="M1413 1259 c-25 -9 -30 -19 -10 -19 15 0 43 17 37 23 -3 3 -15 1 -27
-4z"/>
<path d="M1590 1255 c0 -9 -7 -28 -16 -43 l-16 -27 21 24 c19 21 29 61 16 61
-3 0 -5 -7 -5 -15z"/>
<path d="M981 1244 c0 -11 3 -14 6 -6 3 7 2 16 -1 19 -3 4 -6 -2 -5 -13z"/>
<path d="M2080 1220 c-25 -19 -25 -19 -3 -17 12 0 25 8 28 16 8 21 2 22 -25 1z"/>
<path d="M1390 1211 c-19 -9 -37 -18 -40 -21 -3 -3 -18 -16 -35 -29 l-30 -24
32 6 c18 4 42 15 55 26 13 11 32 27 43 35 30 21 15 26 -25 7z"/>
<path d="M0 1201 c0 -5 7 -11 15 -15 8 -3 15 -1 15 3 0 5 -7 11 -15 15 -8 3
-15 1 -15 -3z"/>
<path d="M51 1194 c0 -11 3 -14 6 -6 3 7 2 16 -1 19 -3 4 -6 -2 -5 -13z"/>
<path d="M1933 1137 c-6 -7 -30 -23 -52 -36 -42 -26 -48 -38 -12 -26 12 3 19
11 15 16 -5 8 51 26 68 21 4 -1 6 7 5 18 -1 23 -7 24 -24 7z"/>
<path d="M1390 1099 c0 -5 -4 -8 -9 -4 -10 5 -88 -21 -105 -36 -11 -10 11 -5
49 10 65 27 105 18 162 -38 13 -13 27 -21 29 -18 9 9 -88 97 -107 97 -11 0
-19 -5 -19 -11z"/>
<path d="M1500 1100 c0 -5 5 -10 10 -10 6 0 10 5 10 10 0 6 -4 10 -10 10 -5 0
-10 -4 -10 -10z"/>
<path d="M1550 1100 c-3 -8 -3 -37 0 -65 3 -27 7 -43 10 -35 3 8 3 38 0 65 -3
28 -7 43 -10 35z"/>
<path d="M982 1040 c0 -14 2 -19 5 -12 2 6 2 18 0 25 -3 6 -5 1 -5 -13z"/>
<path d="M328 1033 c7 -3 16 -2 19 1 4 3 -2 6 -13 5 -11 0 -14 -3 -6 -6z"/>
<path d="M1455 1020 c3 -5 8 -10 11 -10 2 0 4 5 4 10 0 6 -5 10 -11 10 -5 0
-7 -4 -4 -10z"/>
<path d="M1308 1013 c6 -2 18 -2 25 0 6 3 1 5 -13 5 -14 0 -19 -2 -12 -5z"/>
<path d="M1710 1011 c0 -6 4 -13 10 -16 6 -3 7 1 4 9 -7 18 -14 21 -14 7z"/>
<path d="M1515 990 c3 -5 11 -10 16 -10 6 0 7 5 4 10 -3 6 -11 10 -16 10 -6 0
-7 -4 -4 -10z"/>
<path d="M1480 970 c19 -11 40 -19 45 -19 6 0 -6 8 -25 19 -19 11 -39 19 -45
19 -5 0 6 -8 25 -19z"/>
<path d="M1627 929 c21 -41 23 -53 13 -59 -11 -7 -11 -12 1 -26 10 -13 5 -12
-18 5 -18 12 -33 26 -33 31 0 5 -10 15 -22 21 -13 7 0 -13 30 -44 28 -31 52
-61 52 -66 0 -16 -20 -13 -26 4 -4 8 -10 13 -14 10 -5 -3 -11 4 -15 15 -4 11
-9 19 -13 16 -18 -10 -52 15 -52 37 0 14 -7 30 -15 37 -10 9 -15 9 -15 1 0 -6
5 -11 11 -11 7 0 8 -11 4 -29 -5 -25 -3 -30 17 -36 34 -11 58 -35 58 -59 1
-19 1 -20 11 -3 8 14 14 16 25 6 7 -6 11 -16 7 -22 -3 -5 -2 -7 4 -4 16 10 31
-35 22 -62 l-9 -23 -18 23 c-10 13 -21 32 -25 42 -7 19 -22 22 -32 7 -4 -6 -2
-9 3 -8 17 5 70 -76 61 -92 -12 -23 -21 -53 -25 -78 -1 -12 -16 -39 -33 -59
-17 -21 -31 -41 -31 -46 0 -13 70 82 81 109 5 14 9 36 9 50 0 30 10 30 38 1
20 -21 21 -27 11 -58 -7 -19 -21 -47 -32 -62 -10 -16 -16 -31 -13 -34 3 -4 6
-2 6 4 0 6 7 14 16 17 12 5 15 2 10 -11 -6 -17 -5 -17 8 0 8 10 12 26 9 36 -3
10 0 22 6 25 5 4 7 14 4 24 -5 14 -2 14 14 -3 22 -21 39 -75 25 -75 -4 0 -13
12 -19 28 -10 26 -10 25 -9 -13 0 -22 -3 -50 -7 -63 -8 -21 -7 -22 11 -11 11
7 19 21 17 31 -2 11 2 18 11 18 12 0 14 7 9 29 -6 27 -4 30 25 33 l30 3 -35
50 c-19 28 -44 68 -55 90 -11 22 -29 54 -39 70 -15 24 -18 44 -14 100 4 67 3
71 -27 103 -17 17 -33 32 -35 32 -1 0 8 -23 22 -51z m68 -239 c-4 -6 7 -35 23
-65 17 -30 26 -57 21 -60 -10 -7 -59 87 -59 115 0 11 5 20 11 20 5 0 7 -5 4
-10z"/>
<path d="M1408 923 c7 -3 16 -2 19 1 4 3 -2 6 -13 5 -11 0 -14 -3 -6 -6z"/>
<path d="M1510 801 c0 -5 -9 -7 -20 -4 -11 3 -20 0 -20 -6 0 -12 29 -15 54 -5
20 8 21 24 1 24 -8 0 -15 -4 -15 -9z"/>
<path d="M2695 800 c3 -5 13 -10 21 -10 8 0 14 5 14 10 0 6 -9 10 -21 10 -11
0 -17 -4 -14 -10z"/>
<path d="M1378 793 c7 -3 16 -2 19 1 4 3 -2 6 -13 5 -11 0 -14 -3 -6 -6z"/>
<path d="M1435 790 c-3 -5 -1 -10 4 -10 6 0 11 5 11 10 0 6 -2 10 -4 10 -3 0
-8 -4 -11 -10z"/>
<path d="M1448 713 c7 -3 16 -2 19 1 4 3 -2 6 -13 5 -11 0 -14 -3 -6 -6z"/>
<path d="M1576 694 c-4 -9 -4 -19 -1 -22 2 -3 7 3 11 12 4 9 4 19 1 22 -2 3
-7 -3 -11 -12z"/>
<path d="M85 690 c3 -5 13 -10 21 -10 8 0 12 5 9 10 -3 6 -13 10 -21 10 -8 0
-12 -4 -9 -10z"/>
<path d="M143 688 c16 -10 55 -10 61 1 3 5 -12 8 -34 7 -21 0 -33 -4 -27 -8z"/>
<path d="M1530 679 c0 -5 5 -7 10 -4 6 3 10 8 10 11 0 2 -4 4 -10 4 -5 0 -10
-5 -10 -11z"/>
<path d="M28 673 c7 -3 16 -2 19 1 4 3 -2 6 -13 5 -11 0 -14 -3 -6 -6z"/>
<path d="M238 663 c12 -2 32 -2 45 0 12 2 2 4 -23 4 -25 0 -35 -2 -22 -4z"/>
<path d="M1016 605 c-9 -26 -7 -32 5 -12 6 10 9 21 6 23 -2 3 -7 -2 -11 -11z"/>
<path d="M1041 600 c1 -8 5 -26 9 -40 l8 -25 1 25 c0 14 -4 32 -9 40 -9 13
-10 13 -9 0z"/>
<path d="M1639 556 c-12 -33 -12 -43 -3 -43 12 0 31 73 22 82 -2 2 -10 -15
-19 -39z"/>
<path d="M100 550 c-9 -6 -10 -10 -3 -10 6 0 15 5 18 10 8 12 4 12 -15 0z"/>
<path d="M1550 531 c0 -5 5 -13 10 -16 6 -3 10 -2 10 4 0 5 -4 13 -10 16 -5 3
-10 2 -10 -4z"/>
<path d="M1840 535 c0 -3 18 -23 39 -43 50 -48 59 -82 35 -128 -26 -49 -47
-64 -23 -17 10 20 19 46 19 58 0 33 -47 94 -78 100 -56 12 -62 13 -62 8 0 -3
9 -12 20 -21 26 -21 49 -86 45 -126 -7 -70 -16 -143 -22 -166 -4 -14 -6 -28
-5 -32 1 -5 -3 -8 -8 -8 -6 0 -15 -11 -20 -25 -5 -14 -14 -25 -20 -25 -5 0 -9
-3 -8 -7 10 -38 -59 -86 -88 -62 -9 7 -18 7 -31 0 -10 -6 -14 -11 -9 -11 6 0
1 -6 -9 -14 -16 -12 -12 -13 36 -9 66 6 95 25 132 89 16 27 33 52 38 55 5 3
12 32 15 65 6 52 10 61 38 79 17 11 39 37 49 58 10 21 22 35 26 32 5 -3 2 18
-7 46 -13 40 -26 57 -59 81 -24 16 -43 26 -43 23z m29 -74 c25 -34 27 -81 6
-121 -9 -17 -16 -33 -16 -37 0 -5 -3 -10 -6 -13 -3 -3 -2 18 1 45 5 34 2 66
-8 100 -19 60 -18 55 -7 55 5 0 19 -13 30 -29z"/>
<path d="M1031 494 c0 -11 3 -14 6 -6 3 7 2 16 -1 19 -3 4 -6 -2 -5 -13z"/>
<path d="M1060 497 c0 -9 4 -18 9 -21 5 -4 8 1 7 9 -3 21 -16 31 -16 12z"/>
<path d="M233 453 c9 -2 23 -2 30 0 6 3 -1 5 -18 5 -16 0 -22 -2 -12 -5z"/>
<path d="M20 440 c-9 -6 -10 -10 -3 -10 6 0 15 5 18 10 8 12 4 12 -15 0z"/>
<path d="M57 423 c3 -8 -3 -13 -18 -14 -13 -1 -4 -5 21 -10 25 -5 50 -7 55 -5
6 3 0 5 -12 5 -28 1 -39 18 -16 23 13 3 10 6 -9 9 -19 4 -25 2 -21 -8z"/>
<path d="M258 423 c7 -3 16 -2 19 1 4 3 -2 6 -13 5 -11 0 -14 -3 -6 -6z"/>
<path d="M258 383 c7 -3 16 -2 19 1 4 3 -2 6 -13 5 -11 0 -14 -3 -6 -6z"/>
<path d="M115 359 c26 -17 65 -23 65 -9 0 5 -8 10 -17 10 -10 0 -29 3 -43 6
-24 5 -24 5 -5 -7z"/>
<path d="M2390 300 c0 -5 5 -10 10 -10 6 0 10 5 10 10 0 6 -4 10 -10 10 -5 0
-10 -4 -10 -10z"/>
<path d="M63 293 c9 -2 25 -2 35 0 9 3 1 5 -18 5 -19 0 -27 -2 -17 -5z"/>
<path d="M2089 277 c7 -7 14 -8 21 -1 6 6 2 10 -12 11 -16 2 -18 -1 -9 -10z"/>
<path d="M200 271 c-24 -7 -23 -8 10 -15 19 -3 46 -6 60 -5 14 1 35 1 48 1 12
0 22 4 22 9 0 5 -20 9 -44 9 -24 0 -50 2 -58 4 -7 2 -24 1 -38 -3z"/>
<path d="M2305 260 c-3 -5 1 -10 9 -10 9 0 16 5 16 10 0 6 -4 10 -9 10 -6 0
-13 -4 -16 -10z"/>
<path d="M2358 263 c7 -3 16 -2 19 1 4 3 -2 6 -13 5 -11 0 -14 -3 -6 -6z"/>
<path d="M27 254 c-8 -8 1 -24 14 -24 5 0 9 7 9 15 0 15 -12 20 -23 9z"/>
<path d="M2340 239 c0 -5 5 -7 10 -4 6 3 10 8 10 11 0 2 -4 4 -10 4 -5 0 -10
-5 -10 -11z"/>
<path d="M90 198 c-11 -4 -20 -12 -20 -18 0 -6 -6 -8 -12 -4 -7 4 -9 3 -5 -1
11 -12 60 -12 69 0 4 6 34 10 67 10 40 0 57 3 50 10 -12 12 -119 14 -149 3z"/>
<path d="M2598 203 c12 -2 30 -2 40 0 9 3 -1 5 -23 4 -22 0 -30 -2 -17 -4z"/>
<path d="M2780 176 c0 -2 9 -6 20 -9 11 -3 18 -1 14 4 -5 9 -34 13 -34 5z"/>
<path d="M2380 160 c0 -5 12 -10 28 -10 21 0 24 2 12 10 -20 13 -40 13 -40 0z"/>
<path d="M1635 140 c-3 -11 -4 -24 -1 -29 12 -18 47 -19 69 -1 22 19 22 19 2
34 -29 22 -62 20 -70 -4z m35 0 c0 -6 6 -10 13 -8 7 2 14 -1 15 -7 1 -5 -8
-10 -20 -10 -14 0 -24 7 -26 18 -2 9 1 17 7 17 6 0 11 -5 11 -10z"/>
<path d="M2300 130 c0 -6 7 -10 15 -10 8 0 15 2 15 4 0 2 -7 6 -15 10 -8 3
-15 1 -15 -4z"/>
<path d="M135 110 c3 -5 10 -10 16 -10 5 0 9 5 9 10 0 6 -7 10 -16 10 -8 0
-12 -4 -9 -10z"/>
<path d="M2510 109 c0 -5 5 -7 10 -4 6 3 10 8 10 11 0 2 -4 4 -10 4 -5 0 -10
-5 -10 -11z"/>
<path d="M2540 111 c0 -5 14 -9 31 -9 20 1 26 4 17 9 -18 12 -48 11 -48 0z"/>
<path d="M43 103 c9 -2 23 -2 30 0 6 3 -1 5 -18 5 -16 0 -22 -2 -12 -5z"/>
<path d="M1950 100 c-31 -5 -33 -7 -13 -14 13 -4 49 -6 80 -4 32 1 63 -1 69
-5 7 -4 17 -1 23 7 10 12 2 14 -47 14 -33 -1 -63 1 -68 4 -5 2 -25 1 -44 -2z"/>
<path d="M257 80 c-3 -11 -1 -20 4 -20 5 0 9 9 9 20 0 11 -2 20 -4 20 -2 0 -6
-9 -9 -20z"/>
<path d="M2455 69 c7 -10 55 -18 55 -9 0 4 -13 10 -29 12 -17 2 -28 1 -26 -3z"/>
<path d="M1843 63 c9 -2 23 -2 30 0 6 3 -1 5 -18 5 -16 0 -22 -2 -12 -5z"/>
<path d="M2270 50 c0 -11 4 -20 9 -20 5 0 7 9 4 20 -3 11 -7 20 -9 20 -2 0 -4
-9 -4 -20z"/>
<path d="M68 53 c7 -3 16 -2 19 1 4 3 -2 6 -13 5 -11 0 -14 -3 -6 -6z"/>
<path d="M2225 40 c-3 -5 3 -10 15 -10 12 0 18 5 15 10 -3 6 -10 10 -15 10 -5
0 -12 -4 -15 -10z"/>
<path d="M2390 40 c8 -5 20 -10 25 -10 6 0 3 5 -5 10 -8 5 -19 10 -25 10 -5 0
-3 -5 5 -10z"/>
<path d="M2438 43 c7 -3 16 -2 19 1 4 3 -2 6 -13 5 -11 0 -14 -3 -6 -6z"/>
<path d="M2575 30 c-3 -6 1 -7 9 -4 18 7 21 14 7 14 -6 0 -13 -4 -16 -10z"/>
</g>
</svg>
