<?xml version="1.0" standalone="no"?>
<!DOCTYPE svg PUBLIC "-//W3C//DTD SVG 20010904//EN"
 "http://www.w3.org/TR/2001/REC-SVG-20010904/DTD/svg10.dtd">
<svg version="1.0" xmlns="http://www.w3.org/2000/svg"
 width="300.000000pt" height="376.000000pt" viewBox="0 0 300.000000 376.000000"
 preserveAspectRatio="xMidYMid meet">
<metadata>
Created by potrace 1.10, written by Peter Selinger 2001-2011
</metadata>
<g transform="translate(0.000000,376.000000) scale(0.100000,-0.100000)"
fill="#000000" stroke="none">
<path d="M987 3722 c7 -53 12 -64 23 -57 8 5 7 11 -1 21 -6 8 -9 22 -7 32 3
10 -1 23 -8 30 -10 9 -12 4 -7 -26z"/>
<path d="M1050 3740 c0 -11 2 -20 4 -20 2 0 6 9 9 20 3 11 1 20 -4 20 -5 0 -9
-9 -9 -20z"/>
<path d="M1296 3739 c-22 -5 -44 -13 -50 -18 -6 -4 -37 -18 -68 -30 -32 -13
-62 -29 -69 -37 -6 -8 -16 -11 -23 -7 -6 3 -8 3 -4 -2 4 -4 -20 -28 -55 -52
-142 -100 -300 -263 -351 -363 -53 -102 -106 -210 -106 -215 0 -8 -41 -63 -93
-127 -21 -27 -40 -54 -41 -62 -1 -8 -17 -27 -36 -42 -92 -78 -161 -169 -217
-289 -38 -80 -44 -103 -54 -205 -10 -106 -9 -129 15 -295 35 -242 107 -458
214 -641 43 -74 121 -169 130 -159 3 3 -6 17 -21 31 -15 14 -40 44 -54 67 -37
58 -116 217 -117 236 -1 9 -6 25 -12 36 -17 30 -93 255 -98 290 -11 75 -16
114 -21 160 -3 28 -9 77 -14 110 -5 33 -6 64 -3 70 3 5 5 35 5 66 -1 62 17
162 34 194 6 11 24 45 38 75 15 30 31 57 34 60 4 3 17 21 29 41 28 46 167 179
187 179 8 0 15 5 15 10 0 6 9 10 21 10 11 0 17 4 14 10 -4 6 -17 4 -36 -6 -17
-8 -33 -13 -37 -10 -7 8 -11 4 81 66 74 49 80 51 95 35 16 -16 16 -17 -5 -10
-18 5 -22 3 -17 -9 7 -18 31 -21 36 -6 2 6 13 12 24 12 23 2 27 30 5 34 -6 1
-7 0 -1 -3 14 -7 2 -23 -16 -23 -8 0 -12 5 -9 10 3 6 -2 10 -12 10 -12 1 -6 7
16 19 32 17 54 61 31 61 -6 0 -10 -10 -10 -22 0 -17 -3 -19 -9 -10 -7 11 -9
11 -14 -2 -4 -9 -10 -15 -14 -14 -5 2 -19 -7 -33 -19 -13 -13 -32 -23 -42 -23
-36 0 10 55 79 95 35 21 62 40 59 42 -2 3 -25 -7 -50 -22 -52 -30 -53 -39 8
89 20 44 45 87 54 95 9 9 18 25 20 35 2 10 9 25 15 32 7 8 28 34 47 58 19 25
41 43 48 41 7 -3 11 -1 8 4 -8 12 31 44 43 36 7 -3 8 0 5 9 -6 16 28 40 41 28
5 -4 5 1 2 11 -6 15 -3 17 16 12 17 -5 18 -4 7 4 -12 9 -12 11 2 16 10 4 22 4
28 0 5 -3 10 -1 10 5 0 6 4 9 9 5 5 -3 12 -1 16 5 3 5 15 10 26 10 10 0 19 5
19 11 0 7 -7 8 -17 4 -10 -4 -25 -8 -33 -10 -8 -2 -24 -7 -35 -11 -30 -10 -8
10 38 35 20 12 53 30 73 42 26 14 40 17 47 10 8 -8 7 -11 -1 -11 -7 0 -12 -5
-12 -10 0 -7 7 -7 22 1 19 10 20 12 4 21 -20 11 -12 30 9 22 8 -4 18 1 21 10
3 9 13 16 20 16 12 0 12 -4 4 -21 -6 -11 -9 -25 -6 -32 2 -7 5 -5 5 4 1 11 10
16 28 15 16 -1 28 5 30 14 3 9 1 11 -4 5 -11 -14 -45 -15 -40 -1 3 6 9 10 15
9 6 -1 7 7 4 20 -5 20 -4 20 11 8 9 -7 17 -9 17 -4 0 5 12 9 27 8 15 0 28 5
28 12 0 22 13 24 20 4 9 -30 21 -26 19 7 -1 31 -12 34 -68 21z"/>
<path d="M1384 3738 c-8 -13 -1 -18 32 -24 74 -12 150 -36 160 -49 8 -11 13
-12 24 -2 10 9 11 9 6 0 -5 -9 0 -13 13 -13 11 0 23 -5 26 -10 4 -6 12 -10 18
-9 27 3 37 -2 37 -20 0 -10 7 -22 16 -25 22 -9 24 -8 25 12 0 10 3 12 6 5 2
-7 11 -13 19 -13 9 0 12 -5 9 -10 -4 -6 -10 -8 -15 -5 -4 3 -14 -3 -21 -13
-13 -15 -12 -16 4 -3 13 10 17 10 17 1 0 -8 4 -9 13 -3 6 5 23 6 37 2 21 -6
21 -7 5 -8 -19 -1 -18 -3 5 -21 30 -23 48 -26 30 -5 -7 8 -8 15 -3 15 15 0 32
-21 27 -34 -2 -6 8 -19 23 -28 41 -24 74 -58 68 -69 -4 -5 3 -9 14 -9 12 0 21
-7 21 -16 0 -8 5 -12 10 -9 9 6 14 -8 11 -27 0 -5 6 -8 14 -8 8 0 15 -4 15 -8
0 -5 9 -18 21 -31 17 -18 18 -25 8 -37 -10 -12 -9 -13 4 -9 22 9 68 -54 60
-83 -3 -12 -10 -19 -16 -15 -6 3 -7 1 -3 -5 5 -8 15 -8 32 -2 32 12 37 12 29
0 -3 -6 1 -7 10 -4 14 6 14 9 -3 28 -11 11 -42 55 -69 96 -57 84 -210 243
-226 233 -5 -3 -7 -2 -4 4 13 21 -41 58 -204 139 -82 41 -297 106 -305 92z
m346 -138 c0 -5 -2 -10 -4 -10 -3 0 -8 5 -11 10 -3 6 -1 10 4 10 6 0 11 -4 11
-10z m440 -430 c0 -5 -4 -10 -10 -10 -5 0 -10 5 -10 10 0 6 5 10 10 10 6 0 10
-4 10 -10z"/>
<path d="M1052 3685 c0 -16 2 -22 5 -12 2 9 2 23 0 30 -3 6 -5 -1 -5 -18z"/>
<path d="M1421 3685 c14 -14 21 -15 35 -6 18 11 18 11 -1 9 -11 -1 -27 1 -35
6 -11 7 -11 5 1 -9z"/>
<path d="M1303 3673 c-13 -2 -23 -9 -23 -15 0 -6 10 -8 23 -4 12 3 25 6 30 6
4 0 7 5 7 10 0 6 -3 9 -7 9 -5 -1 -18 -4 -30 -6z"/>
<path d="M1352 3674 c4 -3 2 -19 -2 -35 -5 -16 -5 -31 0 -34 4 -2 10 9 14 26
8 43 8 49 -6 49 -6 0 -9 -3 -6 -6z"/>
<path d="M1500 3676 c0 -2 6 -9 14 -15 11 -9 16 -9 22 0 4 8 3 9 -4 5 -7 -4
-12 -2 -12 3 0 6 -4 11 -10 11 -5 0 -10 -2 -10 -4z"/>
<path d="M1390 3659 c0 -5 5 -7 10 -4 6 3 10 8 10 11 0 2 -4 4 -10 4 -5 0 -10
-5 -10 -11z"/>
<path d="M1000 3640 c-8 -5 -15 -13 -15 -19 0 -5 -11 -19 -25 -30 -18 -16 -19
-19 -5 -12 33 17 67 50 63 61 -2 6 -9 6 -18 0z"/>
<path d="M1410 3625 c5 -7 7 -15 3 -18 -3 -4 5 -7 18 -7 21 1 22 2 6 11 -9 6
-15 14 -13 18 3 4 -1 8 -9 8 -10 0 -12 -4 -5 -12z"/>
<path d="M1610 3630 c0 -5 5 -10 11 -10 5 0 7 5 4 10 -3 6 -8 10 -11 10 -2 0
-4 -4 -4 -10z"/>
<path d="M1300 3619 c0 -5 5 -7 10 -4 6 3 10 8 10 11 0 2 -4 4 -10 4 -5 0 -10
-5 -10 -11z"/>
<path d="M1383 3605 c0 -8 4 -12 9 -9 4 3 8 9 8 15 0 5 -4 9 -8 9 -5 0 -9 -7
-9 -15z"/>
<path d="M1464 3608 c-4 -7 -4 -10 1 -6 4 4 15 2 23 -5 12 -10 14 -9 11 2 -7
20 -26 25 -35 9z"/>
<path d="M1660 3616 c0 -2 7 -7 16 -10 8 -3 12 -2 9 4 -6 10 -25 14 -25 6z"/>
<path d="M1215 3590 c-3 -5 -12 -7 -20 -3 -8 3 -15 1 -15 -5 0 -12 14 -10 50
6 17 7 20 11 8 11 -9 1 -19 -3 -23 -9z"/>
<path d="M1518 3593 c7 -3 16 -2 19 1 4 3 -2 6 -13 5 -11 0 -14 -3 -6 -6z"/>
<path d="M1351 3574 c0 -11 3 -14 6 -6 3 7 2 16 -1 19 -3 4 -6 -2 -5 -13z"/>
<path d="M1150 3569 c0 -5 5 -7 10 -4 6 3 10 8 10 11 0 2 -4 4 -10 4 -5 0 -10
-5 -10 -11z"/>
<path d="M1096 3541 c-3 -4 6 -6 19 -3 14 2 25 6 25 8 0 8 -39 4 -44 -5z"/>
<path d="M1480 3527 c0 -3 12 -12 26 -22 15 -9 23 -12 20 -6 -7 11 -46 35 -46
28z"/>
<path d="M1300 3500 c-8 -5 -10 -10 -5 -10 6 0 17 5 25 10 8 5 11 10 5 10 -5
0 -17 -5 -25 -10z"/>
<path d="M1354 3485 c-3 -14 -1 -31 5 -38 8 -10 7 -17 -2 -27 -10 -12 -9 -12
6 0 11 8 14 17 8 23 -5 5 -6 21 -1 38 5 17 5 29 -1 29 -5 0 -11 -11 -15 -25z"/>
<path d="M1245 3490 c-16 -7 -17 -9 -3 -9 9 -1 20 4 23 9 7 11 7 11 -20 0z"/>
<path d="M1635 3469 c-4 -6 -4 -13 -1 -16 3 -4 6 -1 6 6 0 7 5 9 12 5 7 -4 8
-3 4 4 -9 15 -13 15 -21 1z"/>
<path d="M1454 3459 c-3 -5 -2 -9 3 -8 21 4 34 -2 27 -13 -4 -7 -3 -8 4 -4 7
4 12 11 12 15 0 13 -39 21 -46 10z"/>
<path d="M1595 3460 c-3 -6 1 -7 9 -4 18 7 21 14 7 14 -6 0 -13 -4 -16 -10z"/>
<path d="M1684 3457 c-4 -6 -4 -9 1 -5 4 4 14 3 22 -4 7 -6 15 -9 18 -7 2 3
-4 10 -15 17 -15 9 -21 9 -26 -1z"/>
<path d="M1236 3442 c-3 -5 1 -9 9 -9 8 0 12 4 9 9 -3 4 -7 8 -9 8 -2 0 -6 -4
-9 -8z"/>
<path d="M1830 3436 c0 -2 7 -9 15 -16 9 -7 15 -8 15 -2 0 5 -7 12 -15 16 -8
3 -15 4 -15 2z"/>
<path d="M1185 3420 c-4 -6 -11 -7 -17 -4 -7 4 -8 2 -4 -5 6 -9 11 -9 22 0 14
11 18 19 10 19 -3 0 -8 -5 -11 -10z"/>
<path d="M1410 3419 c0 -5 5 -7 10 -4 6 3 10 8 10 11 0 2 -4 4 -10 4 -5 0 -10
-5 -10 -11z"/>
<path d="M1799 3403 c-13 -16 -12 -17 4 -4 9 7 17 15 17 17 0 8 -8 3 -21 -13z"/>
<path d="M1480 3391 c0 -5 5 -13 10 -16 6 -3 10 -2 10 4 0 5 -4 13 -10 16 -5
3 -10 2 -10 -4z"/>
<path d="M1695 3359 c17 -23 20 -24 35 -10 9 9 15 18 13 20 -2 3 -9 -1 -15 -7
-9 -9 -16 -8 -32 6 -19 17 -20 17 -1 -9z"/>
<path d="M1960 3346 c0 -2 8 -10 18 -17 15 -13 16 -12 3 4 -13 16 -21 21 -21
13z"/>
<path d="M1647 3329 c7 -7 15 -10 18 -7 3 3 -2 9 -12 12 -14 6 -15 5 -6 -5z"/>
<path d="M1880 3331 c0 -5 7 -12 16 -15 14 -5 15 -4 4 9 -14 17 -20 19 -20 6z"/>
<path d="M1799 3303 c-13 -16 -12 -17 4 -4 9 7 17 15 17 17 0 8 -8 3 -21 -13z"/>
<path d="M1366 3294 c-4 -10 0 -11 17 -5 12 4 29 6 37 3 8 -3 12 -1 8 3 -13
14 -56 13 -62 -1z"/>
<path d="M1445 3300 c-3 -5 1 -10 10 -10 9 0 13 5 10 10 -3 6 -8 10 -10 10 -2
0 -7 -4 -10 -10z"/>
<path d="M1856 3294 c-5 -14 -4 -15 9 -4 17 14 19 20 6 20 -5 0 -12 -7 -15
-16z"/>
<path d="M1961 3301 c-8 -6 -9 -11 -3 -15 6 -3 14 -1 17 5 9 14 2 20 -14 10z"/>
<path d="M1650 3290 c-6 -4 7 -7 30 -8 22 -1 40 0 40 2 0 7 -60 12 -70 6z"/>
<path d="M1747 3286 c-16 -12 -14 -14 19 -20 20 -4 39 -5 42 -2 3 3 -4 6 -16
6 -24 0 -38 16 -20 23 7 3 9 6 3 6 -5 0 -18 -6 -28 -13z"/>
<path d="M1995 3280 c3 -5 8 -10 11 -10 2 0 4 5 4 10 0 6 -5 10 -11 10 -5 0
-7 -4 -4 -10z"/>
<path d="M2038 3283 c7 -3 16 -2 19 1 4 3 -2 6 -13 5 -11 0 -14 -3 -6 -6z"/>
<path d="M1240 3259 c0 -5 5 -7 10 -4 6 3 10 8 10 11 0 2 -4 4 -10 4 -5 0 -10
-5 -10 -11z"/>
<path d="M1363 3254 c-3 -8 2 -22 11 -30 9 -8 11 -9 6 -2 -7 9 -4 16 12 26
l23 13 -24 -7 c-16 -4 -21 -3 -17 5 4 6 5 11 1 11 -3 0 -8 -7 -12 -16z"/>
<path d="M1830 3260 c8 -5 20 -10 25 -10 6 0 3 5 -5 10 -8 5 -19 10 -25 10 -5
0 -3 -5 5 -10z"/>
<path d="M1875 3259 c-4 -6 -5 -12 -2 -15 2 -3 7 2 10 11 7 17 1 20 -8 4z"/>
<path d="M1460 3245 c-7 -9 -10 -18 -6 -22 3 -3 6 -1 6 5 0 6 9 9 21 7 17 -4
19 -2 9 10 -15 18 -15 18 -30 0z"/>
<path d="M1700 3250 c0 -5 4 -10 9 -10 6 0 13 5 16 10 3 6 -1 10 -9 10 -9 0
-16 -4 -16 -10z"/>
<path d="M1895 3250 c-4 -6 -3 -10 2 -9 4 1 19 -2 33 -8 14 -6 36 -13 50 -17
21 -6 22 -5 8 4 -10 6 -18 16 -18 21 0 6 5 7 12 3 7 -4 8 -3 4 5 -4 6 -13 8
-19 4 -17 -10 -47 -11 -47 -1 0 11 -18 10 -25 -2z"/>
<path d="M1420 3241 c0 -6 4 -13 10 -16 6 -3 7 1 4 9 -7 18 -14 21 -14 7z"/>
<path d="M1753 3228 c-2 -20 2 -23 36 -23 27 -1 42 5 50 17 9 15 8 18 -10 18
-11 0 -18 -4 -14 -9 3 -5 1 -12 -5 -16 -5 -3 -10 -1 -10 5 0 7 -8 9 -20 5 -15
-5 -18 -3 -14 9 3 9 2 16 -3 16 -5 0 -9 -10 -10 -22z"/>
<path d="M1166 3232 c-2 -4 -1 -14 4 -22 7 -11 9 -9 7 8 -1 24 -3 26 -11 14z"/>
<path d="M896 3218 c3 -5 10 -6 15 -3 13 9 11 12 -6 12 -8 0 -12 -4 -9 -9z"/>
<path d="M1536 3222 c-3 -5 1 -9 9 -9 8 0 12 4 9 9 -3 4 -7 8 -9 8 -2 0 -6 -4
-9 -8z"/>
<path d="M1595 3220 c-20 -9 -20 -9 0 -9 11 0 27 4 35 9 13 9 13 10 0 9 -8 0
-24 -4 -35 -9z"/>
<path d="M1710 3222 c0 -6 -8 -9 -17 -6 -15 5 -16 4 -3 -5 16 -11 40 3 27 16
-4 3 -7 1 -7 -5z"/>
<path d="M1865 3220 c3 -5 8 -10 11 -10 2 0 4 5 4 10 0 6 -5 10 -11 10 -5 0
-7 -4 -4 -10z"/>
<path d="M2060 3221 c0 -9 30 -24 36 -18 2 1 -6 8 -16 15 -11 7 -20 8 -20 3z"/>
<path d="M1917 3209 c7 -7 15 -10 18 -7 3 3 -2 9 -12 12 -14 6 -15 5 -6 -5z"/>
<path d="M2024 3206 c4 -13 2 -17 -8 -13 -10 4 -13 1 -9 -9 5 -14 7 -14 21 0
14 13 14 18 3 28 -12 11 -13 10 -7 -6z"/>
<path d="M1870 3189 c0 -5 5 -7 10 -4 6 3 10 8 10 11 0 2 -4 4 -10 4 -5 0 -10
-5 -10 -11z"/>
<path d="M1908 3188 c5 -5 16 -8 23 -6 8 3 3 7 -10 11 -17 4 -21 3 -13 -5z"/>
<path d="M2115 3190 c-3 -5 -1 -10 4 -10 6 0 11 5 11 10 0 6 -2 10 -4 10 -3 0
-8 -4 -11 -10z"/>
<path d="M1595 3180 c-3 -6 1 -7 9 -4 18 7 21 14 7 14 -6 0 -13 -4 -16 -10z"/>
<path d="M1675 3180 c-3 -5 -1 -10 4 -10 6 0 11 5 11 10 0 6 -2 10 -4 10 -3 0
-8 -4 -11 -10z"/>
<path d="M2071 3178 c-1 -12 6 -18 20 -18 11 0 17 5 14 10 -4 6 -10 8 -15 5
-4 -3 -11 1 -13 7 -3 8 -6 6 -6 -4z"/>
<path d="M888 3173 c7 -3 16 -2 19 1 4 3 -2 6 -13 5 -11 0 -14 -3 -6 -6z"/>
<path d="M1015 3170 c-3 -5 -1 -10 4 -10 6 0 11 5 11 10 0 6 -2 10 -4 10 -3 0
-8 -4 -11 -10z"/>
<path d="M1700 3168 c0 -11 12 -10 30 2 12 7 10 9 -8 7 -12 0 -22 -5 -22 -9z"/>
<path d="M1755 3170 c-4 -6 6 -10 22 -10 22 0 25 2 13 10 -19 12 -27 12 -35 0z"/>
<path d="M1833 3164 c16 -8 31 -13 35 -10 8 8 1 12 -33 20 l-30 6 28 -16z"/>
<path d="M1895 3160 c3 -5 8 -10 11 -10 2 0 4 5 4 10 0 6 -5 10 -11 10 -5 0
-7 -4 -4 -10z"/>
<path d="M1920 3161 c0 -6 4 -13 10 -16 6 -3 7 1 4 9 -7 18 -14 21 -14 7z"/>
<path d="M1950 3156 c0 -2 7 -9 15 -16 12 -10 15 -10 15 4 0 9 -7 16 -15 16
-8 0 -15 -2 -15 -4z"/>
<path d="M2033 3145 c-7 -20 -5 -21 33 -29 24 -5 33 -3 38 9 4 13 2 14 -14 5
-13 -7 -20 -7 -20 -1 0 6 -8 7 -17 4 -12 -5 -15 -2 -10 10 3 9 4 17 1 17 -2 0
-7 -7 -11 -15z"/>
<path d="M2450 3150 c0 -5 5 -10 11 -10 5 0 7 5 4 10 -3 6 -8 10 -11 10 -2 0
-4 -4 -4 -10z"/>
<path d="M1990 3146 c0 -2 7 -6 15 -10 8 -3 15 -1 15 4 0 6 -7 10 -15 10 -8 0
-15 -2 -15 -4z"/>
<path d="M2290 3141 c0 -12 92 -20 105 -9 6 6 3 7 -7 3 -11 -4 -18 -2 -18 4 0
6 -17 11 -40 11 -22 0 -40 -4 -40 -9z"/>
<path d="M735 3108 c-29 -30 -29 -30 -3 -14 14 10 29 24 32 32 7 19 5 18 -29
-18z"/>
<path d="M2133 3123 c-21 -8 15 -36 37 -30 11 3 18 1 17 -3 -1 -4 0 -7 3 -7 3
1 21 -8 41 -21 20 -12 39 -19 42 -15 4 3 7 1 7 -5 0 -7 6 -12 14 -12 8 0 21
-9 29 -20 8 -11 17 -17 20 -13 4 3 7 1 7 -5 0 -7 6 -12 14 -12 18 0 98 -84
135 -141 82 -130 117 -363 80 -534 -16 -73 -69 -234 -80 -240 -5 -4 -9 -12 -9
-20 0 -7 -11 -32 -24 -55 l-24 -43 -18 22 c-13 15 -20 17 -26 8 -4 -7 2 -21
14 -34 16 -17 18 -26 10 -36 -7 -8 -9 -16 -6 -20 10 -9 -34 -27 -53 -21 -15 5
-15 3 2 -7 11 -7 23 -16 26 -22 13 -19 134 207 173 325 28 86 56 240 56 312 0
135 -68 343 -140 430 -70 84 -199 178 -232 168 -5 -1 -8 2 -8 7 0 13 -67 34
-81 25 -7 -4 -9 -3 -5 4 8 13 -4 21 -21 15z"/>
<path d="M864 3094 c-18 -14 -18 -15 4 -4 12 6 22 13 22 15 0 8 -5 6 -26 -11z"/>
<path d="M926 3101 c-4 -5 3 -7 14 -4 23 6 26 13 6 13 -8 0 -17 -4 -20 -9z"/>
<path d="M2310 3106 c0 -2 7 -9 15 -16 12 -10 15 -10 15 4 0 9 -7 16 -15 16
-8 0 -15 -2 -15 -4z"/>
<path d="M762 3074 c-7 -8 -8 -14 -3 -14 10 0 25 19 20 25 -2 1 -10 -3 -17
-11z"/>
<path d="M825 3080 c-4 -6 -11 -7 -17 -4 -7 4 -8 2 -4 -4 7 -12 36 -5 36 9 0
12 -7 11 -15 -1z"/>
<path d="M2350 3069 c0 -5 5 -7 10 -4 6 3 10 8 10 11 0 2 -4 4 -10 4 -5 0 -10
-5 -10 -11z"/>
<path d="M840 3053 c0 -6 7 -16 15 -23 13 -11 13 -15 3 -21 -8 -5 -5 -8 9 -6
l23 1 -23 26 c-12 14 -23 27 -24 29 -2 2 -3 0 -3 -6z"/>
<path d="M948 3048 c5 -5 16 -8 23 -6 8 3 3 7 -10 11 -17 4 -21 3 -13 -5z"/>
<path d="M740 3032 c0 -7 -4 -11 -9 -8 -4 3 -16 -3 -26 -14 -10 -11 -13 -20
-7 -20 6 0 12 4 14 8 2 4 23 18 48 29 44 21 44 22 13 20 -20 -1 -33 -7 -33
-15z"/>
<path d="M817 3043 c-2 -5 -2 -14 -1 -20 1 -7 2 -19 3 -25 1 -9 4 -9 11 2 5 9
5 19 0 26 -6 6 -7 14 -3 17 3 4 4 7 0 7 -3 0 -8 -3 -10 -7z"/>
<path d="M890 3034 c0 -8 5 -12 10 -9 6 4 8 11 5 16 -9 14 -15 11 -15 -7z"/>
<path d="M786 2992 c-3 -5 1 -9 9 -9 8 0 12 4 9 9 -3 4 -7 8 -9 8 -2 0 -6 -4
-9 -8z"/>
<path d="M695 2960 c-3 -5 -2 -10 4 -10 5 0 13 5 16 10 3 6 2 10 -4 10 -5 0
-13 -4 -16 -10z"/>
<path d="M737 2944 c-4 -4 -7 -11 -7 -15 0 -9 27 -5 37 6 4 4 3 5 -4 2 -6 -4
-13 -2 -15 4 -2 5 -7 7 -11 3z"/>
<path d="M1414 2878 c-3 -4 2 -8 10 -8 8 0 17 4 20 8 3 5 -2 9 -10 9 -8 0 -17
-4 -20 -9z"/>
<path d="M546 2868 c2 -3 -2 -9 -8 -12 -7 -3 -2 -3 12 0 35 9 44 19 15 19 -12
0 -21 -3 -19 -7z"/>
<path d="M1359 2863 c-12 -16 -12 -17 2 -6 9 7 20 9 24 5 5 -4 5 -1 1 6 -9 16
-11 15 -27 -5z"/>
<path d="M1490 2878 c2 -12 38 -110 44 -115 4 -4 4 0 0 10 -4 11 -1 17 7 17
11 0 11 2 0 9 -8 5 -16 19 -18 31 -2 16 -34 63 -33 48z"/>
<path d="M1823 2864 c0 -8 6 -14 14 -14 7 0 13 -4 13 -9 0 -5 8 -8 18 -6 9 2
19 4 22 4 7 1 -32 27 -51 33 -9 4 -16 1 -16 -8z"/>
<path d="M1764 2862 c-6 -4 -13 -17 -16 -30 l-6 -22 24 22 c32 31 31 52 -2 30z"/>
<path d="M1945 2861 c-3 -5 2 -11 10 -15 8 -3 17 -1 20 3 3 5 -2 11 -10 15 -8
3 -17 1 -20 -3z"/>
<path d="M2021 2867 c2 -1 12 -9 22 -16 15 -12 17 -12 11 3 -3 9 -13 16 -22
16 -8 0 -13 -1 -11 -3z"/>
<path d="M1276 2793 c0 -35 6 -58 15 -63 19 -12 23 -5 10 18 -6 12 -11 36 -11
56 0 19 -3 37 -7 39 -5 3 -8 -20 -7 -50z"/>
<path d="M1610 2817 c0 -9 5 -17 11 -17 6 0 9 -7 5 -15 -3 -8 -3 -15 -1 -15 9
0 45 35 45 43 0 5 -7 3 -16 -4 -14 -11 -18 -10 -30 6 -12 17 -14 17 -14 2z"/>
<path d="M1704 2814 c-18 -14 -18 -15 4 -4 12 6 22 13 22 15 0 8 -5 6 -26 -11z"/>
<path d="M1880 2816 c0 -2 7 -7 16 -10 8 -3 12 -2 9 4 -6 10 -25 14 -25 6z"/>
<path d="M1148 2789 c17 -19 20 -29 12 -34 -7 -5 -8 -10 -3 -14 13 -8 73 -122
73 -138 0 -7 5 -13 10 -13 24 0 3 65 -34 105 -14 15 -26 38 -26 50 0 12 -12
32 -27 46 l-28 24 23 -26z"/>
<path d="M2108 2798 c5 -5 16 -8 23 -6 8 3 3 7 -10 11 -17 4 -21 3 -13 -5z"/>
<path d="M1398 2783 c6 -2 18 -2 25 0 6 3 1 5 -13 5 -14 0 -19 -2 -12 -5z"/>
<path d="M1497 2769 c4 -13 8 -18 11 -10 2 7 -1 18 -6 23 -8 8 -9 4 -5 -13z"/>
<path d="M1750 2780 c0 -5 5 -10 10 -10 6 0 10 5 10 10 0 6 -4 10 -10 10 -5 0
-10 -4 -10 -10z"/>
<path d="M1939 2769 c11 -11 25 -18 30 -14 5 3 12 -1 14 -7 4 -8 6 -9 6 -2 1
16 -22 34 -50 39 l-22 4 22 -20z"/>
<path d="M1405 2758 c-33 -17 -43 -18 -60 -7 -18 11 -19 11 -6 -4 15 -19 42
-22 57 -8 16 16 49 17 49 1 0 -8 -4 -18 -10 -22 -6 -5 -3 -8 7 -8 20 0 35 20
16 21 -7 0 -4 4 7 9 18 8 19 9 1 9 -12 1 -16 6 -12 16 7 19 1 18 -49 -7z"/>
<path d="M1566 2762 c-2 -4 9 -8 25 -8 33 -2 33 4 1 11 -12 2 -24 1 -26 -3z"/>
<path d="M2177 2752 c2 -10 13 -18 23 -18 19 0 19 1 0 18 -11 10 -21 18 -24
18 -2 0 -2 -8 1 -18z"/>
<path d="M1663 2738 c-48 -34 -49 -52 -3 -26 22 13 40 29 40 36 0 16 0 16 -37
-10z"/>
<path d="M1875 2740 c-3 -5 1 -10 9 -10 9 0 16 5 16 10 0 6 -4 10 -9 10 -6 0
-13 -4 -16 -10z"/>
<path d="M794 2726 c-3 -8 -4 -23 -2 -33 3 -11 6 -6 9 15 6 34 2 42 -7 18z"/>
<path d="M1326 2727 c3 -9 9 -18 13 -18 3 -1 22 -3 41 -4 25 -3 30 -1 15 4
-11 5 -24 6 -28 4 -5 -3 -17 3 -28 13 -18 16 -19 16 -13 1z"/>
<path d="M1405 2730 c-3 -6 1 -7 9 -4 18 7 21 14 7 14 -6 0 -13 -4 -16 -10z"/>
<path d="M1488 2721 c-15 -18 -14 -19 7 -17 12 0 22 6 21 13 -3 22 -12 23 -28
4z"/>
<path d="M1880 2721 c-25 -7 -25 -7 -3 -13 13 -3 25 -2 28 3 3 4 13 6 23 3 14
-5 15 -4 2 5 -17 12 -15 12 -50 2z"/>
<path d="M1530 2711 c0 -6 4 -13 10 -16 6 -3 7 1 4 9 -7 18 -14 21 -14 7z"/>
<path d="M2350 2700 c0 -5 5 -10 11 -10 5 0 7 5 4 10 -3 6 -8 10 -11 10 -2 0
-4 -4 -4 -10z"/>
<path d="M876 2685 c4 -8 11 -15 16 -15 6 0 5 6 -2 15 -7 8 -14 15 -16 15 -2
0 -1 -7 2 -15z"/>
<path d="M988 2668 c5 -21 4 -22 -12 -9 -9 8 -29 16 -44 17 -20 2 -14 -4 23
-20 33 -15 45 -25 37 -30 -11 -6 -10 -10 2 -19 25 -19 167 -310 157 -320 -15
-15 -33 3 -28 28 3 21 2 22 -15 12 -13 -9 -21 -9 -26 -1 -11 16 -40 24 -44 12
-2 -6 -20 0 -42 13 l-39 22 12 -22 c17 -31 51 -64 51 -49 0 7 16 -3 35 -22 19
-19 47 -35 63 -37 23 -2 24 -1 7 6 -20 9 -20 9 0 16 36 12 48 21 63 46 12 21
12 22 -1 7 -17 -21 -25 -23 -24 -5 0 6 -1 26 -2 42 -1 24 -3 27 -12 15 -9 -12
-10 -10 -6 8 4 15 0 25 -9 29 -11 4 -12 8 -3 19 9 11 9 13 -2 9 -20 -7 -62 61
-100 162 -30 79 -54 120 -41 71z m92 -353 c7 -8 16 -13 20 -10 4 3 10 -4 13
-15 7 -28 -17 -25 -48 5 -14 14 -25 28 -25 30 0 11 29 4 40 -10z"/>
<path d="M1946 2683 c-3 -3 2 -15 10 -27 8 -13 11 -26 7 -30 -4 -4 0 -4 8 -1
11 4 14 14 11 30 -4 23 -24 39 -36 28z"/>
<path d="M1040 2671 c0 -6 4 -13 10 -16 6 -3 7 1 4 9 -7 18 -14 21 -14 7z"/>
<path d="M1089 2660 l-24 -20 27 13 c16 6 28 15 28 20 0 11 -6 9 -31 -13z"/>
<path d="M790 2650 c0 -11 4 -20 8 -20 4 0 8 9 8 20 0 11 -4 20 -8 20 -4 0 -8
-9 -8 -20z"/>
<path d="M1438 2663 c-10 -2 -18 -8 -18 -13 0 -5 7 -6 17 -3 9 4 14 2 10 -3
-3 -5 3 -10 14 -10 18 0 19 2 4 12 -12 9 -13 13 -3 17 16 7 0 6 -24 0z"/>
<path d="M2318 2663 c6 -2 9 -10 6 -15 -4 -7 -2 -8 5 -4 13 9 5 26 -12 25 -9
0 -8 -2 1 -6z"/>
<path d="M1115 2634 l-30 -26 33 22 c17 12 32 23 32 26 0 7 -4 5 -35 -22z"/>
<path d="M695 2630 c-3 -5 -1 -10 4 -10 6 0 11 5 11 10 0 6 -2 10 -4 10 -3 0
-8 -4 -11 -10z"/>
<path d="M2265 2625 c-22 -6 -44 -12 -48 -12 -5 -1 -12 -5 -15 -9 -4 -4 -1 -4
6 0 6 4 12 2 12 -4 0 -7 6 -8 19 0 26 13 64 13 79 -2 19 -19 22 -5 3 18 -15
19 -20 20 -56 9z"/>
<path d="M627 2617 c-11 -29 -9 -43 4 -30 6 6 9 19 7 29 -3 18 -4 18 -11 1z"/>
<path d="M1130 2606 c-12 -19 -12 -20 3 -7 20 16 21 12 7 -25 -9 -23 -8 -25 4
-15 18 15 26 68 10 68 -6 0 -17 -10 -24 -21z"/>
<path d="M460 2609 c0 -5 5 -7 10 -4 6 3 10 8 10 11 0 2 -4 4 -10 4 -5 0 -10
-5 -10 -11z"/>
<path d="M765 2599 c-20 -13 -24 -19 -13 -19 28 0 70 19 63 30 -8 13 -15 12
-50 -11z"/>
<path d="M1053 2601 c0 -11 4 -18 8 -15 4 2 10 0 14 -6 3 -5 1 -10 -5 -10 -5
0 1 -22 15 -50 14 -27 27 -50 28 -50 2 0 3 13 3 29 0 17 -3 28 -7 25 -9 -5
-24 35 -21 54 2 6 -2 12 -8 12 -5 0 -10 7 -10 15 0 8 -4 15 -9 15 -6 0 -9 -9
-8 -19z"/>
<path d="M494 2584 c-21 -14 -41 -28 -43 -30 -2 -2 10 -2 27 -1 17 1 30 4 30
7 -1 20 3 30 11 25 5 -3 13 0 16 6 14 21 -3 19 -41 -7z"/>
<path d="M2174 2592 c-16 -26 -2 -66 24 -70 23 -3 30 12 11 23 -6 4 -8 12 -6
19 3 6 -1 19 -7 28 -11 15 -13 15 -22 0z"/>
<path d="M1169 2563 l-24 -28 28 24 c25 23 32 31 24 31 -2 0 -14 -12 -28 -27z"/>
<path d="M2367 2569 c4 -13 8 -18 11 -10 2 7 -1 18 -6 23 -8 8 -9 4 -5 -13z"/>
<path d="M860 2570 c-13 -8 -12 -10 3 -10 9 0 17 5 17 10 0 12 -1 12 -20 0z"/>
<path d="M715 2560 c-3 -5 -1 -10 4 -10 6 0 11 5 11 10 0 6 -2 10 -4 10 -3 0
-8 -4 -11 -10z"/>
<path d="M1556 2555 c4 -8 8 -15 10 -15 2 0 4 7 4 15 0 8 -4 15 -10 15 -5 0
-7 -7 -4 -15z"/>
<path d="M899 2533 c-7 -15 -13 -37 -14 -48 -1 -11 -4 -24 -6 -30 -2 -5 0 -11
6 -12 5 -2 10 5 10 15 0 9 5 16 11 15 7 -1 9 8 6 22 -2 15 0 25 7 25 6 0 12
-4 12 -10 1 -5 2 -15 3 -22 0 -6 7 -13 14 -15 21 -8 13 28 -13 59 l-25 29 -11
-28z"/>
<path d="M407 2528 c-9 -31 -2 -33 11 -3 6 14 8 25 3 25 -5 0 -11 -10 -14 -22z"/>
<path d="M570 2546 c0 -2 7 -7 16 -10 8 -3 12 -2 9 4 -6 10 -25 14 -25 6z"/>
<path d="M1400 2530 c-8 -5 -10 -10 -5 -10 6 0 17 5 25 10 8 5 11 10 5 10 -5
0 -17 -5 -25 -10z"/>
<path d="M2377 2506 c4 -17 0 -25 -11 -28 -12 -2 -10 -5 7 -14 21 -9 22 -8 19
23 -2 18 -8 35 -12 38 -4 2 -5 -6 -3 -19z"/>
<path d="M1268 2501 c-9 -11 -14 -22 -11 -25 4 -3 13 3 21 15 18 26 11 34 -10
10z"/>
<path d="M1436 2512 c-3 -5 1 -9 9 -9 8 0 15 4 15 9 0 4 -4 8 -9 8 -6 0 -12
-4 -15 -8z"/>
<path d="M1475 2511 c-3 -5 -1 -12 4 -15 5 -3 11 1 15 9 6 16 -9 21 -19 6z"/>
<path d="M1555 2510 c-3 -5 -2 -10 4 -10 5 0 13 5 16 10 3 6 2 10 -4 10 -5 0
-13 -4 -16 -10z"/>
<path d="M1750 2509 c0 -5 9 -9 20 -9 11 0 20 2 20 4 0 2 -9 6 -20 9 -11 3
-20 1 -20 -4z"/>
<path d="M750 2506 c0 -2 9 -6 20 -9 11 -3 20 -1 20 4 0 5 -9 9 -20 9 -11 0
-20 -2 -20 -4z"/>
<path d="M1809 2497 c5 -5 19 -7 32 -5 20 3 19 5 -9 9 -20 3 -29 2 -23 -4z"/>
<path d="M2180 2500 c0 -5 5 -10 11 -10 5 0 7 5 4 10 -3 6 -8 10 -11 10 -2 0
-4 -4 -4 -10z"/>
<path d="M647 2479 c-4 -16 -3 -18 9 -8 11 9 14 9 14 0 0 -7 5 -9 10 -6 6 4 5
12 -4 21 -19 19 -23 18 -29 -7z"/>
<path d="M555 2480 c3 -5 8 -10 11 -10 2 0 4 5 4 10 0 6 -5 10 -11 10 -5 0 -7
-4 -4 -10z"/>
<path d="M1570 2474 c0 -8 5 -12 10 -9 6 3 10 10 10 16 0 5 -4 9 -10 9 -5 0
-10 -7 -10 -16z"/>
<path d="M1288 2467 c-21 -6 -38 -15 -38 -19 0 -5 8 -7 18 -4 13 4 23 -4 36
-29 13 -24 26 -35 42 -35 12 0 35 -5 49 -10 15 -6 32 -7 38 -3 7 4 2 10 -13
13 -14 4 -24 12 -22 18 1 7 -2 12 -8 12 -5 0 -10 -6 -10 -12 0 -7 -12 0 -25
15 -14 15 -25 24 -25 20 0 -5 5 -14 12 -21 9 -9 9 -12 0 -12 -19 0 -35 50 -21
66 6 8 10 13 8 13 -2 -1 -21 -6 -41 -12z"/>
<path d="M701 2460 c-18 -11 16 -44 50 -47 23 -3 24 -2 4 12 -11 9 -25 22 -31
29 -6 9 -15 11 -23 6z"/>
<path d="M974 2463 c10 -10 46 -11 40 -1 -3 4 -15 8 -26 8 -12 0 -18 -3 -14
-7z"/>
<path d="M820 2456 c0 -9 30 -14 35 -6 4 6 -3 10 -14 10 -12 0 -21 -2 -21 -4z"/>
<path d="M948 2449 c-2 -8 -2 -25 1 -38 l6 -23 25 21 c20 16 22 20 8 21 -9 0
-21 7 -26 16 -7 13 -10 13 -14 3z"/>
<path d="M1545 2450 c-3 -5 -1 -10 4 -10 6 0 11 5 11 10 0 6 -2 10 -4 10 -3 0
-8 -4 -11 -10z"/>
<path d="M2283 2443 c1 -12 3 -20 6 -18 2 3 10 -3 17 -13 7 -9 14 -12 14 -6 0
7 -9 22 -19 35 l-20 24 2 -22z"/>
<path d="M520 2440 c0 -6 5 -8 10 -5 6 3 10 1 10 -4 0 -6 7 -11 15 -11 8 0 15
5 15 10 0 6 -4 10 -9 10 -5 0 -16 3 -25 6 -9 3 -16 1 -16 -6z"/>
<path d="M620 2440 c0 -5 5 -10 11 -10 5 0 7 5 4 10 -3 6 -8 10 -11 10 -2 0
-4 -4 -4 -10z"/>
<path d="M1368 2443 c7 -3 16 -2 19 1 4 3 -2 6 -13 5 -11 0 -14 -3 -6 -6z"/>
<path d="M1442 2424 c-34 -23 -26 -32 18 -21 22 6 40 15 40 20 0 4 -5 5 -11 1
-6 -3 -14 -2 -18 5 -5 7 -14 6 -29 -5z"/>
<path d="M1610 2431 c0 -5 5 -13 10 -16 6 -3 10 -2 10 4 0 5 -4 13 -10 16 -5
3 -10 2 -10 -4z"/>
<path d="M1927 2423 c-11 -11 -17 -13 -17 -5 0 7 -10 12 -21 12 -17 0 -19 -3
-10 -14 10 -11 8 -15 -6 -19 -10 -3 -4 -5 12 -4 17 1 38 11 48 21 27 30 22 37
-6 9z"/>
<path d="M585 2410 c-3 -5 -1 -10 4 -10 6 0 11 5 11 10 0 6 -2 10 -4 10 -3 0
-8 -4 -11 -10z"/>
<path d="M2200 2415 c0 -2 18 -14 39 -26 43 -24 51 -40 45 -95 -4 -46 -10 -51
-34 -36 -12 7 -20 8 -20 2 0 -5 14 -16 30 -25 17 -9 30 -22 30 -29 0 -8 9 -16
20 -19 19 -5 19 -4 -1 22 -16 22 -18 32 -10 54 12 31 11 77 -2 77 -4 0 -6 4
-2 9 6 10 -59 64 -81 67 -8 1 -14 1 -14 -1z"/>
<path d="M770 2400 c-13 -9 -13 -10 0 -10 8 0 22 5 30 10 13 9 13 10 0 10 -8
0 -22 -5 -30 -10z"/>
<path d="M1045 2400 c-3 -5 -1 -10 4 -10 6 0 11 5 11 10 0 6 -2 10 -4 10 -3 0
-8 -4 -11 -10z"/>
<path d="M1765 2400 c-3 -5 -1 -10 4 -10 6 0 11 5 11 10 0 6 -2 10 -4 10 -3 0
-8 -4 -11 -10z"/>
<path d="M1795 2400 c-3 -5 -2 -10 4 -10 5 0 13 5 16 10 3 6 2 10 -4 10 -5 0
-13 -4 -16 -10z"/>
<path d="M615 2391 c-3 -5 -2 -12 3 -15 5 -3 9 1 9 9 0 17 -3 19 -12 6z"/>
<path d="M876 2358 c-9 -10 -12 -18 -7 -18 5 0 19 8 31 18 17 14 19 19 7 19
-8 0 -22 -9 -31 -19z"/>
<path d="M2390 2360 c-8 -5 -12 -12 -9 -15 4 -3 12 1 19 10 14 17 11 19 -10 5z"/>
<path d="M2802 2354 c-7 -8 -8 -14 -3 -14 10 0 25 19 20 25 -2 1 -10 -3 -17
-11z"/>
<path d="M510 2351 c0 -6 4 -13 10 -16 6 -3 7 1 4 9 -7 18 -14 21 -14 7z"/>
<path d="M694 2345 c3 -21 16 -31 16 -12 0 9 -4 18 -9 21 -5 4 -8 -1 -7 -9z"/>
<path d="M1950 2340 c0 -5 5 -10 11 -10 5 0 7 5 4 10 -3 6 -8 10 -11 10 -2 0
-4 -4 -4 -10z"/>
<path d="M580 2332 c0 -12 19 -26 26 -19 2 2 -2 10 -11 17 -9 8 -15 8 -15 2z"/>
<path d="M1860 2323 c0 -12 5 -25 11 -28 16 -11 17 -2 2 25 -12 24 -13 24 -13
3z"/>
<path d="M1598 2323 c7 -3 16 -2 19 1 4 3 -2 6 -13 5 -11 0 -14 -3 -6 -6z"/>
<path d="M1670 2318 c0 -9 5 -20 10 -23 13 -8 13 5 0 25 -8 13 -10 13 -10 -2z"/>
<path d="M1369 2303 c-13 -17 -13 -17 6 -3 11 8 22 16 24 17 2 2 0 3 -6 3 -6
0 -17 -8 -24 -17z"/>
<path d="M1422 2304 c-9 -7 -14 -16 -9 -20 4 -4 7 -2 7 3 0 6 11 10 25 8 14
-1 25 3 25 10 0 15 -26 15 -48 -1z"/>
<path d="M1911 2313 c0 -5 4 -17 9 -28 8 -17 8 -16 7 8 -1 15 -5 27 -9 27 -4
0 -8 -3 -7 -7z"/>
<path d="M716 2301 c-4 -7 -5 -15 -2 -18 9 -9 19 4 14 18 -4 11 -6 11 -12 0z"/>
<path d="M946 2302 c-4 -7 -2 -12 4 -12 7 0 10 -7 7 -15 -4 -8 -1 -17 5 -21 6
-4 8 -3 4 4 -3 6 -2 13 4 17 5 3 10 11 10 16 0 6 -4 8 -9 5 -5 -4 -11 -1 -13
6 -3 9 -6 9 -12 0z"/>
<path d="M650 2288 c0 -11 12 -10 30 2 12 7 10 9 -8 7 -12 0 -22 -5 -22 -9z"/>
<path d="M1483 2285 c-3 -9 -3 -18 -1 -21 3 -3 8 4 11 16 6 23 -1 27 -10 5z"/>
<path d="M595 2280 c-3 -6 1 -7 9 -4 18 7 21 14 7 14 -6 0 -13 -4 -16 -10z"/>
<path d="M2817 2283 c-4 -3 -7 -15 -7 -26 0 -25 13 -14 17 13 3 21 1 24 -10
13z"/>
<path d="M1182 2258 c-18 -11 -31 -22 -29 -24 5 -6 65 25 72 37 9 14 -7 9 -43
-13z"/>
<path d="M542 2256 c7 -8 16 -12 20 -10 3 2 13 -3 22 -11 8 -9 17 -11 21 -6 3
6 13 7 22 4 11 -5 14 -3 9 6 -5 7 -16 11 -26 8 -9 -2 -28 2 -41 9 -31 17 -43
17 -27 0z"/>
<path d="M900 2258 c0 -19 38 -78 50 -78 18 0 11 29 -10 40 -11 6 -20 17 -20
25 0 7 -4 17 -10 20 -5 3 -10 0 -10 -7z"/>
<path d="M1896 2243 c3 -16 12 -42 20 -60 18 -40 9 -70 -15 -51 -14 11 -14 11
-4 -3 7 -9 9 -20 5 -25 -4 -5 3 0 16 11 16 13 22 27 19 42 -2 12 0 20 4 17 14
-8 10 14 -4 28 -8 6 -11 22 -9 35 4 19 1 22 -13 16 -13 -4 -16 -3 -11 5 4 7 2
12 -4 12 -6 0 -8 -11 -4 -27z"/>
<path d="M2075 2250 c3 -5 8 -10 11 -10 2 0 4 5 4 10 0 6 -5 10 -11 10 -5 0
-7 -4 -4 -10z"/>
<path d="M722 2224 c-7 -14 -8 -23 -2 -19 15 9 32 45 22 45 -5 0 -14 -12 -20
-26z"/>
<path d="M1305 2240 c-3 -5 -1 -10 4 -10 6 0 11 5 11 10 0 6 -2 10 -4 10 -3 0
-8 -4 -11 -10z"/>
<path d="M1565 2241 c-6 -5 -19 -11 -30 -13 -17 -3 -18 -5 -3 -10 10 -4 23 1
34 13 17 19 16 27 -1 10z"/>
<path d="M670 2231 c0 -5 5 -13 10 -16 6 -3 10 -2 10 4 0 5 -4 13 -10 16 -5 3
-10 2 -10 -4z"/>
<path d="M1220 2220 c-13 -9 -13 -11 0 -19 16 -11 43 5 34 20 -7 11 -15 11
-34 -1z"/>
<path d="M1807 2219 c7 -9 11 -18 8 -21 -3 -3 3 -11 12 -19 16 -12 17 -12 6 2
-7 9 -11 18 -8 21 3 3 -3 11 -12 19 -16 12 -17 12 -6 -2z"/>
<path d="M2390 2222 c0 -5 9 -20 20 -33 17 -21 19 -21 13 -4 -8 23 -33 51 -33
37z"/>
<path d="M1578 2213 c-10 -2 -18 -11 -18 -19 0 -11 4 -10 20 3 17 15 26 26 18
22 -2 -1 -11 -3 -20 -6z"/>
<path d="M1160 2199 c0 -5 -4 -8 -8 -5 -4 2 -14 0 -22 -6 -12 -8 -12 -9 3 -4
16 5 22 -8 18 -41 -3 -21 7 -15 21 15 15 29 13 52 -3 52 -5 0 -9 -5 -9 -11z"/>
<path d="M1750 2207 c0 -2 15 -14 33 -27 17 -13 26 -17 20 -8 -7 8 -12 17 -10
19 1 2 0 3 -2 2 -2 -1 -12 2 -22 8 -11 5 -19 8 -19 6z"/>
<path d="M2365 2200 c3 -5 11 -10 16 -10 6 0 7 5 4 10 -3 6 -11 10 -16 10 -6
0 -7 -4 -4 -10z"/>
<path d="M915 2174 c9 -9 19 -13 23 -10 3 4 0 11 -8 16 -24 15 -33 11 -15 -6z"/>
<path d="M1594 2174 c-18 -14 -18 -15 4 -4 12 6 22 13 22 15 0 8 -5 6 -26 -11z"/>
<path d="M1325 2171 c-3 -5 -2 -12 3 -15 5 -3 9 1 9 9 0 17 -3 19 -12 6z"/>
<path d="M1535 2170 c-4 -6 3 -10 14 -10 25 0 27 6 6 13 -8 4 -17 2 -20 -3z"/>
<path d="M2280 2176 c0 -2 7 -20 15 -39 16 -40 30 -53 40 -37 3 5 1 10 -5 10
-6 0 -18 16 -26 35 -12 30 -24 45 -24 31z"/>
<path d="M2443 2165 c0 -8 4 -15 9 -15 4 0 8 4 8 9 0 6 -4 12 -8 15 -5 3 -9
-1 -9 -9z"/>
<path d="M1497 2159 c7 -7 15 -10 18 -7 3 3 -2 9 -12 12 -14 6 -15 5 -6 -5z"/>
<path d="M1855 2151 c2 -11 -1 -21 -6 -21 -6 0 -7 -4 -4 -10 3 -5 2 -10 -2
-10 -8 0 -14 -28 -17 -77 0 -13 -5 -23 -9 -23 -5 0 -5 -5 -1 -11 4 -8 11 -3
20 12 7 13 10 27 8 31 -3 5 -2 14 3 21 4 6 8 18 10 26 1 7 7 19 13 25 8 8 9 6
5 -9 -6 -16 -5 -17 4 -5 7 10 6 19 -4 30 -7 8 -14 19 -13 23 0 5 -3 11 -6 14
-3 3 -4 -4 -1 -16z"/>
<path d="M1780 2156 c0 -2 8 -10 18 -17 15 -13 16 -12 3 4 -13 16 -21 21 -21
13z"/>
<path d="M1953 2137 c-2 -25 32 -76 43 -64 4 4 -3 18 -15 31 -13 14 -20 29
-17 35 4 5 3 12 -2 15 -4 2 -9 -5 -9 -17z"/>
<path d="M962 2128 c7 -13 18 -30 24 -38 16 -23 43 -100 50 -148 4 -25 11 -41
18 -39 6 3 10 9 9 14 -1 5 4 10 11 10 7 0 11 -8 9 -17 -2 -8 5 -24 16 -34 25
-23 26 -17 7 29 -8 19 -13 47 -11 62 2 16 2 22 -1 15 -5 -10 -9 -10 -22 0 -14
10 -13 8 1 -8 16 -19 16 -22 2 -28 -9 -3 -13 -2 -10 4 3 6 2 10 -3 10 -4 0
-16 26 -26 57 -10 32 -25 67 -32 78 -8 12 -11 25 -7 28 3 4 -1 7 -10 7 -9 0
-17 5 -17 10 0 6 -5 10 -10 10 -6 0 -5 -9 2 -22z"/>
<path d="M1277 2127 c-3 -8 0 -14 7 -14 7 0 13 6 13 14 0 7 -4 13 -8 13 -4 0
-9 -6 -12 -13z"/>
<path d="M1457 2121 c10 -13 21 -17 26 -12 5 5 17 7 26 4 12 -5 13 -3 5 6 -6
7 -26 15 -43 17 -31 5 -32 5 -14 -15z"/>
<path d="M1581 2121 c-10 -6 -10 -10 -1 -16 13 -8 24 -1 19 14 -3 6 -10 7 -18
2z"/>
<path d="M2045 2110 c-8 -12 12 -40 28 -40 5 0 3 8 -6 18 -10 10 -14 22 -10
25 3 4 4 7 0 7 -3 0 -9 -5 -12 -10z"/>
<path d="M1494 2097 c1 -7 10 -23 20 -37 12 -16 16 -19 12 -7 -3 10 -6 25 -6
32 0 7 -6 15 -14 18 -8 3 -13 0 -12 -6z"/>
<path d="M2305 2055 c57 -52 85 -67 85 -45 0 6 -6 9 -12 8 -7 -2 -12 3 -10 10
1 8 -2 11 -6 8 -5 -3 -28 12 -50 34 -22 22 -46 40 -54 40 -7 -1 14 -25 47 -55z"/>
<path d="M1239 2083 c5 -11 8 -23 5 -26 -3 -3 3 -10 14 -16 11 -6 22 -7 26 -4
3 3 6 1 6 -5 0 -7 -6 -12 -12 -12 -7 0 -4 -6 7 -12 11 -6 23 -16 27 -22 4 -6
11 -7 15 -2 4 5 2 11 -5 13 -6 3 -11 8 -9 11 2 4 -16 27 -40 51 -25 24 -40 35
-34 24z"/>
<path d="M2742 2080 c-6 -10 -8 -21 -3 -24 5 -3 11 4 14 16 8 29 4 32 -11 8z"/>
<path d="M1296 2082 c-3 -5 1 -9 9 -9 8 0 12 4 9 9 -3 4 -7 8 -9 8 -2 0 -6 -4
-9 -8z"/>
<path d="M1921 2085 c0 -5 6 -19 14 -29 8 -11 13 -28 10 -37 -6 -17 19 -79 31
-79 3 0 2 5 -2 12 -4 7 -3 8 4 4 7 -4 12 -15 12 -25 0 -10 7 -24 15 -31 12
-10 15 -10 15 4 0 9 -4 16 -10 16 -5 0 -10 9 -10 21 0 12 -8 23 -20 26 -20 5
-35 36 -25 52 8 14 -5 62 -15 56 -5 -3 -11 1 -13 7 -3 7 -6 9 -6 3z"/>
<path d="M2097 2079 c7 -7 15 -10 18 -7 3 3 -2 9 -12 12 -14 6 -15 5 -6 -5z"/>
<path d="M1135 2051 c-3 -5 -2 -12 3 -15 5 -3 9 1 9 9 0 17 -3 19 -12 6z"/>
<path d="M2160 2036 c0 -2 7 -6 15 -10 8 -3 15 -1 15 4 0 6 -7 10 -15 10 -8 0
-15 -2 -15 -4z"/>
<path d="M2950 2030 c0 -5 5 -10 11 -10 5 0 7 5 4 10 -3 6 -8 10 -11 10 -2 0
-4 -4 -4 -10z"/>
<path d="M1139 1979 c23 -29 41 -58 41 -65 0 -16 16 -19 25 -4 3 6 1 10 -5 10
-7 0 -10 5 -8 12 3 7 -9 26 -26 42 -17 17 -30 34 -28 39 1 5 -2 6 -8 2 -5 -3
-10 -1 -10 4 0 6 -5 11 -11 11 -6 0 8 -23 30 -51z"/>
<path d="M1190 2010 c0 -11 2 -20 4 -20 2 0 6 9 9 20 3 11 1 20 -4 20 -5 0 -9
-9 -9 -20z"/>
<path d="M1690 2021 c0 -6 4 -13 10 -16 6 -3 7 1 4 9 -7 18 -14 21 -14 7z"/>
<path d="M1662 1995 c-11 -12 -10 -15 3 -15 8 0 15 7 15 15 0 18 -2 18 -18 0z"/>
<path d="M1742 1984 c10 -10 20 -16 22 -13 3 3 -5 11 -17 18 -21 13 -21 12 -5
-5z"/>
<path d="M1885 1969 c-4 -6 -5 -12 -2 -15 2 -3 7 2 10 11 7 17 1 20 -8 4z"/>
<path d="M2235 1957 c10 -15 20 -25 23 -22 3 3 -5 16 -17 28 l-23 22 17 -28z"/>
<path d="M854 1951 c3 -9 8 -38 11 -65 8 -74 15 -68 15 11 0 56 -3 70 -15 70
-9 0 -13 -7 -11 -16z"/>
<path d="M1515 1950 c10 -11 20 -20 23 -20 3 0 -3 9 -13 20 -10 11 -20 20 -23
20 -3 0 3 -9 13 -20z"/>
<path d="M1117 1949 c7 -7 15 -10 18 -7 3 3 -2 9 -12 12 -14 6 -15 5 -6 -5z"/>
<path d="M1321 1944 c0 -11 3 -14 6 -6 3 7 2 16 -1 19 -3 4 -6 -2 -5 -13z"/>
<path d="M1803 1945 c-3 -9 -3 -18 -1 -21 3 -3 8 4 11 16 6 23 -1 27 -10 5z"/>
<path d="M1343 1930 c-1 -10 5 -21 14 -24 12 -5 13 -4 5 7 -7 8 -9 16 -6 19 3
3 1 8 -3 11 -5 3 -9 -3 -10 -13z"/>
<path d="M1460 1941 c0 -6 4 -13 10 -16 6 -3 7 1 4 9 -7 18 -14 21 -14 7z"/>
<path d="M2755 1930 c-3 -6 1 -7 9 -4 18 7 21 14 7 14 -6 0 -13 -4 -16 -10z"/>
<path d="M2040 1921 c0 -10 30 -24 37 -17 3 3 2 9 -2 15 -8 13 -35 15 -35 2z"/>
<path d="M2135 1920 c-3 -5 -1 -10 4 -10 6 0 11 5 11 10 0 6 -2 10 -4 10 -3 0
-8 -4 -11 -10z"/>
<path d="M930 1909 c0 -5 -4 -8 -9 -5 -5 4 -7 -3 -4 -14 3 -11 9 -23 14 -26 5
-3 6 2 3 11 -4 8 -1 22 6 30 9 10 9 15 1 15 -6 0 -11 -5 -11 -11z"/>
<path d="M2228 1903 c7 -3 16 -2 19 1 4 3 -2 6 -13 5 -11 0 -14 -3 -6 -6z"/>
<path d="M2343 1896 c-9 -11 -7 -14 12 -12 17 1 21 4 13 14 -12 14 -10 14 -25
-2z"/>
<path d="M1045 1828 c0 -36 3 -61 7 -55 5 7 8 0 8 -15 0 -33 37 -230 51 -276
17 -52 20 -32 4 27 -12 45 -12 52 0 47 8 -3 17 0 21 6 4 6 3 8 -3 5 -19 -12
-48 87 -60 201 -2 23 -10 61 -16 84 l-12 41 0 -65z"/>
<path d="M1368 1878 c11 -14 10 -17 -5 -21 -16 -4 -16 -5 -1 -6 25 -2 30 15
10 30 -15 13 -16 12 -4 -3z"/>
<path d="M1480 1880 c-9 -6 -10 -10 -3 -10 6 0 15 5 18 10 8 12 4 12 -15 0z"/>
<path d="M1680 1869 c-10 -18 -9 -19 7 -11 10 5 24 7 31 5 19 -7 14 5 -8 17
-15 8 -21 6 -30 -11z"/>
<path d="M2030 1882 c0 -5 7 -15 15 -22 8 -7 15 -8 15 -2 0 5 -7 15 -15 22 -8
7 -15 8 -15 2z"/>
<path d="M1277 1855 c-4 -8 -2 -17 4 -20 5 -4 7 -11 4 -16 -4 -5 -1 -9 4 -9
14 0 14 17 1 25 -8 5 -7 11 1 21 7 8 7 14 1 14 -5 0 -12 -7 -15 -15z"/>
<path d="M1995 1850 c-3 -5 0 -7 9 -4 10 4 14 0 13 -15 -1 -12 -5 -21 -10 -21
-4 0 -5 -5 -2 -10 4 -6 11 -8 16 -5 5 4 9 1 9 -4 0 -6 -7 -11 -15 -11 -8 0
-15 -4 -15 -9 0 -5 9 -7 20 -4 22 6 23 14 14 62 -6 30 -27 41 -39 21z"/>
<path d="M2076 1847 c3 -10 9 -15 12 -12 3 3 0 11 -7 18 -10 9 -11 8 -5 -6z"/>
<path d="M2240 1849 c0 -12 49 -43 57 -36 3 4 1 13 -6 21 -14 17 -51 28 -51
15z"/>
<path d="M1500 1832 c6 -13 14 -21 18 -18 3 4 -2 14 -12 24 -18 16 -18 16 -6
-6z"/>
<path d="M2157 1834 c3 -9 15 -12 29 -10 19 4 24 0 24 -17 1 -20 1 -21 11 -4
13 23 10 27 -34 37 -28 6 -34 5 -30 -6z"/>
<path d="M1635 1830 c3 -5 8 -10 11 -10 2 0 4 5 4 10 0 6 -5 10 -11 10 -5 0
-7 -4 -4 -10z"/>
<path d="M1669 1823 c-13 -16 -12 -17 4 -4 9 7 17 15 17 17 0 8 -8 3 -21 -13z"/>
<path d="M2330 1825 c-11 -13 -8 -15 15 -15 23 0 26 2 15 15 -7 8 -14 15 -15
15 -1 0 -8 -7 -15 -15z"/>
<path d="M1925 1819 c-4 -6 -5 -12 -2 -15 2 -3 7 2 10 11 7 17 1 20 -8 4z"/>
<path d="M1796 1808 c3 -5 10 -6 15 -3 13 9 11 12 -6 12 -8 0 -12 -4 -9 -9z"/>
<path d="M900 1806 c0 -2 7 -9 15 -16 13 -11 14 -10 9 4 -5 14 -24 23 -24 12z"/>
<path d="M1540 1790 c0 -5 5 -10 11 -10 5 0 7 5 4 10 -3 6 -8 10 -11 10 -2 0
-4 -4 -4 -10z"/>
<path d="M1640 1790 c0 -5 5 -10 11 -10 5 0 7 5 4 10 -3 6 -8 10 -11 10 -2 0
-4 -4 -4 -10z"/>
<path d="M1744 1787 c-4 -6 -4 -9 1 -5 4 4 14 3 22 -4 7 -6 15 -9 18 -7 2 3
-4 10 -15 17 -15 9 -21 9 -26 -1z"/>
<path d="M2276 1786 c3 -9 11 -16 16 -16 13 0 5 23 -10 28 -7 2 -10 -2 -6 -12z"/>
<path d="M948 1781 c8 -4 13 -12 12 -17 -1 -5 3 -10 9 -12 6 -2 11 0 11 5 0
12 -22 33 -34 33 -6 0 -5 -4 2 -9z"/>
<path d="M1500 1783 c8 -3 18 -11 22 -17 5 -7 8 -4 8 7 0 11 -7 17 -22 16 -16
0 -18 -2 -8 -6z"/>
<path d="M1930 1778 c-12 -8 -12 -9 2 -5 9 3 19 1 22 -6 3 -9 5 -9 5 0 1 18
-13 23 -29 11z"/>
<path d="M2346 1777 c3 -10 9 -15 12 -12 3 3 0 11 -7 18 -10 9 -11 8 -5 -6z"/>
<path d="M1290 1771 c0 -6 4 -13 10 -16 6 -3 7 1 4 9 -7 18 -14 21 -14 7z"/>
<path d="M1648 1763 c7 -3 16 -2 19 1 4 3 -2 6 -13 5 -11 0 -14 -3 -6 -6z"/>
<path d="M1824 1748 c-4 -7 -4 -10 1 -6 4 4 15 2 24 -5 14 -11 14 -10 2 6 -16
20 -18 21 -27 5z"/>
<path d="M2030 1740 c0 -11 5 -20 10 -20 6 0 10 9 10 20 0 11 -4 20 -10 20 -5
0 -10 -9 -10 -20z"/>
<path d="M2080 1746 c0 -8 5 -18 10 -21 6 -3 10 1 10 9 0 8 -4 18 -10 21 -5 3
-10 -1 -10 -9z"/>
<path d="M2209 1738 c4 -13 6 -29 4 -35 -3 -7 3 -23 11 -35 13 -19 16 -19 16
-5 0 26 -24 97 -32 97 -4 0 -4 -10 1 -22z"/>
<path d="M2293 1746 c11 -9 15 -20 10 -32 -7 -18 -6 -18 11 -1 18 17 18 18 0
32 -11 8 -23 14 -29 14 -5 0 -2 -6 8 -13z"/>
<path d="M1555 1740 c-3 -5 -1 -10 4 -10 6 0 11 5 11 10 0 6 -2 10 -4 10 -3 0
-8 -4 -11 -10z"/>
<path d="M1630 1740 c-13 -8 -12 -10 3 -10 9 0 17 5 17 10 0 12 -1 12 -20 0z"/>
<path d="M2242 1738 c27 -22 37 -50 27 -76 l-9 -25 23 23 23 23 -23 23 c-13
13 -23 28 -23 34 0 5 -8 10 -17 10 -15 0 -15 -1 -1 -12z"/>
<path d="M1248 1733 c7 -3 16 -2 19 1 4 3 -2 6 -13 5 -11 0 -14 -3 -6 -6z"/>
<path d="M1670 1730 c-8 -5 -10 -10 -5 -10 6 0 17 5 25 10 8 5 11 10 5 10 -5
0 -17 -5 -25 -10z"/>
<path d="M1758 1733 c6 -3 12 -11 12 -19 0 -8 4 -14 9 -14 20 0 7 36 -13 37
-12 1 -15 -1 -8 -4z"/>
<path d="M1010 1719 c0 -4 4 -11 10 -14 13 -8 -11 -45 -25 -39 -5 3 -1 -2 10
-11 19 -15 20 -15 27 7 11 41 9 65 -7 65 -8 0 -15 -4 -15 -8z"/>
<path d="M1150 1726 c0 -2 7 -7 16 -10 8 -3 12 -2 9 4 -6 10 -25 14 -25 6z"/>
<path d="M1959 1713 c-13 -16 -12 -17 4 -4 9 7 17 15 17 17 0 8 -8 3 -21 -13z"/>
<path d="M880 1700 c-9 -6 -10 -10 -3 -10 6 0 15 5 18 10 8 12 4 12 -15 0z"/>
<path d="M1108 1693 c6 -2 10 -9 7 -14 -4 -5 1 -6 10 -2 13 5 14 7 3 14 -7 5
-17 8 -23 8 -5 0 -4 -3 3 -6z"/>
<path d="M1785 1687 c-15 -12 -16 -15 -4 -22 8 -5 10 -4 6 0 -4 5 3 15 15 22
13 7 18 12 12 13 -5 0 -18 -6 -29 -13z"/>
<path d="M930 1680 c0 -6 7 -10 15 -10 8 0 15 2 15 4 0 2 -7 6 -15 10 -8 3
-15 1 -15 -4z"/>
<path d="M1749 1685 c-1 -3 -2 -8 -3 -12 -1 -5 -5 -15 -10 -23 -7 -12 -6 -13
4 -3 13 12 23 43 14 43 -2 0 -5 -2 -5 -5z"/>
<path d="M1834 1670 c0 -13 4 -16 10 -10 7 7 7 13 0 20 -6 6 -10 3 -10 -10z"/>
<path d="M870 1672 c0 -15 59 -62 65 -52 3 6 2 10 -4 10 -6 0 -22 11 -36 25
-14 14 -25 22 -25 17z"/>
<path d="M1959 1653 c-13 -16 -12 -17 4 -4 9 7 17 15 17 17 0 8 -8 3 -21 -13z"/>
<path d="M1873 1632 c2 -12 6 -24 10 -28 3 -4 4 4 2 16 -6 30 -16 40 -12 12z"/>
<path d="M1476 1629 c3 -5 12 -9 21 -9 19 0 9 13 -12 16 -8 1 -13 -2 -9 -7z"/>
<path d="M1794 1622 c1 -17 19 -17 24 0 3 10 1 10 -6 -1 -9 -12 -11 -12 -14 0
-3 9 -5 10 -4 1z"/>
<path d="M2146 1605 c-20 -19 -40 -35 -46 -35 -5 0 -10 -9 -10 -21 0 -12 -8
-23 -20 -26 -11 -3 -20 -10 -20 -15 0 -5 -5 -6 -10 -3 -6 4 -10 3 -9 -2 3 -20
-2 -34 -11 -28 -6 4 -10 3 -9 -2 6 -26 -66 -137 -82 -127 -5 3 -7 10 -4 15 4
5 2 16 -3 25 -8 15 -10 15 -15 0 -4 -10 -3 -15 2 -12 4 3 8 -20 9 -52 1 -31 6
-70 11 -87 9 -26 9 -24 5 16 -4 29 -1 56 6 70 20 39 134 181 180 224 50 48 85
95 71 95 -6 0 -26 -16 -45 -35z"/>
<path d="M2240 1631 c0 -5 5 -13 10 -16 6 -3 10 -2 10 4 0 5 -4 13 -10 16 -5
3 -10 2 -10 -4z"/>
<path d="M1126 1612 c-3 -5 4 -16 14 -25 11 -9 22 -12 25 -7 3 5 -4 11 -15 15
-11 4 -18 11 -15 16 4 5 4 9 1 9 -3 0 -7 -4 -10 -8z"/>
<path d="M1176 1612 c-3 -5 1 -9 9 -9 8 0 12 4 9 9 -3 4 -7 8 -9 8 -2 0 -6 -4
-9 -8z"/>
<path d="M1650 1609 c0 -5 5 -7 10 -4 6 3 10 8 10 11 0 2 -4 4 -10 4 -5 0 -10
-5 -10 -11z"/>
<path d="M1571 1596 c-9 -11 -9 -16 1 -22 7 -4 10 -4 6 1 -4 4 -3 14 3 22 6 7
9 13 6 13 -2 0 -10 -6 -16 -14z"/>
<path d="M1963 1595 c0 -8 4 -12 9 -9 5 3 6 10 3 15 -9 13 -12 11 -12 -6z"/>
<path d="M1990 1596 c0 -2 7 -7 16 -10 8 -3 12 -2 9 4 -6 10 -25 14 -25 6z"/>
<path d="M1600 1570 c-9 -6 -10 -10 -3 -10 6 0 15 5 18 10 8 12 4 12 -15 0z"/>
<path d="M1799 1569 c5 -6 7 -19 4 -28 -4 -9 -4 -14 -2 -11 30 36 41 53 28 43
-10 -8 -19 -9 -27 -3 -8 7 -9 7 -3 -1z"/>
<path d="M991 1554 c-7 -8 -11 -17 -8 -20 8 -9 37 8 37 22 0 18 -11 17 -29 -2z"/>
<path d="M1973 1555 c-3 -9 -3 -18 -1 -21 3 -3 8 4 11 16 6 23 -1 27 -10 5z"/>
<path d="M2956 1562 c-3 -5 1 -9 9 -9 8 0 12 4 9 9 -3 4 -7 8 -9 8 -2 0 -6 -4
-9 -8z"/>
<path d="M1870 1555 c0 -2 6 -8 13 -14 10 -8 14 -7 14 2 0 8 -6 14 -14 14 -7
0 -13 -1 -13 -2z"/>
<path d="M1740 1540 c-9 -6 -10 -10 -3 -10 6 0 15 5 18 10 8 12 4 12 -15 0z"/>
<path d="M963 1501 c1 -15 11 -27 27 -33 l25 -8 -21 17 c-12 10 -24 25 -28 33
-3 8 -4 4 -3 -9z"/>
<path d="M1016 1505 c4 -8 10 -15 15 -15 4 0 6 7 3 15 -4 8 -10 15 -15 15 -4
0 -6 -7 -3 -15z"/>
<path d="M1730 1510 c-9 -6 -10 -10 -3 -10 6 0 15 5 18 10 8 12 4 12 -15 0z"/>
<path d="M1860 1486 c0 -2 7 -9 15 -16 9 -7 15 -8 15 -2 0 5 -7 12 -15 16 -8
3 -15 4 -15 2z"/>
<path d="M1319 1463 c-13 -16 -12 -17 4 -4 9 7 17 15 17 17 0 8 -8 3 -21 -13z"/>
<path d="M1810 1470 c-9 -6 -10 -10 -3 -10 6 0 15 5 18 10 8 12 4 12 -15 0z"/>
<path d="M1175 1460 c3 -5 8 -10 11 -10 2 0 4 5 4 10 0 6 -5 10 -11 10 -5 0
-7 -4 -4 -10z"/>
<path d="M1036 1447 c3 -10 9 -15 12 -12 3 3 0 11 -7 18 -10 9 -11 8 -5 -6z"/>
<path d="M1194 1425 c-4 -8 -1 -22 6 -30 7 -8 9 -15 5 -15 -4 0 -2 -6 4 -13 6
-8 8 -17 4 -20 -9 -9 38 -58 49 -51 4 3 6 10 2 15 -3 5 -8 7 -12 5 -4 -2 -13
2 -20 10 -7 8 -9 14 -3 14 11 0 2 42 -11 51 -5 3 -10 16 -11 27 -2 26 -5 28
-13 7z"/>
<path d="M1465 1430 c-3 -5 -1 -10 4 -10 6 0 11 5 11 10 0 6 -2 10 -4 10 -3 0
-8 -4 -11 -10z"/>
<path d="M1030 1410 c0 -5 5 -10 11 -10 5 0 7 5 4 10 -3 6 -8 10 -11 10 -2 0
-4 -4 -4 -10z"/>
<path d="M1918 1413 c7 -3 16 -2 19 1 4 3 -2 6 -13 5 -11 0 -14 -3 -6 -6z"/>
<path d="M991 1384 c0 -11 7 -28 17 -37 20 -19 57 -23 47 -6 -4 5 -12 8 -18 6
-15 -5 -33 14 -40 39 -4 17 -5 17 -6 -2z"/>
<path d="M1055 1380 c3 -5 8 -10 11 -10 2 0 4 5 4 10 0 6 -5 10 -11 10 -5 0
-7 -4 -4 -10z"/>
<path d="M1175 1359 c-4 -6 -5 -12 -2 -15 2 -3 7 2 10 11 7 17 1 20 -8 4z"/>
<path d="M1081 1334 c0 -11 3 -14 6 -6 3 7 2 16 -1 19 -3 4 -6 -2 -5 -13z"/>
<path d="M2025 1340 c-4 -6 5 -10 20 -10 15 0 24 4 20 10 -3 6 -12 10 -20 10
-8 0 -17 -4 -20 -10z"/>
<path d="M2415 1320 c3 -5 8 -10 11 -10 2 0 4 5 4 10 0 6 -5 10 -11 10 -5 0
-7 -4 -4 -10z"/>
<path d="M1274 1266 c1 -18 4 -22 14 -14 9 8 9 14 1 24 -16 19 -17 18 -15 -10z"/>
<path d="M1810 1278 c0 -11 12 -10 30 2 12 7 10 9 -8 7 -12 0 -22 -5 -22 -9z"/>
<path d="M1857 1259 c7 -7 15 -10 18 -7 3 3 -2 9 -12 12 -14 6 -15 5 -6 -5z"/>
<path d="M1290 1235 c-11 -13 -10 -14 4 -9 9 3 16 10 16 15 0 13 -6 11 -20 -6z"/>
<path d="M209 1220 c-13 -11 -18 -19 -11 -20 6 0 12 4 12 9 0 5 9 7 20 4 11
-3 20 -1 20 5 0 21 -18 22 -41 2z"/>
<path d="M1476 1213 c-6 -14 -5 -15 5 -6 7 7 10 15 7 18 -3 3 -9 -2 -12 -12z"/>
<path d="M1289 1203 c-12 -16 -12 -17 2 -6 9 7 20 9 24 5 5 -4 5 -1 1 6 -9 16
-11 15 -27 -5z"/>
<path d="M1810 1216 c0 -2 7 -7 16 -10 8 -3 12 -2 9 4 -6 10 -25 14 -25 6z"/>
<path d="M2736 1205 c-4 -13 -2 -14 14 -5 23 13 26 20 6 20 -8 0 -16 -7 -20
-15z"/>
<path d="M140 1192 c-8 -2 -29 -10 -47 -18 -17 -8 -36 -14 -43 -14 -12 0 -40
-24 -40 -34 0 -12 27 -5 85 23 51 25 62 27 71 15 9 -12 12 -10 12 9 0 23 -9
28 -38 19z"/>
<path d="M1233 1190 c19 -61 41 -100 48 -89 5 8 2 20 -7 30 -7 8 -14 20 -14
25 0 6 -7 19 -16 30 -10 12 -14 13 -11 4z"/>
<path d="M1930 1185 c-8 -9 -8 -15 -2 -15 6 0 13 -8 15 -17 3 -10 5 -3 6 15 1
36 -1 38 -19 17z"/>
<path d="M2326 1187 c3 -10 9 -15 12 -12 3 3 0 11 -7 18 -10 9 -11 8 -5 -6z"/>
<path d="M1308 1163 c7 -3 16 -2 19 1 4 3 -2 6 -13 5 -11 0 -14 -3 -6 -6z"/>
<path d="M2240 1160 c0 -5 5 -10 11 -10 5 0 7 5 4 10 -3 6 -8 10 -11 10 -2 0
-4 -4 -4 -10z"/>
<path d="M1776 1151 c-4 -5 3 -7 14 -4 23 6 26 13 6 13 -8 0 -17 -4 -20 -9z"/>
<path d="M2500 1156 c0 -8 51 -13 56 -5 3 5 -9 9 -25 9 -17 0 -31 -2 -31 -4z"/>
<path d="M1345 1140 c3 -5 8 -10 11 -10 2 0 4 5 4 10 0 6 -5 10 -11 10 -5 0
-7 -4 -4 -10z"/>
<path d="M2375 1141 c-3 -6 4 -9 15 -8 11 1 20 5 20 9 0 11 -28 10 -35 -1z"/>
<path d="M1675 1130 c-3 -6 1 -7 9 -4 18 7 21 14 7 14 -6 0 -13 -4 -16 -10z"/>
<path d="M250 1120 c0 -5 5 -10 11 -10 5 0 7 5 4 10 -3 6 -8 10 -11 10 -2 0
-4 -4 -4 -10z"/>
<path d="M1617 1119 c7 -7 15 -10 18 -7 3 3 -2 9 -12 12 -14 6 -15 5 -6 -5z"/>
<path d="M1867 1095 c-48 -18 -105 -41 -125 -50 -134 -62 -213 -102 -260 -132
-51 -33 -106 -60 -126 -62 -6 -1 -11 5 -12 13 -8 57 -47 207 -55 212 -6 3 -7
-4 -4 -18 35 -146 53 -223 52 -223 -1 -1 -28 -14 -59 -29 -36 -18 -58 -35 -58
-45 1 -14 2 -14 13 -1 7 9 28 22 47 30 19 7 42 19 51 27 8 7 20 13 25 13 5 0
23 7 39 16 51 28 355 183 358 183 4 -1 52 19 112 46 73 33 114 41 119 23 2 -7
15 -57 30 -111 15 -55 43 -140 62 -190 20 -51 45 -116 56 -145 22 -59 62 -112
85 -112 9 0 31 -15 49 -34 25 -26 30 -36 21 -46 -9 -10 -9 -11 1 -6 16 9 58
-81 67 -144 10 -72 12 -83 24 -128 7 -23 16 -40 21 -37 6 4 10 3 10 -2 0 -4
18 -28 40 -51 22 -24 43 -55 46 -69 4 -16 9 -21 14 -13 13 21 -1 47 -55 103
-51 52 -54 58 -70 143 -31 171 -91 284 -162 303 -12 3 -24 11 -25 16 -1 6 -10
17 -19 25 -9 8 -32 56 -50 105 -76 212 -109 313 -115 355 -7 51 -19 70 -43 70
-9 -1 -56 -16 -104 -35z"/>
<path d="M1331 1113 c-1 -6 4 -15 10 -19 6 -3 9 -14 6 -23 -2 -10 1 -25 8 -35
11 -14 13 -15 19 -1 3 8 0 15 -5 15 -7 0 -9 11 -7 25 4 16 1 25 -8 25 -7 0
-15 6 -17 13 -4 9 -6 9 -6 0z"/>
<path d="M2330 1111 c0 -5 7 -12 16 -15 14 -5 15 -4 4 9 -14 17 -20 19 -20 6z"/>
<path d="M2937 1099 c-4 -16 -3 -18 9 -8 7 6 11 15 8 20 -8 13 -11 11 -17 -12z"/>
<path d="M226 1087 c3 -10 9 -15 12 -12 3 3 0 11 -7 18 -10 9 -11 8 -5 -6z"/>
<path d="M1480 1086 c0 -2 11 -6 25 -8 13 -3 22 -1 19 3 -5 9 -44 13 -44 5z"/>
<path d="M1240 1071 c0 -5 7 -14 15 -21 10 -9 15 -9 15 -1 0 6 -5 11 -11 11
-5 0 -7 5 -4 10 3 6 1 10 -4 10 -6 0 -11 -4 -11 -9z"/>
<path d="M2927 1056 c-4 -10 -1 -13 8 -9 8 3 12 9 9 14 -7 12 -11 11 -17 -5z"/>
<path d="M2160 1041 c0 -15 33 -22 44 -10 8 9 8 10 -1 5 -6 -3 -14 -2 -18 4
-8 12 -25 13 -25 1z"/>
<path d="M2898 1044 c-9 -14 7 -50 16 -36 4 7 3 19 -2 28 -5 9 -12 13 -14 8z"/>
<path d="M2750 1031 c0 -6 4 -13 10 -16 6 -3 7 1 4 9 -7 18 -14 21 -14 7z"/>
<path d="M1210 1013 c-32 -12 -66 -73 -40 -73 6 0 10 9 10 19 0 11 9 22 19 26
11 3 22 12 25 20 3 8 4 15 3 14 -1 0 -9 -3 -17 -6z"/>
<path d="M2830 1008 c0 -10 5 -18 10 -18 6 0 8 -12 6 -26 -5 -26 -5 -26 15 -8
17 15 18 19 5 26 -9 5 -20 16 -25 26 -10 16 -10 16 -11 0z"/>
<path d="M2970 1010 c-12 -8 -12 -10 3 -16 21 -8 35 2 21 16 -5 5 -15 6 -24 0z"/>
<path d="M2653 971 c-9 -14 -9 -22 -2 -27 15 -9 21 1 17 26 -3 21 -3 21 -15 1z"/>
<path d="M1390 925 c0 -8 2 -15 4 -15 2 0 6 7 10 15 3 8 1 15 -4 15 -6 0 -10
-7 -10 -15z"/>
<path d="M2965 929 c-4 -6 -14 -8 -22 -5 -8 3 -11 1 -8 -4 10 -16 45 -12 45 5
0 18 -6 19 -15 4z"/>
<path d="M1150 906 c0 -22 3 -27 11 -19 8 8 8 16 0 30 -9 16 -10 14 -11 -11z"/>
<path d="M2740 914 c0 -8 5 -12 10 -9 6 3 10 10 10 16 0 5 -4 9 -10 9 -5 0
-10 -7 -10 -16z"/>
<path d="M2165 910 c-4 -6 7 -10 27 -9 27 0 30 2 13 9 -27 12 -33 12 -40 0z"/>
<path d="M2836 883 c-9 -9 -7 -43 2 -43 4 0 13 9 19 19 10 15 9 20 -1 24 -8 3
-17 3 -20 0z"/>
<path d="M1195 860 c-4 -11 -11 -17 -17 -14 -6 4 -6 0 1 -13 6 -11 8 -23 5
-25 -2 -3 2 -10 9 -16 11 -9 13 -2 13 38 -1 28 -2 50 -3 50 -1 0 -5 -9 -8 -20z"/>
<path d="M2985 861 c-3 -5 -2 -12 3 -15 5 -3 9 1 9 9 0 17 -3 19 -12 6z"/>
<path d="M2721 814 c0 -11 3 -14 6 -6 3 7 2 16 -1 19 -3 4 -6 -2 -5 -13z"/>
<path d="M2943 799 c9 -6 15 -14 12 -20 -3 -5 0 -6 8 -3 23 8 15 30 -12 32
-22 1 -24 0 -8 -9z"/>
<path d="M2915 780 c3 -5 8 -10 11 -10 2 0 4 5 4 10 0 6 -5 10 -11 10 -5 0 -7
-4 -4 -10z"/>
<path d="M2735 753 c3 -8 5 -17 5 -19 0 -2 6 -4 14 -4 9 0 12 7 9 18 -2 10
-11 19 -19 19 -9 0 -13 -6 -9 -14z"/>
<path d="M2173 745 c-7 -8 -9 -16 -4 -19 5 -3 12 1 15 10 8 22 4 25 -11 9z"/>
<path d="M2988 720 c2 -17 -1 -36 -7 -44 -6 -7 -8 -16 -4 -19 16 -17 23 -3 23
43 0 28 -4 50 -8 50 -5 0 -7 -14 -4 -30z"/>
<path d="M2585 730 c-3 -5 1 -10 10 -10 9 0 13 5 10 10 -3 6 -8 10 -10 10 -2
0 -7 -4 -10 -10z"/>
<path d="M2775 711 c-3 -5 -2 -12 3 -15 5 -3 9 1 9 9 0 17 -3 19 -12 6z"/>
<path d="M1000 685 c-8 -9 -8 -15 -2 -15 12 0 26 19 19 26 -2 2 -10 -2 -17
-11z"/>
<path d="M2665 691 c-7 -12 12 -24 25 -16 11 7 4 25 -10 25 -5 0 -11 -4 -15
-9z"/>
<path d="M2610 673 c0 -10 4 -14 8 -8 4 6 11 13 16 18 5 4 2 7 -7 7 -10 0 -17
-8 -17 -17z"/>
<path d="M2860 679 c-13 -8 -13 -10 0 -19 21 -14 29 -12 26 5 -3 21 -10 25
-26 14z"/>
<path d="M2710 670 c0 -5 7 -10 15 -10 8 0 15 5 15 10 0 6 -7 10 -15 10 -8 0
-15 -4 -15 -10z"/>
<path d="M2500 660 c0 -5 5 -10 11 -10 5 0 7 5 4 10 -3 6 -8 10 -11 10 -2 0
-4 -4 -4 -10z"/>
<path d="M2687 633 c-11 -10 -8 -20 8 -27 10 -4 15 1 15 14 0 20 -11 26 -23
13z"/>
<path d="M2380 611 c8 -17 20 -21 57 -21 51 0 54 6 7 13 -17 3 -41 10 -53 17
-21 11 -22 10 -11 -9z"/>
<path d="M2615 620 c3 -5 8 -10 11 -10 2 0 4 5 4 10 0 6 -5 10 -11 10 -5 0 -7
-4 -4 -10z"/>
<path d="M2781 614 c0 -11 3 -14 6 -6 3 7 2 16 -1 19 -3 4 -6 -2 -5 -13z"/>
<path d="M2879 593 c-13 -17 -13 -17 6 -3 11 8 22 16 24 17 2 2 0 3 -6 3 -6 0
-17 -8 -24 -17z"/>
<path d="M2540 576 c0 -2 8 -10 18 -17 15 -13 16 -12 3 4 -13 16 -21 21 -21
13z"/>
<path d="M2965 560 c-19 -8 -19 -9 3 -9 12 -1 22 4 22 9 0 6 -1 10 -2 9 -2 0
-12 -4 -23 -9z"/>
<path d="M2479 551 c8 -5 10 -14 5 -22 -6 -12 -5 -12 9 0 23 19 21 31 -5 31
-17 0 -19 -3 -9 -9z"/>
<path d="M2580 551 c0 -6 4 -13 10 -16 6 -3 7 1 4 9 -7 18 -14 21 -14 7z"/>
<path d="M20 530 c0 -5 8 -14 18 -19 9 -6 13 -11 9 -11 -11 0 19 -30 30 -30 5
0 15 -10 23 -21 22 -31 63 -69 76 -69 6 0 16 -10 22 -22 6 -13 11 -18 11 -12
1 18 -39 64 -55 64 -8 0 -12 5 -9 10 3 6 1 10 -4 10 -6 0 -11 7 -11 16 0 8 -4
13 -8 10 -5 -3 -26 15 -47 40 -38 43 -55 54 -55 34z"/>
<path d="M2660 520 c0 -5 7 -7 15 -4 8 4 15 8 15 10 0 2 -7 4 -15 4 -8 0 -15
-4 -15 -10z"/>
<path d="M2440 500 c0 -5 5 -10 11 -10 5 0 7 5 4 10 -3 6 -8 10 -11 10 -2 0
-4 -4 -4 -10z"/>
<path d="M2512 474 c-14 -16 -5 -18 17 -5 7 5 9 11 5 14 -5 3 -15 -1 -22 -9z"/>
<path d="M2478 458 c10 -13 10 -17 0 -21 -9 -4 -9 -6 -1 -6 20 -2 24 16 5 30
-15 13 -16 12 -4 -3z"/>
<path d="M2900 459 c0 -5 5 -7 10 -4 6 3 10 8 10 11 0 2 -4 4 -10 4 -5 0 -10
-5 -10 -11z"/>
<path d="M2580 456 c0 -2 7 -7 16 -10 8 -3 12 -2 9 4 -6 10 -25 14 -25 6z"/>
<path d="M2505 410 c3 -5 13 -10 21 -10 8 0 12 5 9 10 -3 6 -13 10 -21 10 -8
0 -12 -4 -9 -10z"/>
<path d="M2676 403 c-6 -14 -5 -15 5 -6 7 7 10 15 7 18 -3 3 -9 -2 -12 -12z"/>
<path d="M1154 325 c19 -38 40 -83 46 -99 6 -16 13 -27 15 -24 8 8 -56 152
-77 173 -13 14 -8 -2 16 -50z"/>
<path d="M2475 369 c-4 -6 -5 -12 -2 -15 2 -3 7 2 10 11 7 17 1 20 -8 4z"/>
<path d="M2775 360 c-3 -5 1 -10 10 -10 9 0 13 5 10 10 -3 6 -8 10 -10 10 -2
0 -7 -4 -10 -10z"/>
<path d="M2920 360 c0 -5 5 -10 10 -10 6 0 10 5 10 10 0 6 -4 10 -10 10 -5 0
-10 -4 -10 -10z"/>
<path d="M49 348 c-3 -11 -5 -48 -3 -48 11 0 23 40 14 45 -5 3 -10 5 -11 3z"/>
<path d="M1101 335 c0 -11 4 -27 9 -35 9 -13 10 -13 9 0 0 8 -4 24 -9 35 -9
20 -9 20 -9 0z"/>
<path d="M190 307 c0 -13 -4 -27 -9 -32 -12 -14 -24 -85 -13 -85 10 0 35 73
37 113 1 15 -2 27 -6 27 -5 0 -9 -10 -9 -23z"/>
<path d="M2513 315 c0 -8 4 -12 9 -9 4 3 8 9 8 15 0 5 -4 9 -8 9 -5 0 -9 -7
-9 -15z"/>
<path d="M2745 321 c-3 -5 -1 -12 5 -16 5 -3 10 1 10 9 0 18 -6 21 -15 7z"/>
<path d="M2486 295 c-3 -8 -1 -15 4 -15 6 0 10 7 10 15 0 8 -2 15 -4 15 -2 0
-6 -7 -10 -15z"/>
<path d="M2553 298 c4 -12 2 -18 -8 -18 -26 0 -16 -15 10 -16 29 -2 32 10 8
34 -16 16 -16 16 -10 0z"/>
<path d="M0 281 c0 -9 9 -24 20 -34 12 -10 18 -23 14 -29 -4 -6 -3 -8 3 -5 6
4 23 -3 37 -14 15 -12 30 -19 33 -15 4 3 1 6 -5 6 -7 0 -12 5 -12 11 0 6 -20
30 -45 53 -31 30 -45 39 -45 27z"/>
<path d="M2665 280 c3 -5 8 -10 11 -10 2 0 4 5 4 10 0 6 -5 10 -11 10 -5 0 -7
-4 -4 -10z"/>
<path d="M2435 250 c3 -5 8 -10 11 -10 2 0 4 5 4 10 0 6 -5 10 -11 10 -5 0 -7
-4 -4 -10z"/>
<path d="M2604 226 c0 -13 4 -22 9 -19 4 2 7 -1 7 -6 0 -6 4 -11 9 -11 5 0 3
14 -5 30 -19 36 -22 37 -20 6z"/>
<path d="M1170 211 c0 -5 7 -12 16 -15 14 -5 15 -4 4 9 -14 17 -20 19 -20 6z"/>
<path d="M2573 186 c1 -11 9 -21 17 -23 10 -3 11 -2 4 4 -6 4 -14 15 -17 23
-5 11 -6 9 -4 -4z"/>
<path d="M2515 179 c-4 -6 -5 -12 -2 -15 2 -3 7 2 10 11 7 17 1 20 -8 4z"/>
<path d="M114 169 c-3 -5 6 -9 20 -9 31 0 34 6 6 13 -11 3 -23 1 -26 -4z"/>
<path d="M2610 149 c0 -11 27 -12 34 -1 2 4 -4 9 -15 9 -10 1 -19 -2 -19 -8z"/>
<path d="M2501 131 c-9 -6 -10 -11 -2 -15 6 -4 11 -2 11 4 0 6 5 8 12 4 7 -4
8 -3 4 4 -8 14 -7 14 -25 3z"/>
<path d="M2601 84 c0 -11 3 -14 6 -6 3 7 2 16 -1 19 -3 4 -6 -2 -5 -13z"/>
<path d="M2690 92 c0 -4 9 -13 20 -19 16 -11 18 -10 14 1 -6 15 -34 30 -34 18z"/>
<path d="M2570 37 c0 -8 7 -14 15 -14 11 0 12 4 4 14 -6 7 -13 13 -15 13 -2 0
-4 -6 -4 -13z"/>
<path d="M2678 33 c7 -3 16 -2 19 1 4 3 -2 6 -13 5 -11 0 -14 -3 -6 -6z"/>
<path d="M2610 26 c0 -2 7 -7 16 -10 8 -3 12 -2 9 4 -6 10 -25 14 -25 6z"/>
</g>
</svg>
