<?xml version="1.0" standalone="no"?>
<!DOCTYPE svg PUBLIC "-//W3C//DTD SVG 20010904//EN"
 "http://www.w3.org/TR/2001/REC-SVG-20010904/DTD/svg10.dtd">
<svg version="1.0" xmlns="http://www.w3.org/2000/svg"
 width="300.000000pt" height="375.000000pt" viewBox="0 0 300.000000 375.000000"
 preserveAspectRatio="xMidYMid meet">
<metadata>
Created by potrace 1.10, written by Peter Selinger 2001-2011
</metadata>
<g transform="translate(0.000000,375.000000) scale(0.100000,-0.100000)"
fill="#000000" stroke="none">
<path d="M2111 3408 c-1 -10 -7 -15 -15 -12 -7 3 -16 -2 -20 -11 -4 -10 -12
-15 -22 -11 -9 3 -12 2 -9 -4 10 -15 -94 -107 -130 -115 -16 -4 -24 -9 -17
-12 10 -4 10 -8 1 -19 -6 -8 -16 -11 -21 -7 -6 3 -8 0 -6 -8 4 -12 -34 -93
-52 -109 -6 -6 -10 -26 -20 -125 -5 -44 -13 -96 -18 -115 -11 -47 -2 -227 13
-251 3 -5 1 -18 -6 -30 -7 -13 -7 -19 -1 -15 6 4 11 -2 11 -11 0 -10 6 -41 12
-69 10 -43 10 -55 -4 -83 -12 -24 -13 -30 -3 -22 11 9 15 3 20 -31 7 -51 6
-55 -21 -125 -3 -10 -7 -20 -8 -23 -10 -35 -42 -80 -52 -75 -9 3 -7 -4 4 -20
11 -14 27 -23 40 -22 12 1 19 5 17 9 -3 4 -1 8 4 8 5 0 17 15 26 34 8 18 22
39 31 46 8 6 17 28 21 49 3 20 8 43 11 51 4 8 5 19 4 23 -1 5 3 6 8 3 5 -3 12
-23 15 -43 12 -71 15 -88 26 -132 8 -35 8 -46 -2 -54 -9 -6 -7 -7 6 -3 16 6
17 4 6 -9 -10 -12 -10 -15 1 -15 11 0 11 -2 -1 -10 -13 -8 -12 -10 3 -10 9 0
17 -4 17 -10 0 -5 -7 -7 -15 -4 -13 5 -13 0 0 -43 7 -26 16 -68 19 -93 2 -25
12 -79 21 -120 9 -41 18 -90 21 -109 5 -39 14 -55 14 -25 0 10 -13 95 -30 187
-16 92 -27 174 -24 181 7 19 -44 259 -67 319 -11 27 -17 52 -14 55 3 3 10 -9
16 -26 6 -18 15 -32 21 -32 5 0 7 -4 4 -9 -3 -5 1 -30 8 -57 8 -27 22 -87 31
-134 10 -47 46 -197 80 -335 66 -264 101 -423 93 -431 -3 -2 -15 37 -27 88
-57 249 -114 478 -117 475 -2 -2 0 -24 5 -48 24 -115 61 -280 74 -336 8 -35
13 -63 10 -63 -3 0 0 -6 6 -14 6 -8 14 -27 16 -42 2 -16 9 -44 14 -63 6 -19 7
-39 3 -45 -5 -6 0 -63 9 -126 9 -63 17 -102 18 -87 0 16 6 38 13 50 6 12 12
42 13 65 1 25 8 48 16 53 11 7 11 9 1 9 -15 0 -10 97 7 129 6 11 11 30 11 43
0 13 7 33 15 44 8 10 15 28 15 40 0 11 5 25 12 32 9 9 9 12 -1 12 -11 0 -11 3
-1 15 6 8 9 19 5 24 -6 11 19 109 36 143 5 10 6 24 3 33 -3 8 -1 15 4 15 6 0
9 9 7 21 -2 11 0 30 5 43 4 12 11 40 14 61 4 21 11 44 17 51 7 8 6 13 -2 16
-8 3 -6 9 5 21 10 9 13 17 7 17 -6 0 -3 8 7 18 9 9 25 29 34 42 14 21 17 22
17 7 1 -11 6 -17 14 -14 6 2 20 -2 29 -10 30 -26 53 -8 55 42 2 30 -2 45 -10
45 -8 0 -7 4 3 10 13 9 13 11 0 21 -11 8 -12 12 -3 16 9 3 10 10 3 24 -7 13
-7 19 -1 19 7 0 7 9 3 23 -11 30 -8 77 6 104 7 12 12 29 12 37 0 9 6 16 14 16
9 0 12 8 9 24 -9 46 18 38 76 -23 33 -33 72 -63 87 -67 16 -4 35 -11 42 -17 8
-6 12 -6 12 1 0 5 -19 17 -42 27 -23 9 -57 34 -75 55 -19 21 -49 48 -68 60
-32 20 -35 26 -35 67 0 35 -3 44 -14 40 -8 -3 -17 -1 -20 6 -3 7 -5 6 -5 -3
-2 -25 -51 -39 -97 -26 -21 6 -65 11 -96 11 -32 0 -58 3 -58 8 0 4 -8 3 -17
-2 -33 -18 -152 -29 -164 -15 -5 6 -18 10 -27 7 -22 -5 -59 33 -65 67 -6 30
-25 80 -30 80 -6 0 10 -80 21 -110 6 -14 21 -35 34 -47 21 -20 32 -22 93 -18
39 3 84 7 100 11 21 4 27 3 20 -5 -6 -6 -20 -12 -32 -14 -13 -2 -26 -7 -30
-12 -5 -4 8 -5 27 -1 19 3 40 14 47 23 10 13 27 15 108 11 53 -3 98 -7 100
-10 6 -6 -52 -128 -61 -128 -3 0 -2 10 1 23 5 17 4 19 -4 7 -6 -8 -8 -22 -6
-31 8 -25 -68 -143 -94 -147 -11 -2 -21 -7 -21 -11 0 -4 -26 -8 -58 -9 -54 -1
-61 1 -90 31 -17 17 -34 44 -37 59 -6 24 -3 29 21 38 15 6 51 11 81 12 29 1
53 5 53 10 0 9 -13 10 -90 8 -41 -1 -61 -7 -77 -23 l-23 -20 0 25 c0 16 -11
35 -28 50 -15 13 -31 30 -35 38 -4 8 -14 26 -22 40 -15 26 -22 200 -9 213 4 4
7 28 7 54 0 27 2 52 5 58 3 5 7 45 9 90 4 100 6 115 14 115 4 0 10 12 14 28 3
15 18 42 31 60 14 17 22 32 18 32 -4 0 3 11 16 25 12 13 27 22 31 19 5 -3 9
-1 9 5 0 6 7 7 17 4 9 -4 14 -2 10 3 -5 9 8 17 68 39 11 4 53 7 92 7 92 -2
123 -17 209 -101 13 -13 24 -19 24 -14 0 16 -92 98 -127 113 -18 8 -33 17 -33
21 0 3 -38 6 -84 8 -78 2 -88 0 -134 -29 -27 -16 -56 -30 -65 -30 -19 0 -86
-96 -111 -160 -10 -25 -24 -107 -31 -190 -8 -80 -21 -174 -29 -210 -15 -65
-31 -226 -29 -288 3 -61 -24 -172 -51 -212 -14 -22 -26 -44 -26 -49 0 -9 -31
-31 -44 -31 -3 0 8 21 24 48 31 50 72 157 63 165 -3 3 -9 48 -15 99 -5 51 -11
107 -14 123 -2 17 -9 62 -15 100 -11 69 -7 212 9 350 10 83 66 200 116 241 17
15 58 52 91 83 75 71 126 94 166 74 15 -8 74 -32 131 -53 57 -22 99 -40 93
-40 -5 0 0 -6 11 -13 47 -26 115 -100 130 -140 67 -177 67 -172 9 -397 -5 -21
-4 -22 5 -8 18 28 53 180 51 223 -2 63 -33 185 -47 185 -8 0 -10 8 -7 23 3 12
3 19 -1 15 -11 -9 -48 30 -41 43 4 5 1 8 -7 7 -7 -2 -12 2 -11 9 2 7 -3 10
-10 8 -6 -3 -19 8 -28 24 -12 20 -32 34 -70 46 -55 18 -200 84 -209 94 -7 8
-43 7 -57 -2 -6 -4 -14 -1 -16 5 -3 8 -6 6 -6 -4z m-179 -877 c-1 -7 7 -24 18
-38 11 -14 17 -30 13 -37 -3 -6 -3 -8 2 -4 10 9 65 -46 65 -64 -1 -8 -6 -6
-15 5 -19 26 -53 14 -57 -20 -2 -15 -10 -29 -18 -31 -13 -5 -13 -3 0 13 8 10
10 16 3 12 -7 -4 -16 0 -22 10 -11 22 -12 91 -1 98 4 3 4 21 0 40 -6 26 -5 35
3 32 7 -3 11 -10 9 -16z m618 11 c0 -4 -6 -14 -12 -21 -11 -11 -10 -12 1 -6
10 5 12 3 8 -11 -4 -11 -9 -32 -13 -49 -13 -59 -46 -124 -66 -131 -15 -4 -18
-11 -13 -27 3 -12 7 -32 9 -45 5 -36 13 -35 13 1 0 17 -4 37 -9 43 -5 8 -3 14
7 18 17 6 18 1 15 -119 -1 -44 3 -92 9 -107 6 -16 7 -28 1 -28 -5 0 -11 9 -15
19 -3 10 -15 21 -25 24 -23 6 -50 63 -57 119 -4 28 5 59 42 143 26 58 45 108
43 111 -4 4 -40 -70 -81 -166 -11 -25 -16 -29 -16 -15 -1 11 6 33 14 49 8 15
15 34 15 42 0 7 9 29 21 49 12 19 18 42 15 51 -4 9 -2 13 5 8 6 -4 15 0 20 7
7 12 9 11 9 -1 0 -13 1 -13 10 0 13 20 13 33 0 25 -6 -3 -7 1 -4 9 6 16 54 23
54 8z m-510 -221 c0 -16 68 -111 79 -111 5 0 19 -10 33 -22 43 -39 65 -49 71
-33 3 7 14 11 25 9 23 -7 49 20 31 32 -8 5 -9 3 -4 -6 6 -10 2 -12 -15 -7 -12
3 -31 0 -42 -6 -16 -10 -23 -8 -41 13 -23 26 -29 30 -48 30 -8 0 -8 4 1 15 9
11 17 12 30 5 25 -13 107 -13 116 1 3 6 15 8 26 6 12 -4 22 1 26 11 9 26 31
44 43 37 12 -8 10 -95 -4 -112 -5 -7 -6 -13 -3 -13 4 0 2 -9 -4 -20 -15 -27
-27 -25 -44 8 l-15 27 -1 -27 c0 -14 6 -29 13 -32 6 -4 2 -4 -10 -2 -22 4 -86
-14 -99 -27 -4 -4 -13 -2 -19 3 -13 11 -51 15 -74 9 -9 -2 -22 10 -33 33 -10
20 -36 54 -59 75 -34 32 -42 47 -46 85 -3 26 -2 59 2 75 l7 28 29 -35 c15 -19
29 -41 29 -49z m25 10 c-1 -9 13 -31 33 -48 19 -18 32 -36 28 -40 -9 -9 -76
67 -76 88 0 8 -6 21 -12 28 -11 11 -9 11 8 0 12 -7 21 -20 19 -28z m306 -14
c-10 -9 -11 -8 -5 6 3 10 9 15 12 12 3 -3 0 -11 -7 -18z m-364 -111 c21 -24
20 -36 -3 -36 -6 0 -17 14 -23 30 -12 36 -2 39 26 6z m384 -55 c-15 -28 -14
-41 5 -41 12 0 9 -8 -13 -34 -15 -19 -32 -35 -38 -35 -5 -1 -20 -12 -32 -25
-13 -13 -48 -34 -78 -46 -72 -29 -96 -20 -173 69 -70 80 -74 85 -66 105 9 23
28 20 58 -10 32 -33 33 -48 4 -39 -19 6 -21 5 -11 -6 11 -10 22 -10 63 0 51
13 70 9 70 -14 0 -10 11 -7 38 11 30 21 46 25 89 22 57 -3 52 -7 78 67 4 12 9
15 12 8 2 -7 0 -21 -6 -32z m-351 -117 c0 -7 8 -19 18 -26 10 -7 21 -21 25
-30 3 -10 14 -18 22 -18 10 0 13 -5 9 -12 -4 -7 -3 -8 5 -4 6 4 17 3 24 -2 11
-9 40 -4 125 23 18 6 22 4 22 -14 0 -12 -4 -19 -10 -16 -17 10 -11 -7 7 -20
10 -8 13 -17 7 -26 -5 -8 -9 -20 -10 -28 -2 -7 -12 -22 -23 -32 -12 -11 -21
-23 -21 -26 0 -4 5 -2 12 5 16 16 33 16 21 0 -5 -7 -9 -25 -8 -40 0 -16 -2
-28 -6 -28 -7 0 -19 -68 -19 -112 0 -14 -6 -33 -14 -41 -8 -8 -12 -17 -9 -20
3 -4 -1 -28 -10 -54 -8 -26 -19 -65 -22 -85 -9 -46 -22 -42 -20 7 0 19 -2 35
-6 35 -4 0 -7 15 -7 34 0 46 -12 97 -21 91 -5 -2 -14 21 -21 53 -8 31 -16 64
-18 72 -2 8 -4 27 -5 43 0 15 -3 27 -6 27 -6 0 -27 82 -34 130 -2 8 -6 21 -11
28 -17 28 2 21 37 -13 20 -19 41 -35 48 -35 6 0 -10 19 -37 43 -43 38 -74 88
-74 118 0 8 4 8 15 -1 8 -7 15 -18 15 -26z m286 -136 c-15 -68 -35 -159 -46
-203 -10 -44 -22 -96 -25 -115 -17 -88 -74 -270 -86 -270 -11 0 -12 13 0 26
15 16 103 362 125 494 5 30 35 157 42 183 3 10 8 16 11 13 3 -3 -7 -60 -21
-128z m-16 47 c0 -14 -4 -25 -9 -25 -4 0 -6 11 -3 25 2 14 6 25 8 25 2 0 4
-11 4 -25z m-125 -720 c-1 -71 -13 -116 -17 -64 -6 85 -3 139 7 139 7 0 11
-26 10 -75z"/>
<path d="M2520 2487 c0 -4 -11 -37 -25 -74 -15 -38 -21 -63 -16 -58 14 14 53
127 46 133 -3 3 -5 2 -5 -1z"/>
<path d="M2147 1898 c6 -11 65 -10 81 1 8 5 -6 8 -36 7 -28 -1 -48 -4 -45 -8z"/>
<path d="M2265 1899 c-4 -6 -5 -12 -2 -15 2 -3 7 2 10 11 7 17 1 20 -8 4z"/>
<path d="M2123 1755 c6 -19 14 -35 18 -35 4 0 2 16 -4 35 -6 19 -14 35 -18 35
-4 0 -2 -16 4 -35z"/>
<path d="M2131 1674 c0 -11 3 -14 6 -6 3 7 2 16 -1 19 -3 4 -6 -2 -5 -13z"/>
<path d="M2095 3341 c-28 -16 -58 -37 -65 -47 -13 -15 -11 -15 15 2 46 31 68
43 93 54 21 9 30 20 15 20 -5 0 -31 -13 -58 -29z"/>
<path d="M2560 3326 c0 -2 7 -7 16 -10 8 -3 12 -2 9 4 -6 10 -25 14 -25 6z"/>
<path d="M2466 3311 c-4 -5 1 -8 9 -7 21 3 31 16 12 16 -9 0 -18 -4 -21 -9z"/>
<path d="M2515 3310 c3 -5 8 -10 11 -10 2 0 4 5 4 10 0 6 -5 10 -11 10 -5 0
-7 -4 -4 -10z"/>
<path d="M1951 3197 c-78 -114 -111 -246 -110 -436 1 -137 20 -287 33 -256 4
11 10 67 12 125 3 58 12 146 21 195 8 50 18 103 21 119 3 20 1 27 -7 22 -9 -6
-10 0 -5 21 4 15 9 32 13 38 3 5 6 17 6 25 4 44 6 51 15 45 5 -3 16 17 24 44
8 27 23 62 33 78 15 23 15 26 1 15 -13 -10 -17 -10 -20 0 -2 6 -19 -9 -37 -35z
m6 -64 c0 -14 -2 -21 -6 -14 -8 12 -20 -20 -41 -107 -10 -38 -19 -123 -22
-205 -1 -16 -9 -32 -19 -37 -14 -8 -17 -6 -14 8 1 9 7 16 11 15 5 -1 9 14 9
32 0 26 -3 31 -12 23 -9 -7 -13 -7 -13 0 0 5 7 15 15 22 8 7 15 18 15 24 0 6
-5 4 -10 -4 -14 -23 -7 30 8 57 8 15 9 24 1 28 -6 5 -4 12 8 22 10 8 12 12 6
8 -16 -8 -16 0 -1 28 6 12 13 32 14 44 2 18 39 83 47 83 1 0 3 -12 4 -27z
m-87 -307 c0 -3 -4 -8 -10 -11 -5 -3 -10 -1 -10 4 0 6 5 11 10 11 6 0 10 -2
10 -4z m7 -160 c-2 -104 -8 -118 -14 -28 -2 31 -5 69 -7 84 -2 15 1 29 7 32 7
2 13 5 14 5 1 1 1 -41 0 -93z"/>
<path d="M2128 3193 c7 -3 16 -2 19 1 4 3 -2 6 -13 5 -11 0 -14 -3 -6 -6z"/>
<path d="M1480 3130 c0 -5 5 -10 11 -10 5 0 7 5 4 10 -3 6 -8 10 -11 10 -2 0
-4 -4 -4 -10z"/>
<path d="M2525 3130 c10 -17 23 -110 15 -115 -4 -3 -6 -15 -4 -27 2 -13 5 -38
8 -55 2 -18 0 -33 -5 -33 -6 0 -7 -5 -4 -10 4 -6 2 -17 -5 -25 -9 -10 -9 -100
-1 -132 1 -2 6 -3 11 -3 10 0 5 74 -6 91 -2 4 3 26 12 50 25 72 12 269 -19
269 -4 0 -5 -5 -2 -10z"/>
<path d="M1760 3115 c-7 -9 -11 -17 -9 -20 3 -2 10 5 17 15 14 24 10 26 -8 5z"/>
<path d="M2247 3091 c-16 -11 -18 -21 -13 -56 4 -31 1 -46 -9 -55 -8 -7 -15
-17 -15 -23 0 -6 7 -2 16 9 8 10 13 15 11 9 -3 -5 -8 -26 -11 -46 -5 -31 -2
-38 20 -50 22 -11 27 -11 34 1 8 13 12 12 24 -5 13 -18 13 -16 1 20 -18 52
-18 65 0 65 8 0 13 -6 11 -12 -1 -7 -1 -10 1 -5 3 4 14 7 24 7 13 0 18 4 13
12 -5 7 -2 9 9 5 12 -4 14 -2 10 10 -4 10 -2 14 4 10 7 -5 10 2 9 18 -2 15 1
22 7 18 7 -4 8 0 2 13 -4 10 -7 27 -7 38 1 10 -2 16 -5 12 -3 -3 -12 -1 -20 5
-19 17 -92 16 -116 0z m111 -23 c29 -24 -6 -113 -37 -93 -6 3 -21 3 -32 0 -18
-6 -20 -13 -16 -41 3 -19 1 -36 -5 -40 -13 -8 -29 16 -20 31 4 5 7 40 8 78 1
37 2 70 3 75 1 10 83 2 99 -10z"/>
<path d="M2280 3027 c0 -29 3 -33 26 -32 53 3 57 65 4 65 -27 0 -30 -3 -30
-33z m45 3 c3 -5 1 -10 -4 -10 -6 0 -11 5 -11 10 0 6 2 10 4 10 3 0 8 -4 11
-10z"/>
<path d="M1835 3013 c-3 -27 -8 -64 -10 -83 -3 -25 -2 -29 4 -15 9 22 23 145
16 145 -2 0 -6 -21 -10 -47z"/>
<path d="M2491 2984 c0 -11 3 -14 6 -6 3 7 2 16 -1 19 -3 4 -6 -2 -5 -13z"/>
<path d="M2580 2976 c0 -7 -3 -29 -6 -47 -4 -19 -3 -31 1 -27 9 9 19 88 11 88
-3 0 -6 -6 -6 -14z"/>
<path d="M2497 2953 c-4 -3 -7 -13 -7 -22 1 -13 3 -13 11 2 11 19 8 33 -4 20z"/>
<path d="M2555 2840 c-4 -17 -5 -34 -2 -36 2 -3 7 10 11 27 8 42 0 50 -9 9z"/>
<path d="M2060 2820 c0 -6 7 -10 15 -10 8 0 15 2 15 4 0 2 -7 6 -15 10 -8 3
-15 1 -15 -4z"/>
<path d="M1630 2650 c0 -16 2 -30 4 -30 2 0 6 14 8 30 3 17 1 30 -4 30 -4 0
-8 -13 -8 -30z"/>
<path d="M2482 2620 c0 -14 2 -19 5 -12 2 6 2 18 0 25 -3 6 -5 1 -5 -13z"/>
<path d="M2120 2508 c-28 -27 -31 -33 -16 -36 9 -2 24 5 31 15 14 17 14 16 15
-7 0 -22 7 -28 46 -38 30 -8 48 -19 51 -31 4 -16 11 -18 38 -14 18 3 42 0 54
-7 13 -6 26 -9 29 -5 13 13 -33 35 -74 35 -23 0 -47 6 -53 14 -7 8 -28 17 -47
21 -31 5 -35 9 -31 30 2 15 0 22 -6 18 -6 -4 -8 2 -5 15 4 12 5 22 5 22 -1 0
-18 -15 -37 -32z"/>
<path d="M2407 2503 c-7 -39 -1 -40 11 -4 6 17 7 31 3 31 -5 0 -11 -12 -14
-27z"/>
<path d="M2318 2502 c-4 -12 1 -18 13 -18 11 0 19 4 19 8 0 4 -5 8 -11 8 -5 0
-7 5 -4 10 3 6 2 10 -3 10 -5 0 -12 -8 -14 -18z"/>
<path d="M1863 2435 c0 -22 2 -30 4 -17 2 12 2 30 0 40 -3 9 -5 -1 -4 -23z"/>
<path d="M2300 2448 c-35 -18 -35 -18 -5 -12 30 6 53 20 44 27 -2 2 -20 -5
-39 -15z"/>
<path d="M2600 2400 c0 -5 7 -7 15 -4 8 4 15 8 15 10 0 2 -7 4 -15 4 -8 0 -15
-4 -15 -10z"/>
<path d="M2277 2369 c-23 -12 -46 -17 -55 -13 -10 4 -21 8 -27 9 -5 0 -18 5
-28 9 -22 10 -37 -2 -18 -14 32 -19 98 -21 135 -4 20 10 36 21 36 26 0 10 2
11 -43 -13z"/>
<path d="M2557 2373 c-8 -14 -19 -68 -13 -62 8 8 26 69 21 69 -2 0 -6 -3 -8
-7z"/>
<path d="M1671 2327 c-13 -21 -12 -21 5 -5 10 10 16 20 13 22 -3 3 -11 -5 -18
-17z"/>
<path d="M2306 2335 c-3 -9 -21 -22 -40 -30 -38 -16 -75 -8 -108 22 -11 10
-18 11 -18 5 0 -19 50 -46 86 -46 38 0 80 20 89 42 3 8 4 17 1 19 -2 2 -6 -3
-10 -12z"/>
<path d="M2705 2320 c3 -5 8 -10 11 -10 2 0 4 5 4 10 0 6 -5 10 -11 10 -5 0
-7 -4 -4 -10z"/>
<path d="M2829 2312 c7 -5 9 -12 5 -14 -5 -3 -3 -3 4 -2 6 2 12 -1 12 -6 0 -6
16 -10 36 -10 19 0 33 -4 30 -9 -5 -8 74 -44 81 -37 6 5 -65 45 -106 60 -20 7
-45 17 -56 21 -14 5 -16 4 -6 -3z"/>
<path d="M2720 2266 c0 -31 38 -173 39 -148 1 8 -7 43 -16 78 -13 49 -15 69
-6 83 9 14 8 18 -3 18 -9 0 -14 -11 -14 -31z"/>
<path d="M2773 2293 c9 -2 23 -2 30 0 6 3 -1 5 -18 5 -16 0 -22 -2 -12 -5z"/>
<path d="M1459 2173 c-23 -18 -38 -33 -34 -33 5 0 1 -8 -7 -17 -41 -48 -25
-41 21 10 29 31 59 57 66 57 8 0 16 4 19 8 13 21 -26 6 -65 -25z"/>
<path d="M2629 2158 c-1 -7 -3 -22 -5 -33 -2 -11 -6 -47 -9 -80 l-5 -60 14 53
c7 29 16 55 20 59 3 3 1 12 -4 18 -11 14 -3 45 11 45 6 0 5 -9 -1 -20 -6 -11
-7 -20 -3 -20 4 0 13 11 20 25 10 23 9 25 -13 25 -13 0 -25 -6 -25 -12z"/>
<path d="M2985 2142 c-5 -4 -17 -16 -25 -27 -11 -15 -7 -14 13 4 24 22 32 31
25 31 -2 0 -7 -4 -13 -8z"/>
<path d="M1485 2099 c-4 -6 -5 -12 -2 -15 2 -3 7 2 10 11 7 17 1 20 -8 4z"/>
<path d="M2761 2095 c0 -5 7 -26 14 -45 9 -23 14 -28 14 -15 0 11 -6 31 -14
45 -8 14 -14 21 -14 15z"/>
<path d="M2826 2049 c-11 -55 -7 -147 7 -152 10 -4 10 -6 0 -6 -7 -1 -13 -6
-13 -12 0 -5 5 -7 10 -4 6 4 17 1 25 -5 8 -7 15 -9 16 -4 1 5 5 -2 9 -16 7
-22 8 -20 9 14 1 36 0 38 -13 21 -24 -33 -41 16 -37 113 3 85 -2 104 -13 51z"/>
<path d="M2940 2071 c0 -6 4 -13 10 -16 6 -3 7 1 4 9 -7 18 -14 21 -14 7z"/>
<path d="M1467 2063 c-4 -3 -7 -13 -7 -22 1 -13 3 -13 11 2 11 19 8 33 -4 20z"/>
<path d="M2914 2015 c-20 -37 -14 -56 11 -35 17 14 21 35 4 24 -7 -4 -10 -1
-7 7 3 8 11 13 17 12 13 -3 15 13 2 21 -4 3 -16 -10 -27 -29z"/>
<path d="M1455 2010 c3 -5 8 -10 11 -10 2 0 4 5 4 10 0 6 -5 10 -11 10 -5 0
-7 -4 -4 -10z"/>
<path d="M2743 1999 c-6 -6 -38 -15 -70 -19 l-58 -7 48 -2 c41 -1 107 20 107
34 0 9 -16 5 -27 -6z"/>
<path d="M2861 1984 c0 -11 3 -14 6 -6 3 7 2 16 -1 19 -3 4 -6 -2 -5 -13z"/>
<path d="M1384 1982 c4 -7 1 -12 -6 -12 -9 0 -10 -2 -2 -8 7 -4 14 -16 17 -27
3 -11 4 -5 4 13 -1 19 -6 36 -11 39 -5 3 -6 1 -2 -5z"/>
<path d="M1992 1980 c0 -8 4 -26 8 -40 6 -20 8 -21 8 -5 0 11 -3 29 -8 40 -5
12 -8 14 -8 5z"/>
<path d="M2965 1970 c-3 -5 -1 -10 4 -10 6 0 11 5 11 10 0 6 -2 10 -4 10 -3 0
-8 -4 -11 -10z"/>
<path d="M1765 1940 c19 -8 93 -14 84 -6 -2 2 -26 6 -54 9 -32 4 -43 3 -30 -3z"/>
<path d="M1868 1933 c6 -2 18 -2 25 0 6 3 1 5 -13 5 -14 0 -19 -2 -12 -5z"/>
<path d="M1732 1900 c0 -14 2 -19 5 -12 2 6 2 18 0 25 -3 6 -5 1 -5 -13z"/>
<path d="M2926 1905 c-3 -8 -1 -15 4 -15 6 0 10 7 10 15 0 8 -2 15 -4 15 -2 0
-6 -7 -10 -15z"/>
<path d="M2959 1884 c-5 -15 -8 -29 -5 -31 2 -2 8 10 14 26 13 38 5 41 -9 5z"/>
<path d="M1400 1884 c0 -10 5 -26 10 -34 8 -11 9 -7 4 15 -8 37 -14 45 -14 19z"/>
<path d="M2593 1855 c0 -27 2 -38 4 -22 2 15 2 37 0 50 -2 12 -4 0 -4 -28z"/>
<path d="M1942 1840 c0 -14 2 -19 5 -12 2 6 2 18 0 25 -3 6 -5 1 -5 -13z"/>
<path d="M1531 1834 c0 -11 3 -14 6 -6 3 7 2 16 -1 19 -3 4 -6 -2 -5 -13z"/>
<path d="M2828 1843 c7 -3 16 -2 19 1 4 3 -2 6 -13 5 -11 0 -14 -3 -6 -6z"/>
<path d="M2676 1789 c-9 -29 -16 -62 -15 -73 0 -12 8 11 19 49 21 83 18 100
-4 24z"/>
<path d="M2933 1818 c-2 -18 0 -20 7 -8 12 18 13 30 2 30 -4 0 -9 -10 -9 -22z"/>
<path d="M1422 1790 c0 -14 2 -19 5 -12 2 6 2 18 0 25 -3 6 -5 1 -5 -13z"/>
<path d="M1952 1795 c0 -11 4 -33 8 -50 7 -27 8 -27 8 -5 0 14 -4 36 -8 50 -6
20 -8 21 -8 5z"/>
<path d="M2351 1794 c0 -11 3 -14 6 -6 3 7 2 16 -1 19 -3 4 -6 -2 -5 -13z"/>
<path d="M2985 1799 c-5 -4 -28 -24 -50 -44 -39 -36 -31 -39 10 -4 11 10 29
25 40 33 11 8 18 16 15 19 -3 3 -9 1 -15 -4z"/>
<path d="M1176 1783 c-6 -14 -5 -15 5 -6 7 7 10 15 7 18 -3 3 -9 -2 -12 -12z"/>
<path d="M2821 1784 c0 -11 3 -14 6 -6 3 7 2 16 -1 19 -3 4 -6 -2 -5 -13z"/>
<path d="M1550 1767 c0 -18 46 -50 63 -43 7 2 5 5 -5 5 -9 1 -26 13 -37 27
-14 18 -21 22 -21 11z"/>
<path d="M2555 1750 c-10 -11 -16 -22 -13 -25 3 -3 13 6 22 20 20 30 16 32 -9
5z"/>
<path d="M2865 1760 c-3 -5 -1 -10 4 -10 6 0 11 5 11 10 0 6 -2 10 -4 10 -3 0
-8 -4 -11 -10z"/>
<path d="M1774 1717 c1 -25 7 -51 14 -59 6 -8 10 -17 7 -20 -3 -3 1 -11 9 -17
12 -10 13 -8 9 11 -3 13 -10 29 -16 36 -6 7 -11 29 -13 48 -3 52 -13 53 -10 1z"/>
<path d="M1431 1734 c0 -11 3 -14 6 -6 3 7 2 16 -1 19 -3 4 -6 -2 -5 -13z"/>
<path d="M2496 1716 c3 -8 -4 -24 -16 -36 -12 -12 -20 -24 -17 -26 5 -6 47 45
47 57 0 4 -4 11 -10 14 -5 3 -7 0 -4 -9z"/>
<path d="M2780 1711 c0 -5 5 -13 10 -16 6 -3 10 -2 10 4 0 5 -4 13 -10 16 -5
3 -10 2 -10 -4z"/>
<path d="M2965 1710 c-3 -5 -2 -10 4 -10 5 0 13 5 16 10 3 6 2 10 -4 10 -5 0
-13 -4 -16 -10z"/>
<path d="M1441 1694 c0 -11 3 -14 6 -6 3 7 2 16 -1 19 -3 4 -6 -2 -5 -13z"/>
<path d="M1693 1703 c9 -2 23 -2 30 0 6 3 -1 5 -18 5 -16 0 -22 -2 -12 -5z"/>
<path d="M2705 1680 c-18 -8 -17 -9 8 -9 16 -1 26 3 22 9 -3 6 -7 10 -8 9 -1
0 -11 -4 -22 -9z"/>
<path d="M2650 1670 c0 -5 4 -10 9 -10 6 0 13 5 16 10 3 6 -1 10 -9 10 -9 0
-16 -4 -16 -10z"/>
<path d="M2570 1653 c-7 -11 -13 -14 -16 -7 -3 6 -16 9 -29 6 -14 -2 -22 -9
-18 -15 4 -6 0 -8 -8 -5 -16 6 -76 -31 -76 -47 0 -20 52 -42 88 -38 32 4 36 2
35 -18 -1 -15 8 -27 24 -36 22 -11 27 -10 42 9 11 16 14 28 8 44 -8 20 -6 22
12 19 28 -6 44 5 27 17 -11 7 -9 8 4 4 10 -3 23 -6 28 -6 5 0 9 -11 9 -25 0
-14 4 -25 10 -25 5 0 7 7 4 15 -4 8 -1 15 6 15 6 0 8 5 4 11 -4 7 -1 10 7 7
20 -7 38 15 46 54 6 30 5 32 -10 19 -13 -10 -17 -10 -17 -1 0 10 -17 11 -71 6
-39 -4 -77 -10 -85 -13 -10 -4 -12 0 -8 11 8 21 -2 20 -16 -1z m184 -34 c-4
-6 -11 -6 -20 2 -16 13 -19 -2 -3 -18 7 -7 3 -10 -14 -10 -19 0 -23 4 -20 18
4 13 0 19 -11 19 -10 0 -13 -6 -10 -15 4 -10 0 -15 -13 -15 -10 0 -24 -5 -30
-11 -15 -15 -33 -3 -33 22 0 22 35 27 43 7 3 -8 6 -7 6 4 1 12 12 18 39 20 42
4 76 -8 66 -23z m-164 -19 c0 -16 -4 -30 -10 -30 -5 0 -9 3 -9 8 3 18 -2 32
-12 32 -6 0 -8 -9 -4 -21 5 -16 4 -19 -5 -14 -7 4 -17 1 -22 -6 -7 -10 -8 -8
-5 8 3 13 1 26 -4 29 -5 3 -9 -7 -9 -22 0 -22 -3 -24 -14 -15 -11 9 -15 9 -19
-1 -3 -7 -6 -2 -7 12 -1 22 -2 23 -9 6 -6 -15 -10 -16 -16 -7 -9 15 13 33 33
26 6 -2 12 1 12 6 0 7 11 9 24 7 14 -3 31 -1 38 3 25 16 38 9 38 -21z m18 -68
c4 -27 -22 -39 -43 -22 -14 11 -14 15 2 32 20 23 37 19 41 -10z"/>
<path d="M2615 1611 c-3 -5 -2 -12 3 -15 5 -3 9 1 9 9 0 17 -3 19 -12 6z"/>
<path d="M2608 1663 c6 -2 18 -2 25 0 6 3 1 5 -13 5 -14 0 -19 -2 -12 -5z"/>
<path d="M1461 1644 c0 -11 3 -14 6 -6 3 7 2 16 -1 19 -3 4 -6 -2 -5 -13z"/>
<path d="M2827 1640 c-3 -11 -1 -20 4 -20 5 0 9 9 9 20 0 11 -2 20 -4 20 -2 0
-6 -9 -9 -20z"/>
<path d="M1516 1642 c-2 -4 27 -6 64 -4 38 2 83 -1 100 -6 16 -6 30 -7 30 -3
0 19 -183 31 -194 13z"/>
<path d="M1720 1626 c0 -6 14 -11 30 -11 17 0 30 3 30 6 0 4 -13 9 -30 11 -17
3 -30 0 -30 -6z"/>
<path d="M1982 1615 c0 -16 2 -22 5 -12 2 9 2 23 0 30 -3 6 -5 -1 -5 -18z"/>
<path d="M2430 1630 c0 -5 7 -7 15 -4 8 4 15 8 15 10 0 2 -7 4 -15 4 -8 0 -15
-4 -15 -10z"/>
<path d="M1467 1605 c-4 -8 -2 -17 2 -20 5 -2 11 4 14 15 6 23 -8 27 -16 5z"/>
<path d="M2930 1600 c-13 -8 -12 -10 3 -10 9 0 17 5 17 10 0 12 -1 12 -20 0z"/>
<path d="M2036 1565 c3 -22 7 -67 9 -100 2 -33 6 -67 9 -75 2 -8 7 -48 11 -88
5 -54 3 -78 -7 -90 -9 -11 -9 -14 -1 -9 19 12 26 -35 48 -336 4 -48 10 -85 14
-82 5 2 4 28 0 57 -5 29 -8 78 -8 108 1 30 -6 109 -15 175 -8 66 -18 149 -20
185 -9 119 -25 247 -35 271 -8 20 -9 17 -5 -16z"/>
<path d="M2806 1585 c-9 -26 -7 -32 5 -12 6 10 9 21 6 23 -2 3 -7 -2 -11 -11z"/>
<path d="M1736 1570 c6 -23 34 -71 34 -59 0 3 -9 23 -20 45 -12 22 -18 28 -14
14z"/>
<path d="M1821 1585 c1 -19 18 -51 18 -35 0 8 -4 22 -9 30 -5 8 -9 11 -9 5z"/>
<path d="M2371 1574 c0 -11 3 -14 6 -6 3 7 2 16 -1 19 -3 4 -6 -2 -5 -13z"/>
<path d="M2920 1550 c-20 -49 -49 -80 -68 -74 -14 5 -15 4 -2 -5 9 -6 10 -11
3 -11 -12 0 -27 -40 -36 -95 l-6 -30 12 28 c6 15 15 27 20 27 4 0 5 10 2 21
-5 15 -4 19 4 15 7 -5 16 4 22 23 6 17 14 31 17 31 10 0 56 89 50 96 -3 2 -11
-9 -18 -26z"/>
<path d="M1471 1550 c0 -8 4 -24 9 -35 5 -13 9 -14 9 -5 0 8 -4 24 -9 35 -5
13 -9 14 -9 5z"/>
<path d="M2977 1545 c-16 -11 -16 -13 -2 -19 9 -3 14 -2 10 3 -3 5 1 11 7 14
7 2 11 7 8 10 -3 3 -13 0 -23 -8z"/>
<path d="M1511 1534 c0 -11 3 -14 6 -6 3 7 2 16 -1 19 -3 4 -6 -2 -5 -13z"/>
<path d="M1692 1526 c-9 -20 -7 -27 7 -41 17 -15 20 -15 35 1 13 12 14 19 5
30 -6 8 -14 14 -16 14 -3 0 0 -6 6 -13 12 -15 5 -27 -16 -27 -11 0 -13 8 -8
30 8 36 2 39 -13 6z"/>
<path d="M2304 1532 c4 -7 2 -19 -4 -27 -7 -9 -8 -15 -2 -15 16 0 24 32 11 44
-9 8 -10 8 -5 -2z"/>
<path d="M1835 1520 c3 -5 8 -10 11 -10 2 0 4 5 4 10 0 6 -5 10 -11 10 -5 0
-7 -4 -4 -10z"/>
<path d="M2775 1519 c-11 -17 1 -21 15 -4 8 9 8 15 2 15 -6 0 -14 -5 -17 -11z"/>
<path d="M2003 1507 c4 -10 7 -30 7 -43 0 -13 4 -24 9 -24 10 0 -3 68 -15 78
-4 4 -4 -1 -1 -11z"/>
<path d="M2946 1504 c-5 -14 -4 -15 9 -4 17 14 19 20 6 20 -5 0 -12 -7 -15
-16z"/>
<path d="M2337 1495 c-16 -11 -16 -13 -2 -19 9 -3 14 -2 10 3 -3 5 1 11 7 14
7 2 11 7 8 10 -3 3 -13 0 -23 -8z"/>
<path d="M2703 1495 c0 -8 4 -12 9 -9 5 3 6 10 3 15 -9 13 -12 11 -12 -6z"/>
<path d="M1523 1473 l28 -30 -23 -17 c-18 -13 -19 -15 -3 -7 11 5 29 19 39 30
19 21 19 21 0 21 -11 0 -31 7 -44 17 -23 15 -23 14 3 -14z"/>
<path d="M2291 1464 c0 -11 3 -14 6 -6 3 7 2 16 -1 19 -3 4 -6 -2 -5 -13z"/>
<path d="M2775 1470 c3 -5 8 -10 11 -10 2 0 4 5 4 10 0 6 -5 10 -11 10 -5 0
-7 -4 -4 -10z"/>
<path d="M1805 1460 c3 -5 8 -10 11 -10 2 0 4 5 4 10 0 6 -5 10 -11 10 -5 0
-7 -4 -4 -10z"/>
<path d="M1862 1446 c1 -14 5 -23 9 -20 7 4 0 44 -7 44 -2 0 -3 -11 -2 -24z"/>
<path d="M2565 1455 c-33 -8 -78 -15 -100 -16 -29 -1 -33 -3 -15 -6 23 -5 210
25 210 33 0 7 -33 3 -95 -11z"/>
<path d="M1602 1455 c3 -3 18 -8 34 -11 15 -3 33 -13 40 -22 12 -16 13 -15 10
3 -3 19 -30 32 -70 34 -11 1 -17 -1 -14 -4z"/>
<path d="M2351 1457 c2 -2 12 -9 22 -16 14 -11 17 -11 17 1 0 7 -10 14 -21 15
-12 1 -20 1 -18 0z"/>
<path d="M1725 1430 c3 -5 12 -7 20 -3 21 7 19 13 -6 13 -11 0 -18 -4 -14 -10z"/>
<path d="M2324 1399 c-1 -21 2 -36 7 -33 11 6 12 61 1 68 -4 2 -8 -13 -8 -35z"/>
<path d="M1800 1426 c0 -2 9 -6 20 -9 11 -3 18 -1 14 4 -5 9 -34 13 -34 5z"/>
<path d="M2695 1410 c-3 -5 -1 -10 4 -10 6 0 11 5 11 10 0 6 -2 10 -4 10 -3 0
-8 -4 -11 -10z"/>
<path d="M2901 1393 c-10 -26 -10 -27 4 -9 8 11 15 23 15 28 0 15 -7 8 -19
-19z"/>
<path d="M2387 1390 c3 -11 7 -20 9 -20 2 0 4 9 4 20 0 11 -4 20 -9 20 -5 0
-7 -9 -4 -20z"/>
<path d="M1890 1390 c0 -5 5 -10 11 -10 5 0 7 5 4 10 -3 6 -8 10 -11 10 -2 0
-4 -4 -4 -10z"/>
<path d="M2021 1384 c0 -11 3 -14 6 -6 3 7 2 16 -1 19 -3 4 -6 -2 -5 -13z"/>
<path d="M2275 1389 c-4 -6 -5 -12 -2 -15 2 -3 7 2 10 11 7 17 1 20 -8 4z"/>
<path d="M2772 1370 c0 -19 2 -27 5 -17 2 9 2 25 0 35 -3 9 -5 1 -5 -18z"/>
<path d="M2690 1370 c0 -5 5 -10 11 -10 5 0 7 5 4 10 -3 6 -8 10 -11 10 -2 0
-4 -4 -4 -10z"/>
<path d="M1914 1335 c10 -22 22 -44 27 -50 6 -5 2 9 -9 33 -25 55 -39 69 -18
17z"/>
<path d="M1517 1340 c3 -11 7 -20 9 -20 2 0 4 9 4 20 0 11 -4 20 -9 20 -5 0
-7 -9 -4 -20z"/>
<path d="M2273 1285 c0 -38 2 -53 4 -32 2 20 2 52 0 70 -2 17 -4 1 -4 -38z"/>
<path d="M2322 1319 c1 -17 4 -25 8 -18 7 10 2 49 -5 49 -2 0 -3 -14 -3 -31z"/>
<path d="M2032 1320 c0 -14 2 -19 5 -12 2 6 2 18 0 25 -3 6 -5 1 -5 -13z"/>
<path d="M2403 1295 c0 -22 2 -30 4 -17 2 12 2 30 0 40 -3 9 -5 -1 -4 -23z"/>
<path d="M2800 1299 c0 -11 5 -17 10 -14 6 3 10 13 10 21 0 8 -4 14 -10 14 -5
0 -10 -9 -10 -21z"/>
<path d="M1580 1310 c0 -3 7 -23 16 -45 l15 -40 -6 35 c-3 19 -10 39 -15 44
-6 6 -10 8 -10 6z"/>
<path d="M2681 1292 c-1 -13 -5 -31 -10 -40 -5 -9 -11 -37 -15 -62 -5 -42 -5
-43 4 -10 6 19 15 51 21 71 6 20 9 43 6 50 -3 8 -6 4 -6 -9z"/>
<path d="M2042 1260 c0 -19 2 -27 5 -17 2 9 2 25 0 35 -3 9 -5 1 -5 -18z"/>
<path d="M1450 1255 c13 -14 26 -25 28 -25 3 0 -5 11 -18 25 -13 14 -26 25
-28 25 -3 0 5 -11 18 -25z"/>
<path d="M1417 1216 c9 -63 31 -134 32 -107 1 23 -4 41 -28 116 -10 28 -10 27
-4 -9z"/>
<path d="M2406 1195 c3 -27 7 -52 10 -54 9 -9 3 75 -6 89 -7 10 -8 0 -4 -35z"/>
<path d="M2322 1210 c0 -14 2 -19 5 -12 2 6 2 18 0 25 -3 6 -5 1 -5 -13z"/>
<path d="M2950 1214 l-45 -14 43 4 c24 3 46 7 49 10 13 12 -4 12 -47 0z"/>
<path d="M1496 1191 c9 -17 17 -31 19 -31 8 0 -9 40 -21 51 -10 8 -10 3 2 -20z"/>
<path d="M2496 1204 c-11 -7 -18 -16 -15 -18 2 -2 13 2 23 10 11 7 18 16 15
18 -2 2 -13 -2 -23 -10z"/>
<path d="M1623 1173 c0 -18 5 -29 9 -25 5 5 4 19 -1 33 -10 23 -10 22 -8 -8z"/>
<path d="M1980 1190 c0 -5 5 -10 11 -10 5 0 7 5 4 10 -3 6 -8 10 -11 10 -2 0
-4 -4 -4 -10z"/>
<path d="M2866 1191 c-4 -5 3 -7 14 -4 23 6 26 13 6 13 -8 0 -17 -4 -20 -9z"/>
<path d="M1705 1155 c4 -17 11 -34 16 -39 5 -5 4 5 -1 24 -12 42 -24 55 -15
15z"/>
<path d="M2277 1142 c2 -20 8 -53 13 -72 6 -19 8 -89 6 -155 -4 -98 -3 -107 3
-50 18 143 20 185 8 185 -5 0 -8 3 -5 6 4 3 2 18 -2 34 -6 20 -5 30 3 34 9 3
8 5 0 5 -7 1 -13 10 -13 20 0 11 -4 22 -9 25 -4 3 -6 -11 -4 -32z"/>
<path d="M2449 1163 c-13 -16 -12 -17 4 -4 16 13 21 21 13 21 -2 0 -10 -8 -17
-17z"/>
<path d="M1388 1150 c-7 -24 -3 -38 8 -28 3 4 4 17 2 30 l-3 23 -7 -25z"/>
<path d="M2002 1156 c7 -8 15 -12 17 -11 5 6 -10 25 -20 25 -5 0 -4 -6 3 -14z"/>
<path d="M2052 1150 c0 -14 2 -19 5 -12 2 6 2 18 0 25 -3 6 -5 1 -5 -13z"/>
<path d="M2239 1115 c-5 -50 -4 -63 7 -53 3 3 4 28 2 54 l-3 49 -6 -50z"/>
<path d="M2650 1115 c0 -14 2 -25 4 -25 2 0 6 11 8 25 3 14 1 25 -3 25 -5 0
-9 -11 -9 -25z"/>
<path d="M2735 1119 c-11 -17 1 -21 15 -4 8 9 8 15 2 15 -6 0 -14 -5 -17 -11z"/>
<path d="M2830 1127 c0 -16 21 -47 33 -47 8 0 9 3 1 8 -6 4 -16 16 -22 27 -6
11 -12 16 -12 12z"/>
<path d="M1531 1110 c0 -8 4 -24 9 -35 5 -13 9 -14 9 -5 0 8 -4 24 -9 35 -5
13 -9 14 -9 5z"/>
<path d="M1383 1050 c0 -36 2 -50 4 -32 2 17 2 47 0 65 -2 17 -4 3 -4 -33z"/>
<path d="M1640 1091 c0 -11 4 -22 9 -25 4 -3 6 6 3 19 -5 30 -12 33 -12 6z"/>
<path d="M2400 1096 c0 -2 8 -10 18 -17 15 -13 16 -12 3 4 -13 16 -21 21 -21
13z"/>
<path d="M2940 1090 l-25 -8 25 0 c14 0 34 3 45 8 20 9 20 9 0 8 -11 0 -31 -4
-45 -8z"/>
<path d="M1731 1074 c0 -11 3 -14 6 -6 3 7 2 16 -1 19 -3 4 -6 -2 -5 -13z"/>
<path d="M2704 1069 c-19 -22 -19 -22 4 -8 12 8 22 17 22 21 0 12 -6 9 -26
-13z"/>
<path d="M2765 1060 c-4 -17 -5 -34 -2 -36 3 -3 8 9 12 26 4 17 5 34 2 36 -3
3 -8 -9 -12 -26z"/>
<path d="M2560 1029 c-30 -16 -63 -28 -73 -25 -9 2 -15 0 -11 -5 9 -16 37 -9
104 26 36 19 58 34 50 34 -8 0 -40 -14 -70 -30z"/>
<path d="M1649 1025 c5 -17 12 -39 15 -50 3 -11 3 -2 1 19 -2 22 -9 44 -15 50
-7 7 -8 2 -1 -19z"/>
<path d="M1670 1046 c0 -2 11 -6 25 -8 14 -3 25 -1 25 3 0 5 -11 9 -25 9 -14
0 -25 -2 -25 -4z"/>
<path d="M2235 970 c0 -44 3 -80 8 -80 4 0 7 -9 7 -20 0 -33 -19 -23 -36 20
-9 23 -18 39 -20 37 -2 -2 4 -22 13 -46 11 -28 22 -41 32 -39 16 3 29 58 14
58 -4 0 -7 34 -5 75 2 41 0 75 -5 75 -4 0 -8 -36 -8 -80z"/>
<path d="M1737 1028 c6 -7 13 -20 16 -28 3 -8 5 -3 4 13 -1 16 -7 27 -15 27
-10 0 -11 -4 -5 -12z"/>
<path d="M2640 1015 c-6 -8 -10 -19 -8 -24 1 -6 8 1 15 14 13 28 11 31 -7 10z"/>
<path d="M2432 965 c-11 -12 -10 -15 3 -15 8 0 15 7 15 15 0 18 -2 18 -18 0z"/>
<path d="M2691 964 c0 -11 3 -14 6 -6 3 7 2 16 -1 19 -3 4 -6 -2 -5 -13z"/>
<path d="M1388 870 c2 -58 6 -107 8 -109 7 -8 3 124 -6 169 -5 29 -6 9 -2 -60z"/>
<path d="M2200 964 c0 -6 7 -19 16 -30 14 -18 14 -18 3 6 -14 31 -19 36 -19
24z"/>
<path d="M2620 920 c0 -65 15 -65 16 0 1 28 -2 50 -7 50 -5 0 -9 -22 -9 -50z"/>
<path d="M1740 955 c0 -5 5 -17 10 -25 5 -8 10 -10 10 -5 0 6 -5 17 -10 25 -5
8 -10 11 -10 5z"/>
<path d="M1665 931 c-3 -5 -2 -12 3 -15 5 -3 9 1 9 9 0 17 -3 19 -12 6z"/>
<path d="M2940 934 c0 -2 15 -11 33 -20 27 -14 30 -15 19 -2 -11 14 -52 31
-52 22z"/>
<path d="M2888 923 c7 -3 16 -2 19 1 4 3 -2 6 -13 5 -11 0 -14 -3 -6 -6z"/>
<path d="M1562 900 c0 -14 2 -19 5 -12 2 6 2 18 0 25 -3 6 -5 1 -5 -13z"/>
<path d="M1781 904 c0 -11 3 -14 6 -6 3 7 2 16 -1 19 -3 4 -6 -2 -5 -13z"/>
<path d="M1675 865 c4 -16 8 -37 9 -45 1 -9 5 -20 9 -26 3 -6 7 -28 9 -48 1
-21 6 -40 10 -42 11 -7 10 5 -9 93 -9 43 -20 83 -26 88 -6 7 -7 0 -2 -20z"/>
<path d="M2960 876 c19 -7 37 -12 39 -10 8 7 -6 14 -40 19 l-34 5 35 -14z"/>
<path d="M1791 875 c1 -19 18 -51 18 -35 0 8 -4 22 -9 30 -5 8 -9 11 -9 5z"/>
<path d="M2380 835 c0 -5 5 -17 10 -25 5 -8 10 -10 10 -5 0 6 -5 17 -10 25 -5
8 -10 11 -10 5z"/>
<path d="M2880 836 c0 -3 14 -12 30 -21 17 -9 30 -13 30 -11 0 3 -13 12 -30
21 -16 9 -30 13 -30 11z"/>
<path d="M2616 808 c-3 -13 -5 -34 -5 -48 1 -15 5 -7 10 19 9 47 6 68 -5 29z"/>
<path d="M1811 810 c0 -8 6 -35 13 -60 8 -25 15 -38 15 -30 0 8 -6 35 -13 60
-8 25 -15 38 -15 30z"/>
<path d="M1935 810 c3 -5 11 -10 16 -10 6 0 7 5 4 10 -3 6 -11 10 -16 10 -6 0
-7 -4 -4 -10z"/>
<path d="M2283 755 c0 -22 2 -30 4 -17 2 12 2 30 0 40 -3 9 -5 -1 -4 -23z"/>
<path d="M2950 786 c0 -2 7 -7 16 -10 8 -3 12 -2 9 4 -6 10 -25 14 -25 6z"/>
<path d="M2096 753 c4 -16 10 -35 14 -43 3 -8 8 -33 9 -55 2 -22 7 -46 13 -52
13 -16 7 -16 -26 -3 -14 5 -26 6 -26 2 0 -5 -7 -17 -16 -28 -11 -13 -14 -14
-11 -4 3 10 -2 16 -14 17 -15 1 -14 -2 8 -28 15 -16 33 -29 40 -29 8 0 13 -6
11 -12 -3 -17 20 -58 33 -58 5 0 1 10 -10 21 -15 16 -18 26 -11 40 17 31 27
30 27 -4 -1 -18 3 -39 8 -47 5 -9 4 -15 -3 -18 -14 -4 -16 -32 -3 -32 5 0 7
-19 6 -42 -2 -30 -1 -32 2 -8 l4 34 36 -39 c19 -22 28 -29 19 -15 -31 49 -55
98 -50 103 10 10 -16 193 -37 260 -21 67 -35 92 -23 40z m19 -188 c0 -28 -29
-25 -33 3 -3 19 0 23 15 20 10 -2 18 -12 18 -23z"/>
<path d="M2003 746 c15 -14 31 -26 34 -26 10 0 -20 31 -41 42 -15 8 -13 3 7
-16z"/>
<path d="M1391 740 c0 -8 6 -28 14 -45 l14 -30 -6 30 c-7 38 -22 68 -22 45z"/>
<path d="M2770 746 c0 -2 7 -6 15 -10 8 -3 15 -1 15 4 0 6 -7 10 -15 10 -8 0
-15 -2 -15 -4z"/>
<path d="M1436 730 c7 -8 14 -24 17 -35 4 -19 5 -19 6 1 0 12 -7 28 -16 35
-16 12 -17 12 -7 -1z"/>
<path d="M2246 714 c-9 -22 -7 -92 2 -97 4 -3 7 22 7 54 0 32 -1 59 -1 59 -1
0 -5 -7 -8 -16z"/>
<path d="M2836 722 c-7 -12 41 -45 57 -38 7 2 4 5 -5 5 -9 1 -23 10 -31 22 -8
11 -18 16 -21 11z"/>
<path d="M2268 691 c-8 -29 -3 -41 20 -41 11 0 13 3 6 8 -7 4 -14 18 -16 32
l-3 25 -7 -24z"/>
<path d="M2600 695 c-6 -8 -10 -19 -8 -24 1 -6 8 1 15 14 13 28 11 31 -7 10z"/>
<path d="M2720 698 c0 -7 18 -25 39 -40 67 -48 68 -31 1 22 -24 19 -40 26 -40
18z"/>
<path d="M1547 689 c7 -7 15 -10 18 -7 3 3 -2 9 -12 12 -14 6 -15 5 -6 -5z"/>
<path d="M1720 678 c0 -9 5 -20 10 -23 13 -8 13 5 0 25 -8 13 -10 13 -10 -2z"/>
<path d="M2045 681 c-3 -5 -1 -12 5 -16 5 -3 10 1 10 9 0 18 -6 21 -15 7z"/>
<path d="M2390 675 c0 -8 4 -15 10 -15 5 0 7 7 4 15 -4 8 -8 15 -10 15 -2 0
-4 -7 -4 -15z"/>
<path d="M1524 656 c1 -20 26 -36 26 -16 0 6 -4 9 -9 5 -5 -3 -11 3 -14 12 -3
15 -4 15 -3 -1z"/>
<path d="M1461 654 c0 -11 3 -14 6 -6 3 7 2 16 -1 19 -3 4 -6 -2 -5 -13z"/>
<path d="M1418 635 c2 -14 6 -25 8 -25 2 0 4 11 4 25 0 14 -4 25 -9 25 -4 0
-6 -11 -3 -25z"/>
<path d="M2280 606 c-13 -41 -15 -127 -3 -171 5 -16 8 -62 8 -102 0 -39 3 -69
7 -65 7 7 12 69 7 87 -14 57 -20 218 -8 247 6 16 9 31 6 34 -3 3 -10 -11 -17
-30z"/>
<path d="M2410 626 c0 -8 4 -17 9 -20 5 -4 7 3 4 14 -6 23 -13 26 -13 6z"/>
<path d="M2036 613 c-6 -14 -5 -15 5 -6 7 7 10 15 7 18 -3 3 -9 -2 -12 -12z"/>
<path d="M2571 613 c-1 -12 4 -25 9 -28 12 -7 12 2 0 30 -8 19 -9 19 -9 -2z"/>
<path d="M1762 589 c6 -16 12 -28 14 -26 5 5 -13 57 -20 57 -3 0 0 -14 6 -31z"/>
<path d="M1440 569 c11 -36 20 -49 20 -28 0 25 -12 59 -20 59 -5 0 -5 -14 0
-31z"/>
<path d="M1530 596 c0 -2 7 -6 15 -10 8 -3 15 -1 15 4 0 6 -7 10 -15 10 -8 0
-15 -2 -15 -4z"/>
<path d="M2620 580 c0 -5 5 -10 11 -10 5 0 7 5 4 10 -3 6 -8 10 -11 10 -2 0
-4 -4 -4 -10z"/>
<path d="M2561 554 c0 -11 3 -14 6 -6 3 7 2 16 -1 19 -3 4 -6 -2 -5 -13z"/>
<path d="M1861 544 c0 -11 3 -14 6 -6 3 7 2 16 -1 19 -3 4 -6 -2 -5 -13z"/>
<path d="M1780 541 c0 -6 4 -13 10 -16 6 -3 7 1 4 9 -7 18 -14 21 -14 7z"/>
<path d="M2770 530 c-9 -6 -10 -10 -3 -10 6 0 15 5 18 10 8 12 4 12 -15 0z"/>
<path d="M2547 523 c-4 -3 -7 -11 -7 -17 0 -6 5 -5 12 2 6 6 9 14 7 17 -3 3
-9 2 -12 -2z"/>
<path d="M1873 485 c0 -22 2 -30 4 -17 2 12 2 30 0 40 -3 9 -5 -1 -4 -23z"/>
<path d="M1470 504 c0 -5 7 -18 15 -28 8 -11 15 -16 15 -10 0 5 -7 18 -15 28
-8 11 -15 16 -15 10z"/>
<path d="M2446 502 c-2 -4 -1 -14 5 -22 7 -12 9 -10 9 8 0 23 -5 28 -14 14z"/>
<path d="M1526 483 c-6 -14 -5 -15 5 -6 7 7 10 15 7 18 -3 3 -9 -2 -12 -12z"/>
<path d="M1800 470 c0 -5 5 -10 11 -10 5 0 7 5 4 10 -3 6 -8 10 -11 10 -2 0
-4 -4 -4 -10z"/>
<path d="M2517 463 c-4 -3 -7 -11 -7 -17 0 -6 5 -5 12 2 6 6 9 14 7 17 -3 3
-9 2 -12 -2z"/>
<path d="M2582 440 c0 -14 2 -19 5 -12 2 6 2 18 0 25 -3 6 -5 1 -5 -13z"/>
<path d="M1821 442 c-1 -14 37 -92 44 -92 3 0 -3 17 -13 38 -11 20 -22 44 -25
52 -4 10 -6 11 -6 2z"/>
<path d="M2442 400 c0 -14 2 -19 5 -12 2 6 2 18 0 25 -3 6 -5 1 -5 -13z"/>
<path d="M2485 400 c-3 -6 1 -7 9 -4 18 7 21 14 7 14 -6 0 -13 -4 -16 -10z"/>
<path d="M2637 404 c-3 -3 -3 -13 0 -21 5 -12 7 -12 14 -1 7 11 11 10 18 -2 6
-8 14 -11 18 -6 4 4 -1 14 -11 22 -22 15 -30 17 -39 8z"/>
<path d="M1326 385 c4 -8 8 -15 10 -15 2 0 4 7 4 15 0 8 -4 15 -10 15 -5 0 -7
-7 -4 -15z"/>
<path d="M1638 393 c7 -3 16 -2 19 1 4 3 -2 6 -13 5 -11 0 -14 -3 -6 -6z"/>
<path d="M1540 388 c0 -4 6 -22 14 -40 8 -18 19 -49 25 -68 l11 -35 -6 40 c-5
34 -42 123 -44 103z"/>
<path d="M2977 331 c-24 -42 -21 -52 4 -13 12 18 20 35 17 37 -2 2 -12 -9 -21
-24z"/>
<path d="M1679 322 c-51 -56 -61 -75 -15 -28 26 26 46 50 43 52 -2 2 -15 -9
-28 -24z"/>
<path d="M2691 334 c0 -11 3 -14 6 -6 3 7 2 16 -1 19 -3 4 -6 -2 -5 -13z"/>
<path d="M1401 294 c0 -11 3 -14 6 -6 3 7 2 16 -1 19 -3 4 -6 -2 -5 -13z"/>
<path d="M2091 284 c-19 -13 -29 -24 -23 -24 6 0 24 11 39 25 35 31 28 31 -16
-1z"/>
<path d="M2230 291 c16 -31 32 -36 18 -7 -6 14 -15 26 -20 26 -5 0 -4 -9 2
-19z"/>
<path d="M2944 268 c-4 -7 -14 -24 -23 -37 -15 -23 -15 -24 8 -12 12 7 20 15
17 18 -3 3 -1 14 5 24 11 21 5 26 -7 7z"/>
<path d="M2035 250 c-3 -5 -1 -10 4 -10 6 0 11 5 11 10 0 6 -2 10 -4 10 -3 0
-8 -4 -11 -10z"/>
<path d="M2105 236 c-20 -15 -17 -45 7 -60 24 -15 53 13 44 42 -9 26 -30 34
-51 18z m43 -23 c5 -17 -26 -29 -40 -15 -6 6 -7 15 -3 22 9 14 37 9 43 -7z"/>
<path d="M2640 199 c0 -5 5 -7 10 -4 6 3 10 8 10 11 0 2 -4 4 -10 4 -5 0 -10
-5 -10 -11z"/>
<path d="M2892 175 c-17 -37 -14 -45 4 -12 9 16 14 31 11 33 -2 2 -9 -7 -15
-21z"/>
<path d="M2955 179 c-4 -6 -5 -12 -2 -15 2 -3 7 2 10 11 7 17 1 20 -8 4z"/>
<path d="M2116 152 c-3 -4 4 -9 15 -9 23 -2 25 3 4 10 -8 4 -16 3 -19 -1z"/>
<path d="M2065 130 c-10 -11 -15 -20 -12 -20 4 0 16 9 27 20 11 11 16 20 12
20 -5 0 -17 -9 -27 -20z"/>
<path d="M2860 108 c-12 -22 -12 -22 6 -6 10 10 15 20 12 24 -4 3 -12 -5 -18
-18z"/>
<path d="M1790 116 c0 -2 9 -6 20 -9 11 -3 18 -1 14 4 -5 9 -34 13 -34 5z"/>
<path d="M2565 100 c3 -5 8 -10 11 -10 2 0 4 5 4 10 0 6 -5 10 -11 10 -5 0 -7
-4 -4 -10z"/>
<path d="M1840 96 c0 -2 9 -6 20 -9 11 -3 18 -1 14 4 -5 9 -34 13 -34 5z"/>
<path d="M2590 90 c0 -5 5 -10 11 -10 5 0 7 5 4 10 -3 6 -8 10 -11 10 -2 0 -4
-4 -4 -10z"/>
<path d="M2051 64 c0 -11 3 -14 6 -6 3 7 2 16 -1 19 -3 4 -6 -2 -5 -13z"/>
<path d="M1678 42 c13 -17 28 -35 34 -39 7 -3 2 8 -10 25 -13 17 -28 35 -34
39 -7 3 -2 -8 10 -25z"/>
<path d="M2191 54 c0 -11 3 -14 6 -6 3 7 2 16 -1 19 -3 4 -6 -2 -5 -13z"/>
<path d="M2444 35 c-3 -8 -4 -20 -2 -27 3 -7 7 -1 10 15 6 29 1 36 -8 12z"/>
<path d="M2557 39 c7 -7 15 -10 18 -7 3 3 -2 9 -12 12 -14 6 -15 5 -6 -5z"/>
<path d="M2598 43 c7 -3 16 -2 19 1 4 3 -2 6 -13 5 -11 0 -14 -3 -6 -6z"/>
<path d="M2811 14 c0 -11 3 -14 6 -6 3 7 2 16 -1 19 -3 4 -6 -2 -5 -13z"/>
</g>
</svg>
